<?xml version="1.0" encoding="UTF-8" standalone="no"?>
<svg width="1024px" height="870px" viewBox="0 0 1024 870" version="1.1" xmlns="http://www.w3.org/2000/svg" xmlns:xlink="http://www.w3.org/1999/xlink" xmlns:sketch="http://www.bohemiancoding.com/sketch/ns">
    <!-- Generator: Sketch 3.0.3 (7892) - http://www.bohemiancoding.com/sketch -->
    <title>Pictos/Custom</title>
    <desc>Created with Sketch.</desc>
    <defs></defs>
    <g id="Custom-Pictos" stroke="none" stroke-width="1" fill="none" fill-rule="evenodd" sketch:type="MSPage">
        <g id="Pictos/Custom" sketch:type="MSArtboardGroup">
            <g id="Titre" sketch:type="MSLayerGroup" transform="translate(0.000000, 21.000000)">
                <text id="Custom-pictogramms" sketch:type="MSTextLayer" font-family="Lato" font-size="30" font-weight="normal" fill="#015173">
                    <tspan x="30" y="30">Custom pictogramms</tspan>
                </text>
                <path d="M0,57.5 L1023.56146,57.5" id="Line" stroke="#015173" stroke-linecap="square" sketch:type="MSShapeGroup"></path>
            </g>
            <path d="M89.7288136,178.489531 L89.7288136,147.083749 C89.7288136,146.611206 89.9039833,146.20228 90.2543281,145.85696 C90.6046729,145.51164 91.0195487,145.338983 91.4989678,145.338983 L141.063288,145.338983 C141.542707,145.338983 141.957583,145.51164 142.307927,145.85696 C142.658272,146.20228 142.833442,146.611206 142.833442,147.083749 L142.833442,178.489531 C142.833442,178.962074 142.658272,179.371 142.307927,179.71632 C141.957583,180.06164 141.542707,180.234297 141.063288,180.234297 L91.4989678,180.234297 C91.0195487,180.234297 90.6046729,180.06164 90.2543281,179.71632 C89.9039833,179.371 89.7288136,178.962074 89.7288136,178.489531 Z M107.430356,162.78664 C107.430356,161.514409 107.623965,160.224022 108.011188,158.915441 C108.398411,157.60686 108.946969,156.389171 109.656879,155.262338 C110.366788,154.135505 111.302563,153.217694 112.464233,152.50888 C113.625902,151.800065 114.898188,151.445663 116.281128,151.445663 C117.664068,151.445663 118.936353,151.800065 120.098023,152.50888 C121.259692,153.217694 122.195468,154.135505 122.905377,155.262338 C123.615286,156.389171 124.163844,157.60686 124.551067,158.915441 C124.93829,160.224022 125.131899,161.514409 125.131899,162.78664 C125.131899,164.058871 124.93829,165.349258 124.551067,166.657839 C124.163844,167.96642 123.615286,169.184109 122.905377,170.310942 C122.195468,171.437776 121.259692,172.355586 120.098023,173.064401 C118.936353,173.773215 117.664068,174.127617 116.281128,174.127617 C114.898188,174.127617 113.625902,173.773215 112.464233,173.064401 C111.302563,172.355586 110.366788,171.437776 109.656879,170.310942 C108.946969,169.184109 108.398411,167.96642 108.011188,166.657839 C107.623965,165.349258 107.430356,164.058871 107.430356,162.78664 Z M111.862528,167.222551 L112.798061,165.94569 C112.840448,165.882635 112.910082,165.844802 113.006967,165.832191 C113.097795,165.81958 113.170457,165.847954 113.224955,165.917315 C113.224955,165.917315 113.23101,165.92362 113.24312,165.936231 C113.927365,166.560478 114.663068,166.954567 115.450251,167.118511 C115.674296,167.168955 115.898337,167.194176 116.122381,167.194176 C116.612857,167.194176 117.044288,167.05861 117.416687,166.787472 C117.789085,166.516335 117.975281,166.131704 117.975281,165.633568 C117.975281,165.457013 117.929868,165.28992 117.839039,165.132282 C117.74821,164.974644 117.646786,164.84223 117.534764,164.735036 C117.422741,164.627842 117.245628,164.509615 117.003417,164.380352 C116.761207,164.251089 116.561386,164.150202 116.40395,164.077689 C116.246513,164.005175 116.004306,163.902712 115.677322,163.770296 C115.441167,163.669408 115.254971,163.59059 115.118727,163.53384 C114.982484,163.477091 114.796288,163.393544 114.560133,163.283197 C114.323977,163.172851 114.134753,163.075117 113.992455,162.989992 C113.850156,162.904868 113.679098,162.792946 113.479274,162.654225 C113.279451,162.515503 113.117475,162.381513 112.993342,162.25225 C112.869209,162.122987 112.73751,161.968504 112.598239,161.788797 C112.458968,161.609089 112.351488,161.426232 112.275798,161.240219 C112.200107,161.054206 112.136528,160.844551 112.085058,160.611247 C112.033588,160.377942 112.007854,160.132031 112.007854,159.873504 C112.007854,159.003343 112.304557,158.240386 112.897972,157.584612 C113.491388,156.928838 114.263422,156.506375 115.214097,156.317209 L115.214097,154.614727 C115.214097,154.532755 115.242859,154.461819 115.300384,154.401917 C115.357909,154.342015 115.42603,154.312064 115.504748,154.312064 L116.730932,154.312064 C116.815706,154.312064 116.88534,154.340438 116.939837,154.397188 C116.994335,154.453938 117.021583,154.52645 117.021583,154.614727 L117.021583,156.279376 C117.366733,156.317209 117.701281,156.389722 118.025237,156.496916 C118.349193,156.604109 118.612593,156.709725 118.815444,156.813766 C119.018295,156.917807 119.210547,157.036034 119.392205,157.16845 C119.573863,157.300866 119.691938,157.392295 119.746436,157.442739 C119.800933,157.493183 119.846347,157.537321 119.882678,157.575154 C119.985618,157.688653 120.000756,157.808456 119.928093,157.934567 L119.192382,159.315469 C119.14394,159.410052 119.074306,159.460495 118.983477,159.4668 C118.898703,159.485717 118.816959,159.463648 118.73824,159.400593 C118.720074,159.381676 118.676174,159.343844 118.606539,159.287094 C118.536903,159.230344 118.418828,159.146798 118.252308,159.036451 C118.085788,158.926104 117.908675,158.825218 117.720962,158.733787 C117.533249,158.642357 117.307694,158.560387 117.04429,158.487873 C116.780886,158.41536 116.522028,158.379104 116.267707,158.379104 C115.692457,158.379104 115.223182,158.51467 114.859866,158.785808 C114.496551,159.056945 114.314896,159.406896 114.314896,159.835672 C114.314896,159.999615 114.34063,160.150945 114.3921,160.289667 C114.44357,160.428388 114.532883,160.559226 114.660044,160.682183 C114.787204,160.805141 114.906794,160.909181 115.018816,160.994305 C115.130838,161.07943 115.300383,161.177164 115.527455,161.28751 C115.754528,161.397857 115.937696,161.48298 116.076967,161.542883 C116.216238,161.602785 116.428169,161.689485 116.712766,161.802984 C117.033695,161.929094 117.278929,162.028405 117.448477,162.100918 C117.618024,162.173432 117.84812,162.283777 118.138773,162.431956 C118.429425,162.580136 118.658008,162.714126 118.824527,162.833931 C118.991047,162.953736 119.178757,163.111372 119.387663,163.306843 C119.59657,163.502314 119.757032,163.702511 119.869054,163.907441 C119.981076,164.11237 120.076445,164.353553 120.155164,164.630995 C120.233882,164.908438 120.273241,165.204793 120.273241,165.520069 C120.273241,166.484814 119.971996,167.315554 119.369498,168.012314 C118.766999,168.709073 117.984369,169.139419 117.021583,169.303362 L117.021583,170.958553 C117.021583,171.04683 116.994335,171.119343 116.939837,171.176092 C116.88534,171.232842 116.815706,171.261216 116.730932,171.261216 L115.504748,171.261216 C115.42603,171.261216 115.357909,171.231266 115.300384,171.171363 C115.242859,171.111461 115.214097,171.040525 115.214097,170.958553 L115.214097,169.303362 C114.81445,169.246613 114.428433,169.148878 114.056035,169.010157 C113.683636,168.871436 113.376337,168.73114 113.134126,168.589266 C112.891916,168.447391 112.667875,168.296061 112.461996,168.135271 C112.256117,167.97448 112.115335,167.856253 112.039644,167.780587 C111.963953,167.704921 111.91097,167.648172 111.880694,167.610339 C111.777755,167.477923 111.771699,167.348661 111.862528,167.222551 Z M126.926986,137.191817 L127.035424,137.057907 C130.645839,134.322346 134.639531,132.968887 139.01662,132.99749 C143.393709,133.026093 147.364702,134.483818 150.929718,137.370711 C152.822418,138.903389 154.37665,140.747955 155.592463,142.904466 C156.808275,145.060976 157.588188,147.344877 157.932224,149.756236 L162.458496,149.335521 C162.901029,149.292664 163.290818,149.407705 163.627874,149.680647 C163.96493,149.95359 164.158499,150.310942 164.208586,150.752715 C164.258674,151.194489 164.149461,151.581164 163.880946,151.912753 L156.940888,160.48301 C156.672373,160.814599 156.316854,161.001819 155.874321,161.044676 C155.431788,161.087533 155.041999,160.972492 154.704943,160.699549 L145.993384,153.645068 C145.656328,153.372125 145.462759,153.014773 145.412672,152.573 C145.362585,152.131227 145.471797,151.744552 145.740312,151.412963 C146.008828,151.081374 146.364347,150.894153 146.80688,150.851296 L151.628137,150.384383 C151.12438,147.083491 149.569674,144.378057 146.963971,142.268001 C145.226836,140.861297 143.270759,139.963573 141.095682,139.574801 C138.920605,139.18603 136.790701,139.351164 134.705905,140.070209 C134.387736,140.171541 133.440053,140.639418 131.862826,141.473853 C131.521584,141.683199 131.208366,141.672397 130.923165,141.441445 L127.053522,138.30787 C126.884994,138.171399 126.788209,137.992722 126.763166,137.771836 C126.738122,137.550949 126.792728,137.357612 126.926986,137.191817 Z M76.522062,166.55583 C76.7934039,166.220751 77.1507708,166.030026 77.5941733,165.98365 C78.0375759,165.937274 78.426981,166.049893 78.7624005,166.32151 L87.4316593,173.341737 C87.7670788,173.613355 87.9581985,173.970836 88.0050244,174.414191 C88.0518502,174.857546 87.9395939,175.246758 87.6682519,175.581837 C87.39691,175.916916 87.0395431,176.107641 86.5961405,176.154017 L81.8004159,176.65561 C82.0275779,178.24792 82.5338328,179.746138 83.3191958,181.150307 C84.1045588,182.554477 85.1229113,183.763215 86.3742838,184.776556 C88.1029839,186.17643 90.0547255,187.06342 92.2295671,187.437552 C94.4044086,187.811685 96.5381886,187.629795 98.630971,186.891878 C98.9502951,186.787703 99.90267,186.310622 101.488124,185.460622 C101.831364,185.24778 102.144887,185.256274 102.428703,185.486104 L106.1441,188.494773 C106.311809,188.630581 106.407369,188.809322 106.430782,189.031 C106.454195,189.252677 106.398067,189.447283 106.262396,189.614823 C106.210215,189.679261 106.167238,189.719144 106.133465,189.734472 C102.510908,192.519771 98.5149971,193.919723 94.1456126,193.934368 C89.776228,193.949014 85.8241927,192.525144 82.2893879,189.662716 C80.4058788,188.13748 78.8706675,186.307484 77.6837081,184.172671 C76.4967487,182.037858 75.7453379,179.75431 75.4294533,177.321958 L70.913771,177.79426 C70.4703685,177.840637 70.0809633,177.728018 69.7455439,177.4564 C69.4101245,177.184783 69.2190047,176.827302 69.1721788,176.383947 C69.125353,175.940592 69.2376093,175.55138 69.5089513,175.216301 L76.522062,166.55583 Z" id="Assets/Pictos/Currency-exchange" fill="#000000" sketch:type="MSShapeGroup"></path>
            <text id="Currency-exchange" sketch:type="MSTextLayer" font-family="Lato" font-size="20" font-weight="normal" fill="#333333">
                <tspan x="196" y="173">Currency exchange</tspan>
            </text>
            <text id="Pay-later" sketch:type="MSTextLayer" font-family="Lato" font-size="20" font-weight="normal" fill="#333333">
                <tspan x="196" y="278">Pay later</tspan>
            </text>
            <text id="Free-cancellation" sketch:type="MSTextLayer" font-family="Lato" font-size="20" font-weight="normal" fill="#333333">
                <tspan x="196" y="416">Free cancellation</tspan>
            </text>
            <text id="Delete" sketch:type="MSTextLayer" font-family="Lato" font-size="20" font-weight="normal" fill="#333333">
                <tspan x="196" y="565">Delete</tspan>
            </text>
            <text id="Closed" sketch:type="MSTextLayer" font-family="Lato" font-size="20" font-weight="normal" fill="#333333">
                <tspan x="196" y="703">Closed</tspan>
            </text>
            <text id="Reception" sketch:type="MSTextLayer" font-family="Lato" font-size="20" font-weight="normal" fill="#333333">
                <tspan x="634" y="173">Reception</tspan>
            </text>
            <text id="Room" sketch:type="MSTextLayer" font-family="Lato" font-size="20" font-weight="normal" fill="#333333">
                <tspan x="634" y="287">Room</tspan>
            </text>
            <path d="M155,239.416667 C155,238.013014 154.331604,237.02713 152.994792,236.458984 C151.6914,235.890839 150.538416,236.124778 149.535807,237.160807 L143.01888,243.627604 C139.442907,240.252153 135.357336,237.637054 130.762044,235.782227 C126.166752,233.9274 121.412785,233 116.5,233 C111.286432,233 106.306881,234.019304 101.561198,236.057943 C96.8155145,238.096581 92.7215884,240.837005 89.2792969,244.279297 C85.8370054,247.721588 83.0965814,251.815514 81.0579427,256.561198 C79.019304,261.306881 78,266.286432 78,271.5 C78,276.713568 79.019304,281.693119 81.0579427,286.438802 C83.0965814,291.184486 85.8370054,295.278412 89.2792969,298.720703 C92.7215884,302.162995 96.8155145,304.903419 101.561198,306.942057 C106.306881,308.980696 111.286432,310 116.5,310 C122.248293,310 127.712431,308.788532 132.892578,306.36556 C138.072726,303.942588 142.48414,300.525413 146.126953,296.113932 C146.360895,295.779729 146.46951,295.403756 146.452799,294.986003 C146.436089,294.568249 146.294055,294.225696 146.026693,293.958333 L139.158854,287.040365 C138.824651,286.739582 138.406904,286.589193 137.905599,286.589193 C137.370874,286.656033 136.986546,286.856552 136.752604,287.190755 C134.312922,290.365684 131.321849,292.82204 127.779297,294.559896 C124.236744,296.297752 120.477016,297.166667 116.5,297.166667 C113.024288,297.166667 109.707373,296.489916 106.549154,295.136393 C103.390935,293.782871 100.658866,291.953137 98.3528646,289.647135 C96.0468635,287.341134 94.2171292,284.609065 92.8636068,281.450846 C91.5100844,278.292627 90.8333333,274.975712 90.8333333,271.5 C90.8333333,268.024288 91.5100844,264.707373 92.8636068,261.549154 C94.2171292,258.390935 96.0468635,255.658866 98.3528646,253.352865 C100.658866,251.046863 103.390935,249.217129 106.549154,247.863607 C109.707373,246.510084 113.024288,245.833333 116.5,245.833333 C119.77519,245.833333 122.916652,246.426535 125.924479,247.612956 C128.932307,248.799377 131.605891,250.495432 133.945312,252.701172 L127.077474,259.619141 C126.041444,260.62175 125.807506,261.774733 126.375651,263.078125 C126.943796,264.414937 127.92968,265.083333 129.333333,265.083333 L151.791667,265.083333 C152.660595,265.083333 153.41254,264.765845 154.047526,264.130859 C154.682512,263.495874 155,262.743928 155,261.875 L155,239.416667 Z M106.860677,280.863607 L108.950629,278.124349 C109.04532,277.989076 109.200881,277.907914 109.417318,277.880859 C109.620227,277.853805 109.782551,277.914677 109.904297,278.063477 L109.944878,278.104058 C111.47346,279.443258 113.116998,280.288699 114.875543,280.640408 C115.376051,280.748626 115.876553,280.802734 116.377062,280.802734 C117.47277,280.802734 118.436574,280.511903 119.2685,279.93023 C120.100427,279.348558 120.516385,278.523407 120.516385,277.454753 C120.516385,277.075989 120.414932,276.717522 120.212023,276.37934 C120.009114,276.041159 119.782535,275.75709 119.532281,275.527127 C119.282026,275.297163 118.88636,275.043531 118.345269,274.766222 C117.804178,274.488913 117.357785,274.27248 117.006076,274.116916 C116.654367,273.961353 116.113285,273.741538 115.382812,273.457465 C114.855249,273.241029 114.439292,273.071941 114.134928,272.950195 C113.830565,272.82845 113.414608,272.649216 112.887044,272.412489 C112.359481,272.175762 111.93676,271.966092 111.618869,271.783474 C111.300979,271.600856 110.918839,271.360751 110.472439,271.063151 C110.026039,270.765551 109.66419,270.478101 109.386882,270.200792 C109.109573,269.923483 108.815359,269.59207 108.504232,269.206543 C108.193105,268.821016 107.952999,268.428731 107.783908,268.029677 C107.614818,267.630622 107.472783,267.180847 107.357802,266.680339 C107.24282,266.17983 107.18533,265.652274 107.18533,265.097656 C107.18533,263.230893 107.848156,261.594119 109.173828,260.187283 C110.4995,258.780447 112.224201,257.874134 114.347982,257.468316 L114.347982,253.815972 C114.347982,253.640118 114.412235,253.487938 114.540744,253.359429 C114.669253,253.23092 114.821433,253.166667 114.997287,253.166667 L117.736545,253.166667 C117.925927,253.166667 118.081488,253.227538 118.203234,253.349284 C118.324979,253.471029 118.385851,253.62659 118.385851,253.815972 L118.385851,257.387153 C119.156905,257.468316 119.904275,257.623878 120.627984,257.853841 C121.351693,258.083805 121.94012,258.310383 122.393283,258.533583 C122.846447,258.756783 123.275931,259.010415 123.681749,259.294488 C124.087567,259.57856 124.351345,259.774703 124.47309,259.882921 C124.594836,259.991139 124.696289,260.085829 124.777452,260.166992 C125.007416,260.410483 125.041233,260.667497 124.878906,260.938043 L123.235352,263.900499 C123.127133,264.103408 122.971572,264.211625 122.768663,264.225152 C122.579281,264.265734 122.396666,264.218389 122.220812,264.083116 C122.18023,264.042535 122.082159,263.961372 121.926595,263.839627 C121.771031,263.717881 121.507254,263.538648 121.135254,263.301921 C120.763254,263.065193 120.367587,262.84876 119.948242,262.652615 C119.528897,262.45647 119.025014,262.280618 118.436578,262.125054 C117.848142,261.969491 117.26986,261.89171 116.701714,261.89171 C115.416624,261.89171 114.368277,262.182542 113.556641,262.764214 C112.745005,263.345887 112.339193,264.096639 112.339193,265.016493 C112.339193,265.368202 112.396683,265.692852 112.511664,265.990451 C112.626646,266.288051 112.82617,266.568738 113.110243,266.83252 C113.394316,267.096301 113.661475,267.319498 113.91173,267.502116 C114.161984,267.684734 114.540742,267.894403 115.048014,268.131131 C115.555287,268.367858 115.964481,268.550473 116.275608,268.678982 C116.586735,268.807491 117.060182,268.993488 117.695964,269.236979 C118.412909,269.507525 118.960755,269.720576 119.339518,269.876139 C119.718282,270.031703 120.23231,270.268427 120.881619,270.586317 C121.530928,270.904208 122.041574,271.191658 122.413574,271.448676 C122.785574,271.705694 123.204913,272.043871 123.671604,272.463216 C124.138294,272.882561 124.496762,273.312046 124.747016,273.751682 C124.99727,274.191318 125.210322,274.708728 125.386176,275.303928 C125.562031,275.899128 125.649957,276.5349 125.649957,277.211263 C125.649957,279.280935 124.976985,281.063125 123.631022,282.557888 C122.285059,284.052651 120.536686,284.975874 118.385851,285.327582 L118.385851,288.878472 C118.385851,289.067854 118.324979,289.223415 118.203234,289.345161 C118.081488,289.466906 117.925927,289.527778 117.736545,289.527778 L114.997287,289.527778 C114.821433,289.527778 114.669253,289.463524 114.540744,289.335015 C114.412235,289.206506 114.347982,289.054327 114.347982,288.878472 L114.347982,285.327582 C113.455182,285.205837 112.592832,284.996168 111.760905,284.698568 C110.928978,284.400968 110.24248,284.099991 109.701389,283.795627 C109.160298,283.491264 108.659797,283.166614 108.19987,282.821669 C107.739943,282.476724 107.425438,282.223091 107.256348,282.060764 C107.087257,281.898437 106.968895,281.776693 106.901259,281.69553 C106.671295,281.411457 106.657768,281.134152 106.860677,280.863607 Z" id="Assets/Pictos/pay-later" fill="#000000" sketch:type="MSShapeGroup"></path>
            <path d="M74,436.071429 L74,376.785714 C74,375.180051 74.586132,373.790556 75.7584135,372.617188 C76.930695,371.443819 78.3189022,370.857143 79.9230769,370.857143 L85.8461538,370.857143 L85.8461538,366.410714 C85.8461538,364.372758 86.5711065,362.628169 88.0210337,361.176897 C89.4709608,359.725625 91.2139321,359 93.25,359 L96.2115385,359 C98.2476063,359 99.9905777,359.725625 101.440505,361.176897 C102.890432,362.628169 103.615385,364.372758 103.615385,366.410714 L103.615385,370.857143 L121.384615,370.857143 L121.384615,366.410714 C121.384615,364.372758 122.109568,362.628169 123.559495,361.176897 C125.009422,359.725625 126.752394,359 128.788462,359 L131.75,359 C133.786068,359 135.529039,359.725625 136.978966,361.176897 C138.428893,362.628169 139.153846,364.372758 139.153846,366.410714 L139.153846,370.857143 L145.076923,370.857143 C146.681098,370.857143 148.069305,371.443819 149.241587,372.617188 C150.413868,373.790556 151,375.180051 151,376.785714 L151,436.071429 C151,437.677091 150.413868,439.066586 149.241587,440.239955 C148.069305,441.413324 146.681098,442 145.076923,442 L79.9230769,442 C78.3189022,442 76.930695,441.413324 75.7584135,440.239955 C74.586132,439.066586 74,437.677091 74,436.071429 Z M79.9230769,436.071429 L145.076923,436.071429 L145.076923,388.642857 L79.9230769,388.642857 L79.9230769,436.071429 Z M91.7692308,379.75 C91.7692308,380.182294 91.9080515,380.537387 92.1856971,380.81529 C92.4633427,381.093193 92.8181068,381.232143 93.25,381.232143 L96.2115385,381.232143 C96.6434316,381.232143 96.9981957,381.093193 97.2758413,380.81529 C97.553487,380.537387 97.6923077,380.182294 97.6923077,379.75 L97.6923077,366.410714 C97.6923077,365.97842 97.553487,365.623327 97.2758413,365.345424 C96.9981957,365.067521 96.6434316,364.928571 96.2115385,364.928571 L93.25,364.928571 C92.8181068,364.928571 92.4633427,365.067521 92.1856971,365.345424 C91.9080515,365.623327 91.7692308,365.97842 91.7692308,366.410714 L91.7692308,379.75 Z M127.307692,379.75 C127.307692,380.182294 127.446513,380.537387 127.724159,380.81529 C128.001804,381.093193 128.356568,381.232143 128.788462,381.232143 L131.75,381.232143 C132.181893,381.232143 132.536657,381.093193 132.814303,380.81529 C133.091949,380.537387 133.230769,380.182294 133.230769,379.75 L133.230769,366.410714 C133.230769,365.97842 133.091949,365.623327 132.814303,365.345424 C132.536657,365.067521 132.181893,364.928571 131.75,364.928571 L128.788462,364.928571 C128.356568,364.928571 128.001804,365.067521 127.724159,365.345424 C127.446513,365.623327 127.307692,365.97842 127.307692,366.410714 L127.307692,379.75 Z M99.6666667,420.074247 C99.6666667,419.499057 99.8668877,419.010152 100.267336,418.607519 L106.57436,412.266079 L100.267336,405.924639 C99.8668877,405.522006 99.6666667,405.033101 99.6666667,404.457911 C99.6666667,403.882721 99.8668877,403.393817 100.267336,402.991184 L103.184871,400.057728 C103.585319,399.655095 104.07157,399.453782 104.643638,399.453782 C105.215707,399.453782 105.701958,399.655095 106.102406,400.057728 L112.40943,406.399168 L118.716455,400.057728 C119.116903,399.655095 119.603154,399.453782 120.175222,399.453782 C120.747291,399.453782 121.233542,399.655095 121.63399,400.057728 L124.551525,402.991184 C124.951973,403.393817 125.152194,403.882721 125.152194,404.457911 C125.152194,405.033101 124.951973,405.522006 124.551525,405.924639 L118.244501,412.266079 L124.551525,418.607519 C124.951973,419.010152 125.152194,419.499057 125.152194,420.074247 C125.152194,420.649437 124.951973,421.138341 124.551525,421.540974 L121.63399,424.47443 C121.233542,424.877063 120.747291,425.078376 120.175222,425.078376 C119.603154,425.078376 119.116903,424.877063 118.716455,424.47443 L112.40943,418.13299 L106.102406,424.47443 C105.701958,424.877063 105.215707,425.078376 104.643638,425.078376 C104.07157,425.078376 103.585319,424.877063 103.184871,424.47443 L100.267336,421.540974 C99.8668877,421.138341 99.6666667,420.649437 99.6666667,420.074247 Z" id="Assets/Pictos/free-cancel" fill="#000000" sketch:type="MSShapeGroup"></path>
            <path d="M146.685,509.526 L125.631,509.526 L125.631,501.631 C125.631,500.173 124.458,499 123.001,499 L101.947,499 C100.489,499 99.316,500.173 99.316,501.631 L99.316,509.526 L78.263,509.526 C75.347,509.526 73,511.874 73,514.789 C73,517.706 75.347,520.052 78.263,520.052 L146.685,520.052 C149.6,520.052 151.948,517.705 151.948,514.789 C151.947,511.874 149.6,509.526 146.685,509.526 L146.685,509.526 Z M120.368,509.526 L104.579,509.526 L104.579,504.263 L120.368,504.263 L120.368,509.526 L120.368,509.526 Z M73.082,530.579 L83.526,593.737 C84.002,596.613 85.874,599 88.79,599 L136.159,599 C139.075,599 140.942,596.613 141.421,593.736 L151.867,530.578 C152.342,527.702 149.6,525.315 146.685,525.315 L78.263,525.315 C75.347,525.316 72.603,527.703 73.082,530.579 Z" id="Assets/Pictos/delete" fill="#000000" sketch:type="MSShapeGroup"></path>
            <path d="M124.975105,669.031746 L98.6811594,669.031746 L98.6811594,669.031746 L108.411269,659.237567 C109.384986,659.899332 110.558628,660.285714 111.821925,660.285714 C113.088427,660.285714 114.264819,659.89737 115.239988,659.232525 L124.975105,669.031746 L124.975105,669.031746 Z M128.972043,669.031746 L146.57001,669.031746 C149.57085,669.031746 152,671.457165 152,674.449071 L152,719.582675 C152,722.57715 149.568911,725 146.57001,725 L78.4299899,725 C75.4291503,725 73,722.574581 73,719.582675 L73,674.449071 C73,671.454596 75.4310893,669.031746 78.4299899,669.031746 L94.6608684,669.031746 L106.486918,657.127825 C105.997872,656.2441 105.719252,655.22623 105.719252,654.142857 C105.719252,650.750251 108.451512,648 111.821925,648 C115.192338,648 117.924598,650.750251 117.924598,654.142857 C117.924598,655.22912 117.644491,656.249529 117.153015,657.134893 L128.972043,669.031746 Z M111.821925,656.735773 C113.244585,656.735773 114.397879,655.574885 114.397879,654.142857 C114.397879,652.710829 113.244585,651.549941 111.821925,651.549941 C110.399265,651.549941 109.245971,652.710829 109.245971,654.142857 C109.245971,655.574885 110.399265,656.735773 111.821925,656.735773 Z M95.452777,708.579854 C95.452777,707.826979 95.7145556,707.187044 96.2381208,706.660032 L104.484231,698.359623 L96.2381208,690.059214 C95.7145556,689.532202 95.452777,688.892267 95.452777,688.139392 C95.452777,687.386517 95.7145556,686.746582 96.2381208,686.21957 L100.052648,682.379925 C100.576213,681.852912 101.211961,681.58941 101.959912,681.58941 C102.707862,681.58941 103.34361,681.852912 103.867175,682.379925 L112.113285,690.680333 L120.359396,682.379925 C120.882961,681.852912 121.518709,681.58941 122.266659,681.58941 C123.01461,681.58941 123.650358,681.852912 124.173923,682.379925 L127.98845,686.21957 C128.512015,686.746582 128.773794,687.386517 128.773794,688.139392 C128.773794,688.892267 128.512015,689.532202 127.98845,690.059214 L119.74234,698.359623 L127.98845,706.660032 C128.512015,707.187044 128.773794,707.826979 128.773794,708.579854 C128.773794,709.332729 128.512015,709.972664 127.98845,710.499676 L124.173923,714.339321 C123.650358,714.866334 123.01461,715.129836 122.266659,715.129836 C121.518709,715.129836 120.882961,714.866334 120.359396,714.339321 L112.113285,706.038913 L103.867175,714.339321 C103.34361,714.866334 102.707862,715.129836 101.959912,715.129836 C101.211961,715.129836 100.576213,714.866334 100.052648,714.339321 L96.2381208,710.499676 C95.7145556,709.972664 95.452777,709.332729 95.452777,708.579854 Z" id="Assets/Pictos/closed" fill="#000000" sketch:type="MSShapeGroup"></path>
            <path d="M514.216168,176.551724 C512.992212,176.551724 512,177.538941 512,178.775862 L512,178.775862 C512,180.00422 512.998852,181 514.216168,181 L588.783832,181 C590.007788,181 591,180.012783 591,178.775862 L591,178.775862 C591,177.547505 590.001148,176.551724 588.783832,176.551724 L514.216168,176.551724 Z M580.566038,173.28622 C580.566038,156.788134 570.848197,143.413793 550.754717,143.413793 C530.661237,143.413793 520.943396,156.788134 520.943396,173.28622 C520.943396,173.28622 580.566038,173.28622 580.566038,173.28622 Z M555.226415,140.448276 C555.226415,137.991561 553.224368,136 550.754717,136 C548.285066,136 546.283019,137.991561 546.283019,140.448276 C546.283019,140.448276 555.226415,140.448276 555.226415,140.448276 Z" id="Assets/Pictos/reception" fill="#000000" sketch:type="MSShapeGroup"></path>
            <path d="M521.216667,288.214 L581.965362,288.214 L581.965362,297.655355 C581.965362,300.016697 584.223446,302.377237 586.482297,302.377237 C588.741917,302.377237 591.000768,300.0175 591.000768,297.655355 L591.000768,283.491316 C591.000768,281.132382 588.742685,278.770237 586.482297,278.770237 L521.216667,278.770237 L521.216667,245.609919 C521.216667,243.063931 519.148267,241 516.608333,241 C514.063221,241 512,243.064533 512,245.609919 L512,297.390081 C512,299.936069 514.0684,302 516.608333,302 C519.153446,302 521.216667,299.935467 521.216667,297.390081 L521.216667,288.214 Z M527.361879,256.542961 C527.361879,256.542961 527.355735,264.607 527.361879,266.967539 C527.363415,267.608842 527.361879,269.874671 527.361879,271.688618 C527.361879,274.049961 529.117654,274.049961 529.620731,274.049961 L591,274.049961 L591,270.707 C591,265.985118 591,256.542961 568.410718,256.542961 L527.361879,256.542961 Z" id="Assets/Pictos/room" fill="#000000" sketch:type="MSShapeGroup"></path>
        </g>
    </g>
</svg>