<?xml version="1.0" encoding="UTF-8" standalone="no"?>
<svg width="1024px" height="1303px" viewBox="0 0 1024 1303" version="1.1" xmlns="http://www.w3.org/2000/svg" xmlns:xlink="http://www.w3.org/1999/xlink" xmlns:sketch="http://www.bohemiancoding.com/sketch/ns">
    <!-- Generator: Sketch 3.0.4 (8054) - http://www.bohemiancoding.com/sketch -->
    <title>Layout/01-Grid</title>
    <desc>Created with Sketch.</desc>
    <defs>
        <rect id="path-1" x="0" y="0" width="839.966056" height="45" rx="4"></rect>
        <rect id="path-2" x="0" y="0" width="839.966056" height="5.11363636" rx="4"></rect>
    </defs>
    <g id="Page-Layout" stroke="none" stroke-width="1" fill="none" fill-rule="evenodd" sketch:type="MSPage">
        <g id="Layout/01-Grid" sketch:type="MSArtboardGroup">
            <g id="header*" sketch:type="MSLayerGroup" transform="translate(0.000000, 79.000000)">
                <rect id="Fond-Header" fill="#015173" sketch:type="MSShapeGroup" x="0" y="0" width="1024" height="125"></rect>
                <g id="Group" transform="translate(20.000000, 10.000000)" fill="#FFFFFF" sketch:type="MSShapeGroup">
                    <path d="M102.901358,51.8073952 C101.135429,51.400493 100.724733,51.3899753 99.552906,51.3899753 C97.9448369,51.3899753 96.4291253,51.6535744 95.0503125,52.1715694 C94.4287004,52.4069022 93.8418043,52.6928513 93.2863491,53.0228431 C91.8341742,52.0262942 90.003399,51.4235004 88.2951121,51.4235004 C87.5935879,51.4235004 86.9025439,51.506327 86.2383557,51.6706656 C86.0254749,51.6338537 85.809319,51.6161052 85.5859578,51.6161052 L81.2798697,51.6161052 C80.2645919,51.6161052 79.2886151,52.0216927 78.5720254,52.7441249 C78.5386195,52.7756779 78.5117638,52.8118324 78.4783579,52.8466721 C76.9547861,51.8902219 75.0866748,51.3590797 72.9572114,51.3590797 C72.0408413,51.3590797 71.1048206,51.4977814 70.1701099,51.7672966 C69.8295006,51.6680362 69.4712058,51.6161052 69.0985005,51.6161052 L65.8797422,51.6161052 L65.8797422,50.6550534 C65.8797422,49.8235004 65.8017951,49.041249 65.7323632,48.3529992 C65.5535433,46.5630238 64.1609751,45.1365653 62.3812913,44.9209532 L58.14136,44.4108463 C57.9874307,44.3930978 57.8348115,44.3819228 57.6828474,44.3819228 C57.0533751,44.3819228 56.4376582,44.5436319 55.8861331,44.8354971 C54.9782782,44.3069844 53.9289394,44 52.8055836,44 C49.4125905,44 46.6516898,46.7687757 46.6516898,50.1758422 C46.6516898,50.9245686 46.7892435,51.641742 47.0348753,52.3050123 C45.6318268,51.7015612 43.9903518,51.3899753 42.1235506,51.3899753 C39.9135199,51.3899753 37.7192097,51.8967954 35.6585232,52.8532457 C35.4829784,52.7599014 35.2989183,52.6783895 35.105033,52.6133114 L31.2797281,51.3308135 C30.8782021,51.2 30.4707809,51.1329499 30.0692549,51.1329499 C28.5672987,51.1329499 27.1498398,52.0282662 26.5413281,53.4915366 L26.3454777,53.9589154 L26.1876184,53.5717338 C25.590897,52.0841413 24.1616478,51.1664749 22.6393861,51.1664749 C22.2594756,51.1664749 21.87236,51.2236647 21.4917946,51.3446179 L17.5381061,52.5916187 C17.423478,52.6284306 17.3114699,52.6724733 17.2027369,52.716516 C15.6300388,51.8382909 13.6997008,51.3899753 11.445784,51.3899753 C8.36195939,51.3899753 5.30433551,52.3589154 2.60369643,54.1962202 C0.901304725,55.3544782 0.41593641,57.6552177 1.50261122,59.4070666 L1.9539186,60.1327855 C1.89431197,60.2024651 1.83601537,60.2714873 1.77837379,60.3437962 C0.615061873,61.7906327 0,63.5970419 0,65.5677896 C0,68.2241578 1.15610671,70.5880033 3.25805938,72.2254725 C4.97879158,73.5638455 7.20716271,74.3020542 9.53378653,74.3020542 C11.0383628,74.3020542 12.4433764,74.0542317 13.6997008,73.5717338 C14.324588,73.7794577 14.9874661,73.8872638 15.6555845,73.8872638 L17.6003328,73.8872638 C18.6188858,73.8872638 19.5928975,73.4816763 20.3121072,72.7585867 C20.5924549,72.4765818 20.8230212,72.1505341 21.0018411,71.8034511 C21.652929,73.0721446 22.9531397,73.8872638 24.3941792,73.8872638 L25.8922053,73.8872638 C28.4723211,73.8872638 30.7792944,72.1222679 32.0271036,70.1672966 C32.5308124,70.9357436 33.1674899,71.6299096 33.9332059,72.2254725 C35.6559031,73.5638455 37.8836192,74.3020542 40.2115531,74.3020542 C41.7141643,74.3020542 43.1185228,74.0542317 44.3755023,73.5717338 C45.0003895,73.7794577 45.6645777,73.8872638 46.331386,73.8872638 L48.2767893,73.8872638 C48.6815905,73.8872638 49.0772213,73.8215283 49.4538566,73.6986031 C49.8272169,73.8195563 50.2221927,73.8872638 50.6368191,73.8872638 L52.6143183,73.8872638 C53.8241365,73.8872638 54.9815533,73.4967954 55.9673553,72.7960559 C55.993556,72.8322104 56.0151716,72.8683648 56.0400623,72.903862 C56.7763025,73.9056697 57.9278241,74.4624486 59.1186468,74.4624486 C59.5352382,74.4624486 59.9551047,74.3953985 60.3684211,74.2527527 L61.0005134,74.0338537 L61.0005134,76.1597371 C61.0005134,78.2823336 62.7133854,80 64.8258183,80 L66.7391258,80 C68.5784163,80 70.2998035,79.1618735 71.4624604,77.6959737 C72.1358189,76.8460148 72.5956415,75.8297453 72.8019721,74.7510271 C74.9563262,74.7313065 76.9750916,74.0470008 78.6408023,72.7947412 C79.3325013,73.4698439 80.2717971,73.8872638 81.3132756,73.8872638 L83.257369,73.8872638 C86.3883548,73.8872638 88.8944536,71.526705 89.3359357,68.3556286 C89.8540549,69.3837305 90.5261034,70.3171734 91.3376706,71.1224322 C93.427833,73.1957272 96.3439729,74.3355793 99.552906,74.3355793 C102.763149,74.3355793 105.675359,73.1944125 107.759626,71.1158587 C109.849788,69.0294166 111,66.1061627 111,62.8792112 C111,61.2654067 110.736683,59.7449466 110.219219,58.3612161 C109.993237,57.7590797 109.71813,57.1878389 109.402411,56.6501233 C109.402411,56.6501233 107.415742,52.8959737 102.901358,51.8073952 Z M8,66.1763482 C8,67.4745288 8.61247637,68 9.71770636,68 C12.0793951,68 13,66.5273831 13,64.0002198 C11.6515438,64.0002198 8,63.9324635 8,66.1763482 Z M16.034363,70.5902559 C15.2880872,70.5902559 14.6071106,70.276313 14.1853315,69.6769085 C12.9533102,70.6530445 11.3634763,71 9.80695826,71 C6.88582171,71 4,69.2665171 4,66.178872 C4,61.4516032 9.96887345,60.8852112 13.6336205,60.9169292 C13.668269,59.5614724 12.5635143,59.5614724 11.4607587,59.5614724 C10.0008567,59.5614724 7.99057636,60.1582877 6.65927371,60.7894101 L4.94084051,58.1102145 C6.95112084,56.7884176 9.2872305,56 11.7519395,56 C15.1248394,56 17.9806768,57.2298796 17.9806768,60.9473525 L18,70.5902559 L16.034363,70.5902559 L16.034363,70.5902559 Z M28.2510875,67.5479763 C27.781429,68.6935188 26.3653473,70 25.1075412,70 L23.6287954,70 L18,56.2731158 L21.8981007,55.0307484 L25.4841724,64.0439637 L29.2272277,55 L33,56.2731158 L28.2510875,67.5479763 M39,66.1763482 C39,67.4745288 39.6148419,68 40.7166436,68 C43.0789971,68 44,66.5273831 44,64.0002198 C42.6512536,64.0002198 39,63.9324635 39,66.1763482 L39,66.1763482 Z M47.0508103,70.5902559 C46.3040991,70.5902559 45.6227836,70.276313 45.1990467,69.6769085 C43.965205,70.6530445 42.3736892,71 40.8128694,71 C37.8907531,71 35,69.2665171 35,66.178872 C35,61.4516032 40.9763584,60.8852112 44.6478551,60.9169292 C44.6792183,59.5614724 43.5768351,59.5614724 42.470448,59.5614724 C41.0083889,59.5614724 38.9958055,60.1582877 37.6625357,60.7894101 L35.9408961,58.1102145 C37.9548141,56.7884176 40.2943756,56 42.764061,56 C46.1412774,56 49,57.2298796 49,60.9473525 L48.9926597,70.5902559 L47.0508103,70.5902559 L47.0508103,70.5902559 Z M55,67.3039216 C55,68.5427807 54.1414218,70 52.8383316,70 L51,70 L51,55.5895085 L55,55 L55,67.3039216 L55,67.3039216 Z M53.5010553,53 C52.129872,53 51,51.8694245 51,50.5010553 C51,49.1305755 52.129872,48 53.5010553,48 C54.870128,48 56,49.1305755 56,50.5010553 C56,51.8694245 54.870128,53 53.5010553,53 L53.5010553,53 Z M59.3981375,71 C58.4362801,69.6796772 58.0950376,68.3277183 58.0950376,66.6619809 L58.0950376,51.3869112 C58.0950376,50.6005282 58.0318918,49.7838004 58,49 L62.1319046,49.5010125 C62.192499,50.129215 62.2530935,50.7574175 62.2530935,51.3869112 L62.2530935,66.4747469 C62.2530935,67.5096992 62.5662712,68.7990315 63,69.7429494 L59.3981375,71 M74.9984648,62.7735457 C74.9984648,61.0214681 75.1365641,59 72.7931261,59 C71.41355,59 70.0708003,59.5367036 69,60.3808864 L69,66.2797784 C69.8625892,67.2576177 71.0707805,68 72.4156548,68 C74.3455033,68 74.9984648,66.248615 74.9984648,64.6281163 L74.9984648,62.7735457 L74.9984648,62.7735457 Z M72.8227448,70.7432496 C71.5572338,70.7432496 70.2891202,70.4218647 69.244179,69.7165302 L69.244179,73.2754728 C69.244179,74.6216013 68.3586467,76 66.9005438,76 L65,76 L65,55.2561859 L69.244179,55.2561859 L69.244179,56.2190234 C70.3854162,55.5123718 71.7153414,55 73.0771483,55 C76.8470047,55 79,57.3399191 79,61.0931414 L79,64.2029354 C79,67.7618779 76.435795,70.7432496 72.8227448,70.7432496 L72.8227448,70.7432496 Z M89.2325581,60.3186769 C88.7343103,59.995243 87.9614527,59.5731116 87.3714559,59.5731116 C85.6339599,59.5731116 85.2000637,60.8388387 85.2000637,62.3979905 L85.2000637,68.2738185 C85.2000637,69.6682523 84.3622173,71 82.9350112,71 L81,71 L81.0114686,56.1953941 L85.2000637,56.1953941 L85.2000637,56.879607 C85.9748327,56.2927577 86.8744823,56 87.8352979,56 C88.8891367,56 90.1920994,56.5228293 91,57.2677277 L89.2325581,60.3186769 M99.5171861,59 C96.6818318,59 96,60.6608803 96,62.8648481 C96,64.9181649 96.7849484,67 99.5171861,67 C102.248021,67 103,64.9181649 103,62.8648481 C103,60.6608803 102.351137,59 99.5171861,59 L99.5171861,59 Z M99.515757,71 C95.0690734,71 92,67.9802343 92,63.5155025 C92,58.9235208 94.9436608,56 99.515757,56 C104.08721,56 107,58.9235208 107,63.5155025 C107,67.9802343 103.961154,71 99.515757,71 L99.515757,71 Z" id="Fill-3"></path>
                    <path d="M118.489981,68.1431336 C119.312494,69.260977 119.132146,70.671406 118.006908,71.4838592 C116.87845,72.2943917 115.290105,72.1548213 114.474678,71.0331365 C113.657962,69.9127322 113.923975,68.2398085 115.051145,67.4254346 C116.180248,66.6149021 117.676486,67.022089 118.489981,68.1431336" id="Fill-12"></path>
                    <path d="M123.885406,27.120851 C119.872862,27.8314467 117.409883,31.5118474 118.122265,35.5205784 C118.832623,39.5313319 122.312904,41.5721036 126.324774,40.8601595 C130.336643,40.1488895 133.614543,36.9114314 132.902162,32.9020262 C132.191129,28.8919469 127.897275,26.4109294 123.885406,27.120851 L123.885406,27.120851 Z M135.054376,18.3069072 C136.315306,17.3313051 136.250147,15.7305126 135.244124,14.5127446 C134.238817,13.292895 132.289781,12.4512126 131.032431,13.425427 C129.773649,14.3989475 129.676269,16.8233813 130.683724,18.0439249 C131.689031,19.2616929 133.79631,19.27904 135.054376,18.3069072 L135.054376,18.3069072 Z M143.232286,34.5364873 C141.759058,35.685479 141.604267,38.4170692 142.781492,39.8577841 C143.959395,41.2951839 146.382414,41.3409314 147.855641,40.1919398 C149.332264,39.040296 149.326154,37.1082927 148.146214,35.6689038 C146.968989,34.231504 144.706193,33.3881587 143.232286,34.5364873 L143.232286,34.5364873 Z M148.785917,34.5043355 C147.039541,32.1299674 143.997405,31.0843992 141.810496,32.9762498 C139.621696,34.8694654 139.426323,38.7193677 141.176481,41.0889584 C142.924748,43.4565016 146.050705,43.5854914 148.238874,41.6909108 C150.427674,39.7990602 150.536705,36.8718787 148.785917,34.5043355 L148.785917,34.5043355 Z M136.428608,18.9226247 C138.401856,17.3735625 138.471359,15.0310481 136.891749,13.0917737 C135.315931,11.1531196 132.593316,10.233112 130.616909,11.7790723 C128.644293,13.3287547 128.493914,16.5038048 130.070996,18.4436996 C131.649974,20.3823536 134.454096,20.4723072 136.428608,18.9226247 L136.428608,18.9226247 Z M129,19.5387486 C128.275105,18.5440053 126.691199,18.1401777 126.479296,17 C126.091031,18.019453 125.659179,18.5087057 125,19.3919021 C125.439899,19.4102579 125.829505,19.9461062 126.262028,19.9955256 C126.80922,20.0590649 128.453479,19.4229658 129,19.5387486 L129,19.5387486 Z M122.039391,6.92641998 C119.100459,3.39269739 114.576199,3.07377861 110.895354,5.89089453 C107.215845,8.71121245 105.571753,13.7633215 108.512689,17.2919208 C111.453625,20.818599 117.248016,20.7590419 120.928193,17.9348816 C124.609038,15.1190465 124.985002,10.454379 122.039391,6.92641998 L122.039391,6.92641998 Z M126.105612,49.9598975 C124.872049,48.2343115 122.781881,47.2816728 121.238391,48.656792 C119.693671,50.0339688 119.624799,52.9117744 120.860205,54.6332453 C122.093768,56.3588314 124.257113,56.4054688 125.799988,55.0269204 C127.347783,53.652487 127.342248,51.6820543 126.105612,49.9598975 L126.105612,49.9598975 Z M107.560886,34.6764423 C105.4691,32.0909576 101.805079,31.0236663 99.1835557,33.0852202 C96.5654278,35.1514639 96.3005588,39.3201308 98.3950611,41.9036055 C100.487526,44.4884201 104.250024,44.6472073 106.870189,42.5776136 C109.491033,40.5167298 109.659463,37.2612569 107.560886,34.6764423 L107.560886,34.6764423 Z M150.057282,43.0364395 C146.563826,45.8142763 141.28322,45.6519139 138.491085,42.1729074 C138.002724,41.5633938 137.482156,40.1610544 137.189009,39.4742877 C136.297734,41.6072579 134.714341,43.0901238 132.812166,44.6044148 C130.907362,46.116087 129.661154,48.7348348 127.369868,49.1832954 C127.592687,49.2742969 127.674847,49.3050672 127.800388,49.4667748 C129.714394,51.9323259 128.942088,54.5065551 126.49634,56.4503207 C124.051907,58.3973597 121.213762,58.6965516 119.263606,56.265699 C117.465938,54.0233961 117.057766,50.2641836 118.906044,48.159365 C116.480015,47.1858455 114.134832,45.4856234 112.445616,43.376222 C112.044674,42.8766959 111.569459,41.5699407 111.240818,41.029824 C110.644005,42.3837166 110.509263,44.5644789 109.276201,45.5445452 C107.297124,47.1223408 104.570717,46.6385272 102.238679,46.3792711 C99.902698,46.1147776 97.5824915,45.6362014 95.9984411,43.6642843 C94.4170199,41.6930218 93.7958881,39.2621692 94.0581437,36.9354117 C94.3210567,34.6073448 95.7236971,32.6963136 97.7040887,31.1191727 C99.683823,29.5420318 101.967879,27.688613 104.302546,27.9465597 C106.338806,28.1704626 107.841354,29.5636365 109.359019,31.0753087 C109.849351,28.1704626 111.750869,25.7474662 113.953422,23.526768 C111.169831,23.1116965 107.469332,22.5283704 105.585561,20.1780442 C103.574277,17.6705931 102.619246,13.7385432 102.952488,10.7878691 C103.283101,7.83326682 106.12519,5.50847341 108.641266,3.50775005 C111.158,1.5070267 114.009291,-0.292707766 116.96969,0.0398732115 C119.939292,0.368526067 122.831991,2.34240726 124.839989,4.85051301 C126.487138,6.90426602 127.451371,9.32595309 127.47109,11.7568058 C127.896351,11.0700392 127.663016,10.0696775 128.337388,9.53283417 C131.481169,7.02734717 136.764404,7.62245761 139.272593,10.75448 C141.789327,13.8858478 140.529975,18.3089129 137.387508,20.8111265 C136.244494,21.7204867 135.485333,22.8936857 134.128045,22.9925434 C134.805703,23.5405164 135.502422,23.8789896 136.063741,24.5814687 C137.728637,26.655517 139.254847,29.0248291 139.57823,31.526388 C139.937106,31.0884024 140.253259,31.7705862 140.721244,31.398724 C144.213385,28.6176138 148.37201,28.6091029 151.16283,32.0887641 C153.954308,35.5677706 153.548108,40.2527105 150.057282,43.0364395 L150.057282,43.0364395 Z M101.233566,35.5359589 C99.7582388,36.6855368 99.6041204,39.4169446 100.782753,40.8555745 C101.959349,42.2955302 104.38247,42.3412747 105.85644,41.1916967 C107.331767,40.0407928 107.326336,38.1069296 106.146346,36.6696257 C104.96975,35.2303329 102.703462,34.3890328 101.233566,35.5359589 L101.233566,35.5359589 Z M111.108383,7.28939183 C108.66657,9.28834171 108.299246,13.6965006 110.250018,16.202549 C112.20079,18.7079431 115.77391,18.4180791 118.212534,16.4184749 C120.657536,14.4155991 122.022885,10.6532548 120.070837,8.14916929 C118.121979,5.6450838 113.547007,5.29044196 111.108383,7.28939183 L111.108383,7.28939183 Z M124.467465,51.0935323 C125.133935,51.891709 125.241311,52.8969516 124.405755,53.535257 C123.569582,54.1729725 122.136671,54.1835912 121.468966,53.3848246 C120.801879,52.5866478 120.829032,50.8894161 121.662737,50.2517006 C122.497058,49.614575 123.800995,50.2947656 124.467465,51.0935323 L124.467465,51.0935323 Z" id="Fill-13"></path>
                </g>
                <text id="Hôtels-Paris-Rive-Ga" sketch:type="MSTextLayer" font-family="Arial" font-size="23" font-weight="bold" fill="#FFFFFF">
                    <tspan x="203" y="45">Hôtels Paris Rive Gauche (311)</tspan>
                </text>
                <text id="Bienvenue-Alain-Biso" sketch:type="MSTextLayer" font-family="Arial" font-size="12" font-weight="normal" fill="#D5F2FF">
                    <tspan x="203" y="66">Bienvenue Alain Bisotti | </tspan>
                    <tspan x="334.865234" y="66" text-decoration="underline">Paramètres du compte</tspan>
                    <tspan x="456.253906" y="66"> | </tspan>
                    <tspan x="465.376953" y="66" text-decoration="underline">Aide</tspan>
                    <tspan x="489.394531" y="66"> | </tspan>
                    <tspan x="499.179688" y="66" text-decoration="underline">Service client</tspan>
                    <tspan x="570.541016" y="66"> | </tspan>
                    <tspan x="580.326172" y="66" text-decoration="underline">Mon profil</tspan>
                    <tspan x="633.013672" y="66"> | </tspan>
                    <tspan x="642.798828" y="66" text-decoration="underline">Déconnexion</tspan>
                </text>
                <g id="flex-button" transform="translate(20.000000, 101.000000)">
                    <rect id="BG" fill="#0582B3" sketch:type="MSShapeGroup" x="0" y="0" width="73" height="24" rx="6"></rect>
                    <text id="5:15:5:15" sketch:type="MSTextLayer" font-family="Arial" font-size="12" font-weight="bold" sketch:alignment="middle" fill="#FFFFFF">
                        <tspan x="15.1572266" y="16">Accueil</tspan>
                    </text>
                </g>
                <g id="flex-button-2" transform="translate(94.000000, 101.000000)">
                    <rect id="BG" fill="#0582B3" sketch:type="MSShapeGroup" x="0" y="0" width="133" height="24" rx="6"></rect>
                    <text id="5:15:5:15" sketch:type="MSTextLayer" font-family="Arial" font-size="12" font-weight="bold" sketch:alignment="middle" fill="#FFFFFF">
                        <tspan x="15.1601562" y="16">Manage my group</tspan>
                    </text>
                </g>
                <g id="flex-button-3" transform="translate(228.000000, 101.000000)">
                    <rect id="BG" fill="#0582B3" sketch:type="MSShapeGroup" x="0" y="0" width="81" height="24" rx="6"></rect>
                    <text id="5:15:5:15" sketch:type="MSTextLayer" font-family="Arial" font-size="12" font-weight="bold" sketch:alignment="middle" fill="#FFFFFF">
                        <tspan x="15.1669922" y="16">Planning</tspan>
                    </text>
                </g>
                <g id="flex-button-4" transform="translate(310.000000, 101.000000)">
                    <rect id="BG" fill="#0582B3" sketch:type="MSShapeGroup" x="0" y="0" width="85" height="24" rx="6"></rect>
                    <text id="5:15:5:15" sketch:type="MSTextLayer" font-family="Arial" font-size="12" font-weight="bold" sketch:alignment="middle" fill="#FFFFFF">
                        <tspan x="15.1660156" y="16">Bookings</tspan>
                    </text>
                </g>
                <g id="flex-button-5" transform="translate(396.000000, 101.000000)">
                    <rect id="BG" fill="#FF8328" sketch:type="MSShapeGroup" x="0" y="0" width="67" height="24" rx="6"></rect>
                    <text id="5:15:5:15" sketch:type="MSTextLayer" font-family="Arial" font-size="12" font-weight="bold" sketch:alignment="middle" fill="#FFFFFF">
                        <tspan x="15.1630859" y="16">Hotels</tspan>
                    </text>
                </g>
                <g id="flex-button-6" transform="translate(464.000000, 101.000000)">
                    <rect id="BG" fill="#0582B3" sketch:type="MSShapeGroup" x="0" y="0" width="131" height="24" rx="6"></rect>
                    <text id="5:15:5:15" sketch:type="MSTextLayer" font-family="Arial" font-size="12" font-weight="bold" sketch:alignment="middle" fill="#FFFFFF">
                        <tspan x="15.4902344" y="16">Channel Manager</tspan>
                    </text>
                </g>
                <g id="flex-button-7" transform="translate(596.000000, 101.000000)">
                    <rect id="BG" fill="#0582B3" sketch:type="MSShapeGroup" x="0" y="0" width="122" height="24" rx="6"></rect>
                    <text id="5:15:5:15" sketch:type="MSTextLayer" font-family="Arial" font-size="12" font-weight="bold" sketch:alignment="middle" fill="#FFFFFF">
                        <tspan x="15.3349609" y="16">Booking Engine</tspan>
                    </text>
                </g>
                <g id="flex-button-8" transform="translate(719.000000, 101.000000)">
                    <rect id="BG" fill="#0582B3" sketch:type="MSShapeGroup" x="0.458984375" y="0" width="96.2617188" height="24" rx="6"></rect>
                    <text id="5:15:5:15" sketch:type="MSTextLayer" font-family="Arial" font-size="12" font-weight="bold" sketch:alignment="middle" fill="#FFFFFF">
                        <tspan x="15.4853516" y="16">Direct Click</tspan>
                    </text>
                </g>
                <rect id="Filet" fill="#FF8328" sketch:type="MSShapeGroup" x="0" y="125" width="1024" height="5"></rect>
            </g>
            <text id="H1-Section-title" sketch:type="MSTextLayer" font-family="Lato" font-size="26" font-weight="260" fill="#015173">
                <tspan x="98" y="255">H1 - Section title</tspan>
            </text>
            <g id="sidebar-widget" sketch:type="MSLayerGroup" transform="translate(698.000000, 361.000000)">
                <rect id="Rectangle-22" stroke="#E2E2E2" fill="#ECECEC" sketch:type="MSShapeGroup" x="0" y="0" width="240" height="421" rx="4"></rect>
                <text id="240-PX" sketch:type="MSTextLayer" font-family="Lato" font-size="46" font-weight="260" sketch:alignment="middle" fill="#C7C7C7">
                    <tspan x="50.102" y="129">240 PX</tspan>
                </text>
                <text id="Sidebar-widget" sketch:type="MSTextLayer" font-family="Lato" font-size="15.1578947" font-weight="260" fill="#015173">
                    <tspan x="20" y="31.9597156">Sidebar widget</tspan>
                </text>
            </g>
            <g id="m-size-widget" sketch:type="MSLayerGroup" transform="translate(98.000000, 581.000000)">
                <path d="M3.9937353,1 C1.7880562,1 0,2.79010294 0,4.99507582 L0,197.004924 C0,199.211344 1.79484998,201 3.9937353,201 L576.006265,201 C578.211944,201 580,199.209897 580,197.004924 L580,4.99507582 C580,2.78865637 578.20515,1 576.006265,1 L3.9937353,1 Z" id="Rectangle-14" stroke="#E2E2E2" fill="#FFFFFF" sketch:type="MSShapeGroup"></path>
                <path d="M0.5,41.5 L579.802046,41.5" id="Line-4" stroke="#E2E2E2" stroke-linecap="square" sketch:type="MSShapeGroup"></path>
                <text id="580-PX" sketch:type="MSTextLayer" font-family="Lato" font-size="46" font-weight="260" sketch:alignment="middle" fill="#C7C7C7">
                    <tspan x="218.102" y="134">580 PX</tspan>
                </text>
                <text id="M-size-widget" sketch:type="MSTextLayer" font-family="Lato" font-size="16" font-weight="260" fill="#015173">
                    <tspan x="20" y="27">M-size widget</tspan>
                </text>
                <g id="edit-+-" transform="translate(501.000000, 0.000000)">
                    <text id="edit" sketch:type="MSTextLayer" font-family="Arial" font-size="12" font-weight="normal" fill="#FF8328">
                        <tspan x="39" y="25">edit</tspan>
                    </text>
                    <text id="" sketch:type="MSTextLayer" font-family="FontAwesome" font-size="12" font-weight="normal" fill="#FF8328">
                        <tspan x="23" y="23"></tspan>
                    </text>
                    <path d="M1.5,0.5 L1.5,40.5" id="Line" stroke="#E2E2E2" stroke-linecap="square" sketch:type="MSShapeGroup"></path>
                </g>
            </g>
            <g id="l-size-widget" sketch:type="MSLayerGroup" transform="translate(98.000000, 803.000000)">
                <path d="M4.00329568,-3.92385203e-15 C1.79233653,-3.92385203e-15 0,1.79010294 0,3.99507582 L0,196.004924 C0,198.211344 1.78492558,200 4.00329568,200 L835.996704,200 C838.207663,200 840,198.209897 840,196.004924 L840,3.99507582 C840,1.78865637 838.215074,-3.92385203e-15 835.996704,-3.92385203e-15 L4.00329568,-3.92385203e-15 Z" id="Rectangle-14" stroke="#E2E2E2" fill="#FFFFFF" sketch:type="MSShapeGroup"></path>
                <text id="840-PX" sketch:type="MSTextLayer" font-family="Lato" font-size="46" font-weight="260" sketch:alignment="middle" fill="#C7C7C7">
                    <tspan x="348.102" y="135">840 PX</tspan>
                </text>
                <path d="M0.5,40.5 L839.765625,40.5" id="Line-4" stroke="#E2E2E2" stroke-linecap="square" sketch:type="MSShapeGroup"></path>
                <text id="L-size-widget" sketch:type="MSTextLayer" font-family="Lato" font-size="16" font-weight="260" fill="#015173">
                    <tspan x="20" y="26">L-size widget</tspan>
                </text>
                <g id="edit-+-" transform="translate(761.000000, 0.000000)">
                    <text id="edit" sketch:type="MSTextLayer" font-family="Arial" font-size="12" font-weight="normal" fill="#FF8328">
                        <tspan x="39" y="25">edit</tspan>
                    </text>
                    <text id="" sketch:type="MSTextLayer" font-family="FontAwesome" font-size="12" font-weight="normal" fill="#FF8328">
                        <tspan x="23" y="23"></tspan>
                    </text>
                    <path d="M1.5,0.5 L1.5,40.5" id="Line" stroke="#E2E2E2" stroke-linecap="square" sketch:type="MSShapeGroup"></path>
                </g>
            </g>
            <g id="s-size-widget" sketch:type="MSLayerGroup" transform="translate(98.000000, 361.000000)">
                <path d="M3.99848186,-3.92385203e-15 C1.7901813,-3.92385203e-15 0,1.79010294 0,3.99507582 L0,196.004924 C0,198.211344 1.7880249,200 3.99848186,200 L276.001518,200 C278.209819,200 280,198.209897 280,196.004924 L280,3.99507582 C280,1.78865637 278.211975,-3.92385203e-15 276.001518,-3.92385203e-15 L3.99848186,-3.92385203e-15 Z" id="Rectangle-14" stroke="#E2E2E2" fill="#FFFFFF" sketch:type="MSShapeGroup"></path>
                <text id="280-PX" sketch:type="MSTextLayer" font-family="Lato" font-size="46" font-weight="260" sketch:alignment="middle" fill="#C7C7C7">
                    <tspan x="68.102" y="132">280 PX</tspan>
                </text>
                <path d="M0.5,40.5 L280.163057,40.5" id="Line-4" stroke="#E2E2E2" stroke-linecap="square" sketch:type="MSShapeGroup"></path>
                <text id="S-size-widget" sketch:type="MSTextLayer" font-family="Lato" font-size="16" font-weight="260" fill="#015173">
                    <tspan x="20" y="26">S-size widget</tspan>
                </text>
                <g id="edit-+--2" transform="translate(201.000000, 0.000000)">
                    <text id="edit" sketch:type="MSTextLayer" font-family="Arial" font-size="12" font-weight="normal" fill="#FF8328">
                        <tspan x="39" y="25">edit</tspan>
                    </text>
                    <text id="" sketch:type="MSTextLayer" font-family="FontAwesome" font-size="12" font-weight="normal" fill="#FF8328">
                        <tspan x="23" y="23"></tspan>
                    </text>
                    <path d="M1.5,0.5 L1.5,40.5" id="Line" stroke="#E2E2E2" stroke-linecap="square" sketch:type="MSShapeGroup"></path>
                </g>
            </g>
            <g id="s-size-widget" sketch:type="MSLayerGroup" transform="translate(398.000000, 361.000000)">
                <path d="M3.99848186,-3.92385203e-15 C1.7901813,-3.92385203e-15 0,1.79010294 0,3.99507582 L0,196.004924 C0,198.211344 1.7880249,200 3.99848186,200 L276.001518,200 C278.209819,200 280,198.209897 280,196.004924 L280,3.99507582 C280,1.78865637 278.211975,-3.92385203e-15 276.001518,-3.92385203e-15 L3.99848186,-3.92385203e-15 Z" id="Rectangle-14" stroke="#E2E2E2" fill="#FFFFFF" sketch:type="MSShapeGroup"></path>
                <text id="280-PX-2" sketch:type="MSTextLayer" font-family="Lato" font-size="46" font-weight="260" sketch:alignment="middle" fill="#C7C7C7">
                    <tspan x="68.102" y="132">280 PX</tspan>
                </text>
                <path d="M0.5,40.5 L280.163057,40.5" id="Line-4" stroke="#E2E2E2" stroke-linecap="square" sketch:type="MSShapeGroup"></path>
                <text id="S-size-widget" sketch:type="MSTextLayer" font-family="Lato" font-size="16" font-weight="260" fill="#015173">
                    <tspan x="20" y="26">S-size widget</tspan>
                </text>
                <g id="edit-+--2" transform="translate(201.000000, 0.000000)">
                    <text id="edit" sketch:type="MSTextLayer" font-family="Arial" font-size="12" font-weight="normal" fill="#FF8328">
                        <tspan x="39" y="25">edit</tspan>
                    </text>
                    <text id="" sketch:type="MSTextLayer" font-family="FontAwesome" font-size="12" font-weight="normal" fill="#FF8328">
                        <tspan x="23" y="23"></tspan>
                    </text>
                    <path d="M1.5,0.5 L1.5,40.5" id="Line" stroke="#E2E2E2" stroke-linecap="square" sketch:type="MSShapeGroup"></path>
                </g>
            </g>
            <g id="sub-navigation" sketch:type="MSLayerGroup" transform="translate(98.000000, 281.000000)">
                <rect id="sub-nav-background" stroke="#E2E2E2" fill="#ECECEC" sketch:type="MSShapeGroup" x="0" y="0" width="840" height="50" rx="4"></rect>
                <g id="section-1">
                    <path d="M69.6862915,50 L3.99985792,50 C1.79431192,50 0,48.2059201 0,45.9928103 L0,4.00718972 C0,1.79426827 1.79079739,0 3.99985792,0 L161,0 L161,50 L90.3137085,50 L80,60.3137085 L69.6862915,50 Z" id="Rectangle-15" stroke="#E2E2E2" fill="#0272A2" sketch:type="MSShapeGroup"></path>
                    <text id="Sub-section-1-title" sketch:type="MSTextLayer" font-family="Lato" font-size="16" font-weight="260" fill="#FFFFFF">
                        <tspan x="20" y="32">Sub section 1 title</tspan>
                    </text>
                </g>
                <g id="section-2" transform="translate(181.000000, 0.000000)">
                    <path d="M142.5,0.5 L142.5,49.26474" id="Line" stroke="#E2E2E2" stroke-linecap="square" sketch:type="MSShapeGroup"></path>
                    <text id="Sub-section-2-title" sketch:type="MSTextLayer" font-family="Lato" font-size="16" font-weight="260" fill="#015173">
                        <tspan x="0" y="32">Sub section 2 title</tspan>
                    </text>
                </g>
                <g id="section-3" transform="translate(345.000000, 0.000000)">
                    <path d="M142.5,0.5 L142.5,49.26474" id="Line-2" stroke="#E2E2E2" stroke-linecap="square" sketch:type="MSShapeGroup"></path>
                    <text id="Sub-section-3-title" sketch:type="MSTextLayer" font-family="Lato" font-size="16" font-weight="260" fill="#015173">
                        <tspan x="0" y="32">Sub section 3 title</tspan>
                    </text>
                </g>
            </g>
            <g id="edit-Mode-Widget" sketch:type="MSLayerGroup" transform="translate(98.000000, 1023.000000)">
                <path d="M4.00329568,-4.63874054e-15 C1.79233653,-4.63874054e-15 0,1.79010294 0,3.99507582 L0,196.004924 C0,198.211344 1.78492558,200 4.00329568,200 L835.996704,200 C838.207663,200 840,198.209897 840,196.004924 L840,3.99507582 C840,1.78865637 838.215074,-4.63874054e-15 835.996704,-4.63874054e-15 L4.00329568,-4.63874054e-15 Z" id="widget-background" stroke="#E2E2E2" fill="#FFFFFF" sketch:type="MSShapeGroup"></path>
                <g id="widget-header">
                    <g id="Group">
                        <g id="widget-header-background">
                            <g id="Rectangle-50">
                                <use fill="none" sketch:type="MSShapeGroup" xlink:href="#path-1"></use>
                                <use fill="#F87A20" xlink:href="#path-1"></use>
                            </g>
                            <g id="Rectangle-51">
                                <use fill="none" sketch:type="MSShapeGroup" xlink:href="#path-2"></use>
                                <use fill="#F87A20" xlink:href="#path-2"></use>
                            </g>
                        </g>
                        <g id="cancel-button" transform="translate(768.510345, 18.409091)" font-size="12" fill="#FFFFFF" sketch:type="MSTextLayer" font-weight="normal">
                            <text id="cancel" font-family="Arial">
                                <tspan x="16.1103448" y="12.0227273">cancel</tspan>
                            </text>
                            <text id="" font-family="FontAwesome">
                                <tspan x="0" y="10"></tspan>
                            </text>
                        </g>
                        <text id="Edit-mode-widget" sketch:type="MSTextLayer" font-family="Lato" font-size="16" font-weight="260" fill="#FFFFFF">
                            <tspan x="20.137931" y="31.3409091">Edit-mode widget</tspan>
                        </text>
                    </g>
                </g>
            </g>
            <g id="Titre" sketch:type="MSLayerGroup" transform="translate(0.000000, 21.000000)">
                <text id="Grid" sketch:type="MSTextLayer" font-family="Lato" font-size="30" font-weight="normal" fill="#015173">
                    <tspan x="30" y="30">Grid</tspan>
                </text>
                <path d="M0,57.5 L1023.56146,57.5" id="Line" stroke="#015173" stroke-linecap="square" sketch:type="MSShapeGroup"></path>
            </g>
        </g>
    </g>
</svg>