<?xml version="1.0" encoding="UTF-8" standalone="no"?>
<svg width="1024px" height="870px" viewBox="0 0 1024 870" version="1.1" xmlns="http://www.w3.org/2000/svg" xmlns:xlink="http://www.w3.org/1999/xlink" xmlns:sketch="http://www.bohemiancoding.com/sketch/ns">
    <!-- Generator: Sketch 3.0.4 (8054) - http://www.bohemiancoding.com/sketch -->
    <title>Layout/05-Wizards</title>
    <desc>Created with Sketch.</desc>
    <defs></defs>
    <g id="Page-Layout" stroke="none" stroke-width="1" fill="none" fill-rule="evenodd" sketch:type="MSPage">
        <g id="Layout/05-Wizards" sketch:type="MSArtboardGroup">
            <g id="Titre" sketch:type="MSLayerGroup" transform="translate(0.000000, 21.000000)">
                <text id="Wizards" sketch:type="MSTextLayer" font-family="Lato" font-size="30" font-weight="normal" fill="#015173">
                    <tspan x="30" y="30">Wizards</tspan>
                </text>
                <path d="M0,57.5 L1023.56146,57.5" id="Line" stroke="#015173" stroke-linecap="square" sketch:type="MSShapeGroup"></path>
            </g>
            <g id="checklist-sidebar" sketch:type="MSLayerGroup" transform="translate(695.000000, 182.000000)">
                <g id="alfred*" transform="translate(56.000000, 326.000000)">
                    <g id="Oval-2-+-Bitmap" transform="translate(152.000000, 0.000000)" sketch:type="MSShapeGroup">
                        <circle id="Oval-2" stroke="#015173" stroke-width="1.60714286" cx="16" cy="16" r="16"></circle>
                        <path d="M22.7421692,16.7099161 C22.7498156,15.9552572 22.7647059,8.03768085 22.7647059,8.03768085 C22.6081565,7.06819788 19.520633,6.29411765 15.7320581,6.29411765 C11.8481048,6.29411765 8.69981276,7.10822968 8.69981276,8.11140278 C8.69981276,8.14548926 8.70383716,8.17917939 8.71108109,8.21286952 C8.71108109,8.21286952 8.6366296,16.6417431 8.64830038,17.7796768 C8.6366296,20.3534544 9.25035137,22.6366041 9.28335149,22.7222167 C10.0294762,24.8141754 11.5684087,25.6282875 11.9273856,25.8712528 C12.6533883,26.3623359 14.2273331,26.8823529 15.7851802,26.8823529 C15.8403146,26.8823529 15.8942416,26.8811639 15.9485711,26.8799748 C17.5772478,26.8415284 18.8870175,26.6029279 19.7061581,26.1078764 C21.1534427,25.2332026 21.6083176,24.3667095 21.8511476,23.6817014 C22.5928525,21.8903167 22.7647062,19.2222134 22.7421692,16.7099161 Z" id="Path" fill="#015173"></path>
                        <g id="Shape" transform="translate(9.823529, 6.294118)" fill="#F3F3F3">
                            <path d="M10.4254902,0.570927602 L10.3392157,3.34598416 C10.1545098,3.27946833 9.95607843,3.2418552 9.74862745,3.2418552 C9.55921569,3.2418552 9.3772549,3.27234163 9.20588235,3.32816742 L9.20588235,-0.0583838595 C9.20588235,-0.0579879319 10.318558,-0.0451357466 10.5938521,0.230429864 L10.4254902,0.570927602 Z M9.21411765,4.04242081 C9.37529412,3.96165158 9.55647059,3.91493213 9.74862745,3.91493213 C9.95294118,3.91493213 10.1454902,3.96640271 10.3145098,4.05746606 C10.6960784,4.26255656 10.9568627,4.66838235 10.9568627,5.13478507 C10.9568627,5.80786199 10.414902,6.35542986 9.74862745,6.35542986 C9.08235294,6.35542986 8.53960784,5.80786199 8.53960784,5.13478507 C8.53960784,4.6561086 8.81529412,4.24196833 9.21411765,4.04242081 L9.21411765,4.04242081 Z M11.6756861,14.6333235 C11.5768626,15.2161289 11.3788853,15.9596187 11.0517647,16.8221719 C10.762485,17.5849463 10.1963659,18.2515276 9.15568627,18.9197964 C8.41066413,19.3982097 7.31843137,19.4879525 6.09098039,19.518043 C6.04588235,19.5196267 6.00117647,19.5196267 5.95686275,19.5196267 C4.68313725,19.5196267 3.37529412,19.0896493 2.79176471,18.6846154 C2.75803922,18.6612557 2.71607843,18.6331448 2.6654902,18.6002828 C2.25529412,18.3338235 1.16470588,17.6274887 0.615294118,16.0485294 C0.607843137,16.0271493 0.184705882,14.6829751 0.101960784,12.7567873 C0.0380392157,11.2811652 0.129411765,8.89411765 0.191764706,7.58716063 C1.41803922,7.09541855 3.52156863,6.77154977 5.91098039,6.77154977 C8.31058824,6.77154977 10.4207843,7.09858597 11.645098,7.59309955 C11.6682353,8.43959276 11.685098,9.79881222 11.6756863,10.66431 C11.6486275,11.779638 11.6756861,14.1147801 11.6756861,14.6333235 Z M3.33333333,11.4819005 C3.874789,11.4819005 4.31372549,11.0387434 4.31372549,10.4920814 C4.31372549,9.94541948 3.874789,9.50226244 3.33333333,9.50226244 C2.79187767,9.50226244 2.35294118,9.94541948 2.35294118,10.4920814 C2.35294118,11.0387434 2.79187767,11.4819005 3.33333333,11.4819005 Z M8.82352941,11.4819005 C9.36498508,11.4819005 9.80392157,11.0387434 9.80392157,10.4920814 C9.80392157,9.94541948 9.36498508,9.50226244 8.82352941,9.50226244 C8.28207375,9.50226244 7.84313725,9.94541948 7.84313725,10.4920814 C7.84313725,11.0387434 8.28207375,11.4819005 8.82352941,11.4819005 Z M6.07843137,16.6289593 C8.1359629,16.6289593 9.80392157,14.9088447 9.80392157,13.8456466 C9.80392157,12.7824484 8.1359629,14.2637164 6.07843137,14.2637164 C4.02089985,14.2637164 2.35294118,12.7824484 2.35294118,13.8456466 C2.35294118,14.9088447 4.02089985,16.6289593 6.07843137,16.6289593 Z"></path>
                        </g>
                    </g>
                    <text id="Need-any-help-?" sketch:type="MSTextLayer" font-family="Arial" font-size="12" font-weight="normal" sketch:alignment="right" fill="#939393">
                        <tspan x="55.6015625" y="14">Need any help ?</tspan>
                        <tspan x="0.25390625" y="28">Ask your question to Alfred</tspan>
                    </text>
                </g>
                <path d="M3.99018572,-1.13359308e-13 C1.786467,-1.1335625e-13 0,1.79702237 0,4.00910291 L0,301.990897 C0,304.205063 1.79383278,306 3.99018572,306 L236.009814,306 C238.213533,306 240,304.202978 240,301.990897 L240,4.00910291 C240,1.79493651 238.206167,-1.13684348e-13 236.009814,-1.136813e-13 L3.99018572,-1.13359308e-13 Z" id="Rectangle-14" stroke="#E2E2E2" fill="#ECECEC" sketch:type="MSShapeGroup"></path>
                <text id="Checklist" sketch:type="MSTextLayer" font-family="Lato" font-size="16" font-weight="260" fill="#015173">
                    <tspan x="20.5" y="36">Checklist</tspan>
                </text>
                <path d="M36.6889946,136.5 L36.6566871,156.703025" id="Line-2" stroke="#82B00A" stroke-linecap="square" sketch:type="MSShapeGroup"></path>
                <path d="M36.5,186.5 L36.5,205.78473" id="Line-3" stroke="#939393" stroke-linecap="square" stroke-dasharray="4" sketch:type="MSShapeGroup"></path>
                <path d="M36.5,236.5 L36.5,255.78473" id="Line-3" stroke="#939393" stroke-linecap="square" stroke-dasharray="4" sketch:type="MSShapeGroup"></path>
                <path d="M37.1987123,86.5 L37.2379859,106.460232" id="Line" stroke="#82B00A" stroke-linecap="square" sketch:type="MSShapeGroup"></path>
                <g id="Step1" transform="translate(22.000000, 56.000000)">
                    <g id="Oval-33-+-10">
                        <path d="M15,30 C23.2842712,30 30,23.2842712 30,15 C30,6.71572875 23.2842712,0 15,0 C6.71572875,0 0,6.71572875 0,15 C0,23.2842712 6.71572875,30 15,30 Z" id="Oval-33" fill="#82B00A" sketch:type="MSShapeGroup"></path>
                        <text id="" sketch:type="MSTextLayer" font-family="FontAwesome" font-size="14" font-weight="normal" sketch:alignment="middle" fill="#FFFFFF">
                            <tspan x="8" y="20"></tspan>
                        </text>
                    </g>
                    <text id="Step-1" sketch:type="MSTextLayer" font-family="Arial" font-size="14" font-weight="normal">
                        <tspan x="40" y="13" fill="#82B00A">Step 1</tspan>
                        <tspan x="40" y="29" fill="#939393">Selected value</tspan>
                    </text>
                </g>
                <g id="Step2" transform="translate(22.000000, 105.000000)">
                    <g id="Oval-33-+-11" transform="translate(0.000000, 1.000000)">
                        <path d="M15,30 C23.2842712,30 30,23.2842712 30,15 C30,6.71572875 23.2842712,0 15,0 C6.71572875,0 0,6.71572875 0,15 C0,23.2842712 6.71572875,30 15,30 Z" id="Oval-33" fill="#82B00A" sketch:type="MSShapeGroup"></path>
                        <text id="" sketch:type="MSTextLayer" font-family="FontAwesome" font-size="14" font-weight="normal" sketch:alignment="middle" fill="#FFFFFF">
                            <tspan x="8" y="20"></tspan>
                        </text>
                    </g>
                    <text id="Step-2" sketch:type="MSTextLayer" font-family="Arial" font-size="14" font-weight="normal">
                        <tspan x="40" y="13" fill="#82B00A">Step 2</tspan>
                        <tspan x="40" y="29" fill="#939393">Selected value</tspan>
                    </text>
                </g>
                <g id="Step3" transform="translate(22.000000, 156.000000)">
                    <g id="Oval-33-+-1">
                        <circle id="Oval-33" stroke="#015173" fill="#EBEBEB" sketch:type="MSShapeGroup" cx="15" cy="15" r="15"></circle>
                        <text id="3" sketch:type="MSTextLayer" font-family="Lato" font-size="16" font-weight="260" fill="#015173">
                            <tspan x="10" y="21">3</tspan>
                        </text>
                    </g>
                    <text id="Step-3" sketch:type="MSTextLayer" font-family="Arial" font-size="14" font-weight="normal" fill="#01415C">
                        <tspan x="40" y="21">Step 3</tspan>
                    </text>
                </g>
                <g id="Step4" transform="translate(22.000000, 206.000000)">
                    <g id="Oval-33-+-1">
                        <circle id="Oval-33" stroke="#939393" sketch:type="MSShapeGroup" cx="15" cy="15" r="15"></circle>
                        <text id="4" sketch:type="MSTextLayer" font-family="Lato" font-size="16" font-weight="260" fill="#939393">
                            <tspan x="10" y="21">4</tspan>
                        </text>
                    </g>
                    <text id="Step-4" sketch:type="MSTextLayer" font-family="Arial" font-size="14" font-weight="normal" fill="#939393">
                        <tspan x="40" y="20">Step 4</tspan>
                    </text>
                </g>
                <g id="Step5" transform="translate(22.000000, 256.000000)">
                    <circle id="Oval-33" stroke="#939393" sketch:type="MSShapeGroup" cx="15" cy="15" r="15"></circle>
                    <text id="5" sketch:type="MSTextLayer" font-family="Lato" font-size="16" font-weight="260" fill="#939393">
                        <tspan x="10" y="21">5</tspan>
                    </text>
                    <text id="Step-5" sketch:type="MSTextLayer" font-family="Arial" font-size="14" font-weight="normal" fill="#939393">
                        <tspan x="40" y="21">Step 5</tspan>
                    </text>
                </g>
            </g>
            <g id="current-step" sketch:type="MSLayerGroup" transform="translate(96.000000, 181.000000)">
                <rect id="Rectangle-25" stroke="#E2E2E2" fill="#FFFFFF" sketch:type="MSShapeGroup" x="0.013986014" y="0" width="578.986014" height="427.910602" rx="4"></rect>
                <g id="CTA" transform="translate(0.013986, 355.000000)">
                    <path d="M-0.506993007,0.5 L578.479021,0.5" id="Line-4" stroke="#E2E2E2" fill="#FFFFFF" sketch:type="MSShapeGroup"></path>
                    <g id="buttonConfirm*" transform="translate(456.293706, 21.000000)">
                        <path d="M3.99896489,0 C1.79039757,0 1.80120099e-15,1.78902751 1.80120099e-15,4.0042577 L1.80120099e-15,27.9957423 C1.80120099e-15,30.2072328 1.79923311,32 3.99896489,32 L98.4136225,32 C100.62219,32 102.412587,30.2109725 102.412587,27.9957423 L102.412587,4.0042577 C102.412587,1.79276724 100.613354,0 98.4136225,0 L3.99896489,0 Z" id="Rectangle-5" fill="#F76401" sketch:type="MSShapeGroup"></path>
                        <text id="next-step" sketch:type="MSTextLayer" font-family="Lato" font-size="16" font-weight="260" sketch:alignment="middle" fill="#FFFFFF">
                            <tspan x="19.7833007" y="22">next step</tspan>
                        </text>
                    </g>
                </g>
                <g id="Step-name" transform="translate(20.293706, 20.000000)">
                    <g id="Oval-33-+-1">
                        <ellipse id="Oval-33" stroke="#015173" sketch:type="MSShapeGroup" cx="15.2097902" cy="15" rx="15.2097902" ry="15"></ellipse>
                        <text id="3" sketch:type="MSTextLayer" font-family="Lato" font-size="15.1578947" font-weight="260" fill="#015173">
                            <tspan x="10.1398601" y="20">3</tspan>
                        </text>
                    </g>
                    <text sketch:type="MSTextLayer" font-family="Lato" font-size="22" font-weight="260" fill="#015173">
                        <tspan x="44.6153846" y="22">Step name</tspan>
                    </text>
                </g>
            </g>
            <text id="H1-Wizard-name" sketch:type="MSTextLayer" font-family="Lato" font-size="26" font-weight="260" fill="#015173">
                <tspan x="95" y="156">Wizard name</tspan>
            </text>
            <g id="close-button" sketch:type="MSLayerGroup" transform="translate(864.000000, 130.000000)">
                <rect id="Rectangle-6" stroke="#FEA971" sketch:type="MSShapeGroup" x="0" y="0" width="71" height="32" rx="4"></rect>
                <text id="-close" sketch:type="MSTextLayer" font-family="FontAwesome" font-size="16" font-weight="normal">
                    <tspan x="9.5" y="19.7266235" fill="#FF8328"> </tspan>
                    <tspan x="26.0714286" y="19.7266235" font-family="Lato" font-weight="260" fill="#F76401">close</tspan>
                </text>
            </g>
            <text id="Wizards-are-full-scr" sketch:type="MSTextLayer" font-family="Lato" font-size="20" font-weight="normal" fill="#585858">
                <tspan x="95" y="669">Wizards are full screen process, mainly used for creation or </tspan>
                <tspan x="95" y="693">complicated tasks which needs a particular attention</tspan>
            </text>
        </g>
    </g>
</svg>