<?xml version="1.0" encoding="UTF-8" standalone="no"?>
<svg width="79px" height="77px" viewBox="0 0 79 77" version="1.1" xmlns="http://www.w3.org/2000/svg" xmlns:xlink="http://www.w3.org/1999/xlink" xmlns:sketch="http://www.bohemiancoding.com/sketch/ns">
    <!-- Generator: Sketch 3.0.4 (8054) - http://www.bohemiancoding.com/sketch -->
    <title>Assets/Pictos/closed</title>
    <desc>Created with Sketch.</desc>
    <defs></defs>
    <g id="Custom-Pictos" stroke="none" stroke-width="1" fill="none" fill-rule="evenodd" sketch:type="MSPage">
        <g id="Pictos/Custom" sketch:type="MSArtboardGroup" transform="translate(-73.000000, -648.000000)" fill="#000000">
            <path d="M124.975105,669.031746 L98.6811594,669.031746 L98.6811594,669.031746 L108.411269,659.237567 C109.384986,659.899332 110.558628,660.285714 111.821925,660.285714 C113.088427,660.285714 114.264819,659.89737 115.239988,659.232525 L124.975105,669.031746 L124.975105,669.031746 Z M128.972043,669.031746 L146.57001,669.031746 C149.57085,669.031746 152,671.457165 152,674.449071 L152,719.582675 C152,722.57715 149.568911,725 146.57001,725 L78.4299899,725 C75.4291503,725 73,722.574581 73,719.582675 L73,674.449071 C73,671.454596 75.4310893,669.031746 78.4299899,669.031746 L94.6608684,669.031746 L106.486918,657.127825 C105.997872,656.2441 105.719252,655.22623 105.719252,654.142857 C105.719252,650.750251 108.451512,648 111.821925,648 C115.192338,648 117.924598,650.750251 117.924598,654.142857 C117.924598,655.22912 117.644491,656.249529 117.153015,657.134893 L128.972043,669.031746 L128.972043,669.031746 Z M111.821925,656.735773 C113.244585,656.735773 114.397879,655.574885 114.397879,654.142857 C114.397879,652.710829 113.244585,651.549941 111.821925,651.549941 C110.399265,651.549941 109.245971,652.710829 109.245971,654.142857 C109.245971,655.574885 110.399265,656.735773 111.821925,656.735773 Z M95.452777,708.579854 C95.452777,707.826979 95.7145556,707.187044 96.2381208,706.660032 L104.484231,698.359623 L96.2381208,690.059214 C95.7145556,689.532202 95.452777,688.892267 95.452777,688.139392 C95.452777,687.386517 95.7145556,686.746582 96.2381208,686.21957 L100.052648,682.379925 C100.576213,681.852912 101.211961,681.58941 101.959912,681.58941 C102.707862,681.58941 103.34361,681.852912 103.867175,682.379925 L112.113285,690.680333 L120.359396,682.379925 C120.882961,681.852912 121.518709,681.58941 122.266659,681.58941 C123.01461,681.58941 123.650358,681.852912 124.173923,682.379925 L127.98845,686.21957 C128.512015,686.746582 128.773794,687.386517 128.773794,688.139392 C128.773794,688.892267 128.512015,689.532202 127.98845,690.059214 L119.74234,698.359623 L127.98845,706.660032 C128.512015,707.187044 128.773794,707.826979 128.773794,708.579854 C128.773794,709.332729 128.512015,709.972664 127.98845,710.499676 L124.173923,714.339321 C123.650358,714.866334 123.01461,715.129836 122.266659,715.129836 C121.518709,715.129836 120.882961,714.866334 120.359396,714.339321 L112.113285,706.038913 L103.867175,714.339321 C103.34361,714.866334 102.707862,715.129836 101.959912,715.129836 C101.211961,715.129836 100.576213,714.866334 100.052648,714.339321 L96.2381208,710.499676 C95.7145556,709.972664 95.452777,709.332729 95.452777,708.579854 Z" id="Assets/Pictos/closed" sketch:type="MSShapeGroup"></path>
        </g>
    </g>
</svg>