<?xml version="1.0" encoding="UTF-8" standalone="no"?>
<svg width="96px" height="61px" viewBox="0 0 96 61" version="1.1" xmlns="http://www.w3.org/2000/svg" xmlns:xlink="http://www.w3.org/1999/xlink" xmlns:sketch="http://www.bohemiancoding.com/sketch/ns">
    <!-- Generator: Sketch 3.0.4 (8054) - http://www.bohemiancoding.com/sketch -->
    <title>Assets/Pictos/Currency-exchange</title>
    <desc>Created with Sketch.</desc>
    <defs></defs>
    <g id="Custom-Pictos" stroke="none" stroke-width="1" fill="none" fill-rule="evenodd" sketch:type="MSPage">
        <g id="Pictos/Custom" sketch:type="MSArtboardGroup" transform="translate(-69.000000, -133.000000)" fill="#000000">
            <path d="M89.7288136,178.489531 L89.7288136,147.083749 C89.7288136,146.611206 89.9039833,146.20228 90.2543281,145.85696 C90.6046729,145.51164 91.0195487,145.338983 91.4989678,145.338983 L141.063288,145.338983 C141.542707,145.338983 141.957583,145.51164 142.307927,145.85696 C142.658272,146.20228 142.833442,146.611206 142.833442,147.083749 L142.833442,178.489531 C142.833442,178.962074 142.658272,179.371 142.307927,179.71632 C141.957583,180.06164 141.542707,180.234297 141.063288,180.234297 L91.4989678,180.234297 C91.0195487,180.234297 90.6046729,180.06164 90.2543281,179.71632 C89.9039833,179.371 89.7288136,178.962074 89.7288136,178.489531 Z M107.430356,162.78664 C107.430356,161.514409 107.623965,160.224022 108.011188,158.915441 C108.398411,157.60686 108.946969,156.389171 109.656879,155.262338 C110.366788,154.135505 111.302563,153.217694 112.464233,152.50888 C113.625902,151.800065 114.898188,151.445663 116.281128,151.445663 C117.664068,151.445663 118.936353,151.800065 120.098023,152.50888 C121.259692,153.217694 122.195468,154.135505 122.905377,155.262338 C123.615286,156.389171 124.163844,157.60686 124.551067,158.915441 C124.93829,160.224022 125.131899,161.514409 125.131899,162.78664 C125.131899,164.058871 124.93829,165.349258 124.551067,166.657839 C124.163844,167.96642 123.615286,169.184109 122.905377,170.310942 C122.195468,171.437776 121.259692,172.355586 120.098023,173.064401 C118.936353,173.773215 117.664068,174.127617 116.281128,174.127617 C114.898188,174.127617 113.625902,173.773215 112.464233,173.064401 C111.302563,172.355586 110.366788,171.437776 109.656879,170.310942 C108.946969,169.184109 108.398411,167.96642 108.011188,166.657839 C107.623965,165.349258 107.430356,164.058871 107.430356,162.78664 Z M111.862528,167.222551 L112.798061,165.94569 C112.840448,165.882635 112.910082,165.844802 113.006967,165.832191 C113.097795,165.81958 113.170457,165.847954 113.224955,165.917315 C113.224955,165.917315 113.23101,165.92362 113.24312,165.936231 C113.927365,166.560478 114.663068,166.954567 115.450251,167.118511 C115.674296,167.168955 115.898337,167.194176 116.122381,167.194176 C116.612857,167.194176 117.044288,167.05861 117.416687,166.787472 C117.789085,166.516335 117.975281,166.131704 117.975281,165.633568 C117.975281,165.457013 117.929868,165.28992 117.839039,165.132282 C117.74821,164.974644 117.646786,164.84223 117.534764,164.735036 C117.422741,164.627842 117.245628,164.509615 117.003417,164.380352 C116.761207,164.251089 116.561386,164.150202 116.40395,164.077689 C116.246513,164.005175 116.004306,163.902712 115.677322,163.770296 C115.441167,163.669408 115.254971,163.59059 115.118727,163.53384 C114.982484,163.477091 114.796288,163.393544 114.560133,163.283197 C114.323977,163.172851 114.134753,163.075117 113.992455,162.989992 C113.850156,162.904868 113.679098,162.792946 113.479274,162.654225 C113.279451,162.515503 113.117475,162.381513 112.993342,162.25225 C112.869209,162.122987 112.73751,161.968504 112.598239,161.788797 C112.458968,161.609089 112.351488,161.426232 112.275798,161.240219 C112.200107,161.054206 112.136528,160.844551 112.085058,160.611247 C112.033588,160.377942 112.007854,160.132031 112.007854,159.873504 C112.007854,159.003343 112.304557,158.240386 112.897972,157.584612 C113.491388,156.928838 114.263422,156.506375 115.214097,156.317209 L115.214097,154.614727 C115.214097,154.532755 115.242859,154.461819 115.300384,154.401917 C115.357909,154.342015 115.42603,154.312064 115.504748,154.312064 L116.730932,154.312064 C116.815706,154.312064 116.88534,154.340438 116.939837,154.397188 C116.994335,154.453938 117.021583,154.52645 117.021583,154.614727 L117.021583,156.279376 C117.366733,156.317209 117.701281,156.389722 118.025237,156.496916 C118.349193,156.604109 118.612593,156.709725 118.815444,156.813766 C119.018295,156.917807 119.210547,157.036034 119.392205,157.16845 C119.573863,157.300866 119.691938,157.392295 119.746436,157.442739 C119.800933,157.493183 119.846347,157.537321 119.882678,157.575154 C119.985618,157.688653 120.000756,157.808456 119.928093,157.934567 L119.192382,159.315469 C119.14394,159.410052 119.074306,159.460495 118.983477,159.4668 C118.898703,159.485717 118.816959,159.463648 118.73824,159.400593 C118.720074,159.381676 118.676174,159.343844 118.606539,159.287094 C118.536903,159.230344 118.418828,159.146798 118.252308,159.036451 C118.085788,158.926104 117.908675,158.825218 117.720962,158.733787 C117.533249,158.642357 117.307694,158.560387 117.04429,158.487873 C116.780886,158.41536 116.522028,158.379104 116.267707,158.379104 C115.692457,158.379104 115.223182,158.51467 114.859866,158.785808 C114.496551,159.056945 114.314896,159.406896 114.314896,159.835672 C114.314896,159.999615 114.34063,160.150945 114.3921,160.289667 C114.44357,160.428388 114.532883,160.559226 114.660044,160.682183 C114.787204,160.805141 114.906794,160.909181 115.018816,160.994305 C115.130838,161.07943 115.300383,161.177164 115.527455,161.28751 C115.754528,161.397857 115.937696,161.48298 116.076967,161.542883 C116.216238,161.602785 116.428169,161.689485 116.712766,161.802984 C117.033695,161.929094 117.278929,162.028405 117.448477,162.100918 C117.618024,162.173432 117.84812,162.283777 118.138773,162.431956 C118.429425,162.580136 118.658008,162.714126 118.824527,162.833931 C118.991047,162.953736 119.178757,163.111372 119.387663,163.306843 C119.59657,163.502314 119.757032,163.702511 119.869054,163.907441 C119.981076,164.11237 120.076445,164.353553 120.155164,164.630995 C120.233882,164.908438 120.273241,165.204793 120.273241,165.520069 C120.273241,166.484814 119.971996,167.315554 119.369498,168.012314 C118.766999,168.709073 117.984369,169.139419 117.021583,169.303362 L117.021583,170.958553 C117.021583,171.04683 116.994335,171.119343 116.939837,171.176092 C116.88534,171.232842 116.815706,171.261216 116.730932,171.261216 L115.504748,171.261216 C115.42603,171.261216 115.357909,171.231266 115.300384,171.171363 C115.242859,171.111461 115.214097,171.040525 115.214097,170.958553 L115.214097,169.303362 C114.81445,169.246613 114.428433,169.148878 114.056035,169.010157 C113.683636,168.871436 113.376337,168.73114 113.134126,168.589266 C112.891916,168.447391 112.667875,168.296061 112.461996,168.135271 C112.256117,167.97448 112.115335,167.856253 112.039644,167.780587 C111.963953,167.704921 111.91097,167.648172 111.880694,167.610339 C111.777755,167.477923 111.771699,167.348661 111.862528,167.222551 Z M126.926986,137.191817 L127.035424,137.057907 C130.645839,134.322346 134.639531,132.968887 139.01662,132.99749 C143.393709,133.026093 147.364702,134.483818 150.929718,137.370711 C152.822418,138.903389 154.37665,140.747955 155.592463,142.904466 C156.808275,145.060976 157.588188,147.344877 157.932224,149.756236 L162.458496,149.335521 C162.901029,149.292664 163.290818,149.407705 163.627874,149.680647 C163.96493,149.95359 164.158499,150.310942 164.208586,150.752715 C164.258674,151.194489 164.149461,151.581164 163.880946,151.912753 L156.940888,160.48301 C156.672373,160.814599 156.316854,161.001819 155.874321,161.044676 C155.431788,161.087533 155.041999,160.972492 154.704943,160.699549 L145.993384,153.645068 C145.656328,153.372125 145.462759,153.014773 145.412672,152.573 C145.362585,152.131227 145.471797,151.744552 145.740312,151.412963 C146.008828,151.081374 146.364347,150.894153 146.80688,150.851296 L151.628137,150.384383 C151.12438,147.083491 149.569674,144.378057 146.963971,142.268001 C145.226836,140.861297 143.270759,139.963573 141.095682,139.574801 C138.920605,139.18603 136.790701,139.351164 134.705905,140.070209 C134.387736,140.171541 133.440053,140.639418 131.862826,141.473853 C131.521584,141.683199 131.208366,141.672397 130.923165,141.441445 L127.053522,138.30787 C126.884994,138.171399 126.788209,137.992722 126.763166,137.771836 C126.738122,137.550949 126.792728,137.357612 126.926986,137.191817 Z M76.522062,166.55583 C76.7934039,166.220751 77.1507708,166.030026 77.5941733,165.98365 C78.0375759,165.937274 78.426981,166.049893 78.7624005,166.32151 L87.4316593,173.341737 C87.7670788,173.613355 87.9581985,173.970836 88.0050244,174.414191 C88.0518502,174.857546 87.9395939,175.246758 87.6682519,175.581837 C87.39691,175.916916 87.0395431,176.107641 86.5961405,176.154017 L81.8004159,176.65561 C82.0275779,178.24792 82.5338328,179.746138 83.3191958,181.150307 C84.1045588,182.554477 85.1229113,183.763215 86.3742838,184.776556 C88.1029839,186.17643 90.0547255,187.06342 92.2295671,187.437552 C94.4044086,187.811685 96.5381886,187.629795 98.630971,186.891878 C98.9502951,186.787703 99.90267,186.310622 101.488124,185.460622 C101.831364,185.24778 102.144887,185.256274 102.428703,185.486104 L106.1441,188.494773 C106.311809,188.630581 106.407369,188.809322 106.430782,189.031 C106.454195,189.252677 106.398067,189.447283 106.262396,189.614823 C106.210215,189.679261 106.167238,189.719144 106.133465,189.734472 C102.510908,192.519771 98.5149971,193.919723 94.1456126,193.934368 C89.776228,193.949014 85.8241927,192.525144 82.2893879,189.662716 C80.4058788,188.13748 78.8706675,186.307484 77.6837081,184.172671 C76.4967487,182.037858 75.7453379,179.75431 75.4294533,177.321958 L70.913771,177.79426 C70.4703685,177.840637 70.0809633,177.728018 69.7455439,177.4564 C69.4101245,177.184783 69.2190047,176.827302 69.1721788,176.383947 C69.125353,175.940592 69.2376093,175.55138 69.5089513,175.216301 L76.522062,166.55583 Z" id="Assets/Pictos/Currency-exchange" sketch:type="MSShapeGroup"></path>
        </g>
    </g>
</svg>