<?xml version="1.0" encoding="UTF-8" standalone="no"?>
<svg width="79px" height="100px" viewBox="0 0 79 100" version="1.1" xmlns="http://www.w3.org/2000/svg" xmlns:xlink="http://www.w3.org/1999/xlink" xmlns:sketch="http://www.bohemiancoding.com/sketch/ns">
    <!-- Generator: Sketch 3.0.3 (7892) - http://www.bohemiancoding.com/sketch -->
    <title>Assets/Pictos/delete</title>
    <desc>Created with Sketch.</desc>
    <defs></defs>
    <g id="Custom-Pictos" stroke="none" stroke-width="1" fill="none" fill-rule="evenodd" sketch:type="MSPage">
        <g id="Pictos/Custom" sketch:type="MSArtboardGroup" transform="translate(-73.000000, -499.000000)" fill="#000000">
            <path d="M146.685,509.526 L125.631,509.526 L125.631,501.631 C125.631,500.173 124.458,499 123.001,499 L101.947,499 C100.489,499 99.316,500.173 99.316,501.631 L99.316,509.526 L78.263,509.526 C75.347,509.526 73,511.874 73,514.789 C73,517.706 75.347,520.052 78.263,520.052 L146.685,520.052 C149.6,520.052 151.948,517.705 151.948,514.789 C151.947,511.874 149.6,509.526 146.685,509.526 L146.685,509.526 Z M120.368,509.526 L104.579,509.526 L104.579,504.263 L120.368,504.263 L120.368,509.526 L120.368,509.526 Z M73.082,530.579 L83.526,593.737 C84.002,596.613 85.874,599 88.79,599 L136.159,599 C139.075,599 140.942,596.613 141.421,593.736 L151.867,530.578 C152.342,527.702 149.6,525.315 146.685,525.315 L78.263,525.315 C75.347,525.316 72.603,527.703 73.082,530.579 Z" id="Assets/Pictos/delete" sketch:type="MSShapeGroup"></path>
        </g>
    </g>
</svg>