<?xml version="1.0" encoding="UTF-8" standalone="no"?>
<svg width="77px" height="83px" viewBox="0 0 77 83" version="1.1" xmlns="http://www.w3.org/2000/svg" xmlns:xlink="http://www.w3.org/1999/xlink" xmlns:sketch="http://www.bohemiancoding.com/sketch/ns">
    <!-- Generator: Sketch 3.0.3 (7892) - http://www.bohemiancoding.com/sketch -->
    <title>Assets/Pictos/free-cancel</title>
    <desc>Created with Sketch.</desc>
    <defs></defs>
    <g id="Custom-Pictos" stroke="none" stroke-width="1" fill="none" fill-rule="evenodd" sketch:type="MSPage">
        <g id="Pictos/Custom" sketch:type="MSArtboardGroup" transform="translate(-74.000000, -359.000000)" fill="#000000">
            <path d="M74,436.071429 L74,376.785714 C74,375.180051 74.586132,373.790556 75.7584135,372.617188 C76.930695,371.443819 78.3189022,370.857143 79.9230769,370.857143 L85.8461538,370.857143 L85.8461538,366.410714 C85.8461538,364.372758 86.5711065,362.628169 88.0210337,361.176897 C89.4709608,359.725625 91.2139321,359 93.25,359 L96.2115385,359 C98.2476063,359 99.9905777,359.725625 101.440505,361.176897 C102.890432,362.628169 103.615385,364.372758 103.615385,366.410714 L103.615385,370.857143 L121.384615,370.857143 L121.384615,366.410714 C121.384615,364.372758 122.109568,362.628169 123.559495,361.176897 C125.009422,359.725625 126.752394,359 128.788462,359 L131.75,359 C133.786068,359 135.529039,359.725625 136.978966,361.176897 C138.428893,362.628169 139.153846,364.372758 139.153846,366.410714 L139.153846,370.857143 L145.076923,370.857143 C146.681098,370.857143 148.069305,371.443819 149.241587,372.617188 C150.413868,373.790556 151,375.180051 151,376.785714 L151,436.071429 C151,437.677091 150.413868,439.066586 149.241587,440.239955 C148.069305,441.413324 146.681098,442 145.076923,442 L79.9230769,442 C78.3189022,442 76.930695,441.413324 75.7584135,440.239955 C74.586132,439.066586 74,437.677091 74,436.071429 Z M79.9230769,436.071429 L145.076923,436.071429 L145.076923,388.642857 L79.9230769,388.642857 L79.9230769,436.071429 Z M91.7692308,379.75 C91.7692308,380.182294 91.9080515,380.537387 92.1856971,380.81529 C92.4633427,381.093193 92.8181068,381.232143 93.25,381.232143 L96.2115385,381.232143 C96.6434316,381.232143 96.9981957,381.093193 97.2758413,380.81529 C97.553487,380.537387 97.6923077,380.182294 97.6923077,379.75 L97.6923077,366.410714 C97.6923077,365.97842 97.553487,365.623327 97.2758413,365.345424 C96.9981957,365.067521 96.6434316,364.928571 96.2115385,364.928571 L93.25,364.928571 C92.8181068,364.928571 92.4633427,365.067521 92.1856971,365.345424 C91.9080515,365.623327 91.7692308,365.97842 91.7692308,366.410714 L91.7692308,379.75 Z M127.307692,379.75 C127.307692,380.182294 127.446513,380.537387 127.724159,380.81529 C128.001804,381.093193 128.356568,381.232143 128.788462,381.232143 L131.75,381.232143 C132.181893,381.232143 132.536657,381.093193 132.814303,380.81529 C133.091949,380.537387 133.230769,380.182294 133.230769,379.75 L133.230769,366.410714 C133.230769,365.97842 133.091949,365.623327 132.814303,365.345424 C132.536657,365.067521 132.181893,364.928571 131.75,364.928571 L128.788462,364.928571 C128.356568,364.928571 128.001804,365.067521 127.724159,365.345424 C127.446513,365.623327 127.307692,365.97842 127.307692,366.410714 L127.307692,379.75 Z M99.6666667,420.074247 C99.6666667,419.499057 99.8668877,419.010152 100.267336,418.607519 L106.57436,412.266079 L100.267336,405.924639 C99.8668877,405.522006 99.6666667,405.033101 99.6666667,404.457911 C99.6666667,403.882721 99.8668877,403.393817 100.267336,402.991184 L103.184871,400.057728 C103.585319,399.655095 104.07157,399.453782 104.643638,399.453782 C105.215707,399.453782 105.701958,399.655095 106.102406,400.057728 L112.40943,406.399168 L118.716455,400.057728 C119.116903,399.655095 119.603154,399.453782 120.175222,399.453782 C120.747291,399.453782 121.233542,399.655095 121.63399,400.057728 L124.551525,402.991184 C124.951973,403.393817 125.152194,403.882721 125.152194,404.457911 C125.152194,405.033101 124.951973,405.522006 124.551525,405.924639 L118.244501,412.266079 L124.551525,418.607519 C124.951973,419.010152 125.152194,419.499057 125.152194,420.074247 C125.152194,420.649437 124.951973,421.138341 124.551525,421.540974 L121.63399,424.47443 C121.233542,424.877063 120.747291,425.078376 120.175222,425.078376 C119.603154,425.078376 119.116903,424.877063 118.716455,424.47443 L112.40943,418.13299 L106.102406,424.47443 C105.701958,424.877063 105.215707,425.078376 104.643638,425.078376 C104.07157,425.078376 103.585319,424.877063 103.184871,424.47443 L100.267336,421.540974 C99.8668877,421.138341 99.6666667,420.649437 99.6666667,420.074247 Z" id="Assets/Pictos/free-cancel" sketch:type="MSShapeGroup"></path>
        </g>
    </g>
</svg>