<?xml version="1.0" encoding="UTF-8" standalone="no"?>
<svg width="77px" height="77px" viewBox="0 0 77 77" version="1.1" xmlns="http://www.w3.org/2000/svg" xmlns:xlink="http://www.w3.org/1999/xlink" xmlns:sketch="http://www.bohemiancoding.com/sketch/ns">
    <!-- Generator: Sketch 3.0.4 (8054) - http://www.bohemiancoding.com/sketch -->
    <title>Assets/Pictos/pay-later</title>
    <desc>Created with Sketch.</desc>
    <defs></defs>
    <g id="Custom-Pictos" stroke="none" stroke-width="1" fill="none" fill-rule="evenodd" sketch:type="MSPage">
        <g id="Pictos/Custom" sketch:type="MSArtboardGroup" transform="translate(-78.000000, -233.000000)" fill="#000000">
            <path d="M155,239.416667 C155,238.013014 154.331604,237.02713 152.994792,236.458984 C151.6914,235.890839 150.538416,236.124778 149.535807,237.160807 L143.01888,243.627604 C139.442907,240.252153 135.357336,237.637054 130.762044,235.782227 C126.166752,233.9274 121.412785,233 116.5,233 C111.286432,233 106.306881,234.019304 101.561198,236.057943 C96.8155145,238.096581 92.7215884,240.837005 89.2792969,244.279297 C85.8370054,247.721588 83.0965814,251.815514 81.0579427,256.561198 C79.019304,261.306881 78,266.286432 78,271.5 C78,276.713568 79.019304,281.693119 81.0579427,286.438802 C83.0965814,291.184486 85.8370054,295.278412 89.2792969,298.720703 C92.7215884,302.162995 96.8155145,304.903419 101.561198,306.942057 C106.306881,308.980696 111.286432,310 116.5,310 C122.248293,310 127.712431,308.788532 132.892578,306.36556 C138.072726,303.942588 142.48414,300.525413 146.126953,296.113932 C146.360895,295.779729 146.46951,295.403756 146.452799,294.986003 C146.436089,294.568249 146.294055,294.225696 146.026693,293.958333 L139.158854,287.040365 C138.824651,286.739582 138.406904,286.589193 137.905599,286.589193 C137.370874,286.656033 136.986546,286.856552 136.752604,287.190755 C134.312922,290.365684 131.321849,292.82204 127.779297,294.559896 C124.236744,296.297752 120.477016,297.166667 116.5,297.166667 C113.024288,297.166667 109.707373,296.489916 106.549154,295.136393 C103.390935,293.782871 100.658866,291.953137 98.3528646,289.647135 C96.0468635,287.341134 94.2171292,284.609065 92.8636068,281.450846 C91.5100844,278.292627 90.8333333,274.975712 90.8333333,271.5 C90.8333333,268.024288 91.5100844,264.707373 92.8636068,261.549154 C94.2171292,258.390935 96.0468635,255.658866 98.3528646,253.352865 C100.658866,251.046863 103.390935,249.217129 106.549154,247.863607 C109.707373,246.510084 113.024288,245.833333 116.5,245.833333 C119.77519,245.833333 122.916652,246.426535 125.924479,247.612956 C128.932307,248.799377 131.605891,250.495432 133.945312,252.701172 L127.077474,259.619141 C126.041444,260.62175 125.807506,261.774733 126.375651,263.078125 C126.943796,264.414937 127.92968,265.083333 129.333333,265.083333 L151.791667,265.083333 C152.660595,265.083333 153.41254,264.765845 154.047526,264.130859 C154.682512,263.495874 155,262.743928 155,261.875 L155,239.416667 Z M106.860677,280.863607 L108.950629,278.124349 C109.04532,277.989076 109.200881,277.907914 109.417318,277.880859 C109.620227,277.853805 109.782551,277.914677 109.904297,278.063477 L109.944878,278.104058 C111.47346,279.443258 113.116998,280.288699 114.875543,280.640408 C115.376051,280.748626 115.876553,280.802734 116.377062,280.802734 C117.47277,280.802734 118.436574,280.511903 119.2685,279.93023 C120.100427,279.348558 120.516385,278.523407 120.516385,277.454753 C120.516385,277.075989 120.414932,276.717522 120.212023,276.37934 C120.009114,276.041159 119.782535,275.75709 119.532281,275.527127 C119.282026,275.297163 118.88636,275.043531 118.345269,274.766222 C117.804178,274.488913 117.357785,274.27248 117.006076,274.116916 C116.654367,273.961353 116.113285,273.741538 115.382812,273.457465 C114.855249,273.241029 114.439292,273.071941 114.134928,272.950195 C113.830565,272.82845 113.414608,272.649216 112.887044,272.412489 C112.359481,272.175762 111.93676,271.966092 111.618869,271.783474 C111.300979,271.600856 110.918839,271.360751 110.472439,271.063151 C110.026039,270.765551 109.66419,270.478101 109.386882,270.200792 C109.109573,269.923483 108.815359,269.59207 108.504232,269.206543 C108.193105,268.821016 107.952999,268.428731 107.783908,268.029677 C107.614818,267.630622 107.472783,267.180847 107.357802,266.680339 C107.24282,266.17983 107.18533,265.652274 107.18533,265.097656 C107.18533,263.230893 107.848156,261.594119 109.173828,260.187283 C110.4995,258.780447 112.224201,257.874134 114.347982,257.468316 L114.347982,253.815972 C114.347982,253.640118 114.412235,253.487938 114.540744,253.359429 C114.669253,253.23092 114.821433,253.166667 114.997287,253.166667 L117.736545,253.166667 C117.925927,253.166667 118.081488,253.227538 118.203234,253.349284 C118.324979,253.471029 118.385851,253.62659 118.385851,253.815972 L118.385851,257.387153 C119.156905,257.468316 119.904275,257.623878 120.627984,257.853841 C121.351693,258.083805 121.94012,258.310383 122.393283,258.533583 C122.846447,258.756783 123.275931,259.010415 123.681749,259.294488 C124.087567,259.57856 124.351345,259.774703 124.47309,259.882921 C124.594836,259.991139 124.696289,260.085829 124.777452,260.166992 C125.007416,260.410483 125.041233,260.667497 124.878906,260.938043 L123.235352,263.900499 C123.127133,264.103408 122.971572,264.211625 122.768663,264.225152 C122.579281,264.265734 122.396666,264.218389 122.220812,264.083116 C122.18023,264.042535 122.082159,263.961372 121.926595,263.839627 C121.771031,263.717881 121.507254,263.538648 121.135254,263.301921 C120.763254,263.065193 120.367587,262.84876 119.948242,262.652615 C119.528897,262.45647 119.025014,262.280618 118.436578,262.125054 C117.848142,261.969491 117.26986,261.89171 116.701714,261.89171 C115.416624,261.89171 114.368277,262.182542 113.556641,262.764214 C112.745005,263.345887 112.339193,264.096639 112.339193,265.016493 C112.339193,265.368202 112.396683,265.692852 112.511664,265.990451 C112.626646,266.288051 112.82617,266.568738 113.110243,266.83252 C113.394316,267.096301 113.661475,267.319498 113.91173,267.502116 C114.161984,267.684734 114.540742,267.894403 115.048014,268.131131 C115.555287,268.367858 115.964481,268.550473 116.275608,268.678982 C116.586735,268.807491 117.060182,268.993488 117.695964,269.236979 C118.412909,269.507525 118.960755,269.720576 119.339518,269.876139 C119.718282,270.031703 120.23231,270.268427 120.881619,270.586317 C121.530928,270.904208 122.041574,271.191658 122.413574,271.448676 C122.785574,271.705694 123.204913,272.043871 123.671604,272.463216 C124.138294,272.882561 124.496762,273.312046 124.747016,273.751682 C124.99727,274.191318 125.210322,274.708728 125.386176,275.303928 C125.562031,275.899128 125.649957,276.5349 125.649957,277.211263 C125.649957,279.280935 124.976985,281.063125 123.631022,282.557888 C122.285059,284.052651 120.536686,284.975874 118.385851,285.327582 L118.385851,288.878472 C118.385851,289.067854 118.324979,289.223415 118.203234,289.345161 C118.081488,289.466906 117.925927,289.527778 117.736545,289.527778 L114.997287,289.527778 C114.821433,289.527778 114.669253,289.463524 114.540744,289.335015 C114.412235,289.206506 114.347982,289.054327 114.347982,288.878472 L114.347982,285.327582 C113.455182,285.205837 112.592832,284.996168 111.760905,284.698568 C110.928978,284.400968 110.24248,284.099991 109.701389,283.795627 C109.160298,283.491264 108.659797,283.166614 108.19987,282.821669 C107.739943,282.476724 107.425438,282.223091 107.256348,282.060764 C107.087257,281.898437 106.968895,281.776693 106.901259,281.69553 C106.671295,281.411457 106.657768,281.134152 106.860677,280.863607 Z" id="Assets/Pictos/pay-later" sketch:type="MSShapeGroup"></path>
        </g>
    </g>
</svg>