<?xml version="1.0" encoding="UTF-8" standalone="no"?>
<svg width="79px" height="62px" viewBox="0 0 79 62" version="1.1" xmlns="http://www.w3.org/2000/svg" xmlns:xlink="http://www.w3.org/1999/xlink" xmlns:sketch="http://www.bohemiancoding.com/sketch/ns">
    <!-- Generator: Sketch 3.0.4 (8054) - http://www.bohemiancoding.com/sketch -->
    <title>Assets/Pictos/room</title>
    <desc>Created with Sketch.</desc>
    <defs></defs>
    <g id="Custom-Pictos" stroke="none" stroke-width="1" fill="none" fill-rule="evenodd" sketch:type="MSPage">
        <g id="Pictos/Custom" sketch:type="MSArtboardGroup" transform="translate(-512.000000, -241.000000)" fill="#000000">
            <path d="M521.216667,288.214 L581.965362,288.214 L581.965362,297.655355 C581.965362,300.016697 584.223446,302.377237 586.482297,302.377237 C588.741917,302.377237 591.000768,300.0175 591.000768,297.655355 L591.000768,283.491316 C591.000768,281.132382 588.742685,278.770237 586.482297,278.770237 L521.216667,278.770237 L521.216667,245.609919 C521.216667,243.063931 519.148267,241 516.608333,241 C514.063221,241 512,243.064533 512,245.609919 L512,297.390081 C512,299.936069 514.0684,302 516.608333,302 C519.153446,302 521.216667,299.935467 521.216667,297.390081 L521.216667,288.214 Z M527.361879,256.542961 C527.361879,256.542961 527.355735,264.607 527.361879,266.967539 C527.363415,267.608842 527.361879,269.874671 527.361879,271.688618 C527.361879,274.049961 529.117654,274.049961 529.620731,274.049961 L591,274.049961 L591,270.707 C591,265.985118 591,256.542961 568.410718,256.542961 L527.361879,256.542961 Z" id="Assets/Pictos/room" sketch:type="MSShapeGroup"></path>
        </g>
    </g>
</svg>