<?xml version="1.0" encoding="UTF-8" standalone="no"?>
<svg width="68px" height="82px" viewBox="0 0 68 82" version="1.1" xmlns="http://www.w3.org/2000/svg" xmlns:xlink="http://www.w3.org/1999/xlink" xmlns:sketch="http://www.bohemiancoding.com/sketch/ns">
        <g sketch:type="MSArtboardGroup" transform="translate(-518.000000, -563.000000)" fill="#000000" fill-rule="evenodd">
            <path d="M585.038027,567.941161 L585.038027,602.667563 C585.038027,602.667563 582.943824,632.716621 551.518108,644.302379 C520.095108,632.716621 518,602.667563 518,602.667563 L518,567.941161 C535.667969,561.552734 568.482422,561.648437 585.038027,567.941161 Z,M552.027261,605.428954 C550.376703,604.694214 540.914088,600.537023 538.112144,597.72118 C533.455688,593.041626 533.14917,587.433472 535.269517,583.042895 C536.320221,580.867216 540.427509,575 550.835192,575 C562.441895,575 565.323421,581.41333 567.936803,583.891868 L564.360595,587.01966 C562.496067,584.040795 558.318604,578.172476 550.697646,578.172475 C540.826904,578.172475 535.557083,587.465004 550.376704,593.610366 C555.764893,595.844727 562.353516,598.713257 565.506815,601.2958 C571.323908,606.059981 571.525499,615.920348 565.32342,620.822163 C558.710938,626.04834 547.711486,625.762378 542.14684,623.36908 C537.820068,621.508179 534.46717,617.984817 533,616.108132 L536.988848,612.578195 C542.680054,620.822163 547.592692,621.777505 551.156134,621.693476 C561.783691,621.442871 564.569967,611.012299 552.027261,605.428954 Z"></path>
        </g>
</svg>