<?xml version="1.0" encoding="UTF-8" standalone="no"?>
<svg width="67px" height="80px" viewBox="0 0 67 80" version="1.1" xmlns="http://www.w3.org/2000/svg" xmlns:xlink="http://www.w3.org/1999/xlink" xmlns:sketch="http://www.bohemiancoding.com/sketch/ns">
    <!-- Generator: Sketch 3.0.4 (8054) - http://www.bohemiancoding.com/sketch -->
    <title>Assets/Pictos/Siriona</title>
    <desc>Created with Sketch.</desc>
    <defs></defs>
    <g id="Custom-Pictos" stroke="none" stroke-width="1" fill="none" fill-rule="evenodd" sketch:type="MSPage">
        <g id="Pictos/Custom" sketch:type="MSArtboardGroup" transform="translate(-518.000000, -565.000000)" fill="#000000">
            <g id="Shape" sketch:type="MSLayerGroup" transform="translate(518.000000, 565.000000)">
                <path d="M67.038027,2.94116092 L67.038027,37.6675632 C67.038027,37.6675632 64.9438243,67.7166207 33.5181081,79.3023793 C2.09510811,67.7166207 0,37.6675632 0,37.6675632 L0,2.94116092 C1.60832308e-15,2.94116092 16.7590541,0 33.5181081,0 C50.2771622,0 67.038027,2.94116092 67.038027,2.94116092 Z M37.6431227,58.6992851 C38.8657641,58.2569236 39.9149068,57.6753089 40.7905824,56.9544236 C41.666258,56.2335382 42.3519182,55.3979791 42.8475836,54.4477212 C43.3432491,53.4974632 43.5910781,52.530836 43.5910781,51.5478105 C43.5910781,49.9422023 43.1862907,48.541412 42.3767038,47.3453977 C41.567117,46.1493834 40.4931913,45.0680716 39.1548947,44.1014298 C37.816598,43.1347881 36.2883192,42.2582702 34.5700124,41.4718499 C32.8517056,40.6854295 31.1086416,39.8744456 29.3407683,39.038874 C27.5728949,38.2033023 25.829831,37.3022092 24.1115242,36.3355675 C22.3932173,35.3689258 20.8649385,34.2548469 19.5266419,32.9932976 C18.1883452,31.7317482 17.1144196,30.2736157 16.3048327,28.6188561 C15.4952458,26.9640966 15.0904585,25.0062669 15.0904585,22.7453083 C15.0904585,20.6154198 15.5448116,18.6493983 16.4535316,16.847185 C17.3622515,15.0449716 18.6179185,13.488538 20.22057,12.1778374 C21.8232216,10.8671367 23.7397658,9.84316723 25.9702602,9.10589812 C28.2007546,8.36862902 30.6377398,8 33.2812887,8 C35.0326399,8 36.6848332,8.12287634 38.2379182,8.36863271 C39.7910032,8.61438908 41.3027601,9.08951092 42.7732342,9.79401251 C44.2437083,10.4985141 45.7141603,11.4897166 47.1846344,12.7676497 C48.6551086,14.0455828 50.1833874,15.716701 51.7695167,17.7810545 L47.9033457,21.2216265 C45.8876397,17.9448749 43.6323958,15.5037316 41.1375465,13.8981233 C38.6426971,12.2925151 35.974405,11.489723 33.1325898,11.489723 C31.6455936,11.489723 30.2742731,11.6781334 29.0185874,12.0549598 C27.7629016,12.4317862 26.688976,12.9396751 25.7967782,13.5786416 C24.9045804,14.2176082 24.2106592,14.963058 23.7149938,15.8150134 C23.2193284,16.6669688 22.9714994,17.568062 22.9714994,18.5183199 C22.9714994,20.0911607 23.4175916,21.4673757 24.3097893,22.6470063 C25.2019871,23.8266368 26.3750444,24.8915651 27.8289963,25.8418231 C29.2829482,26.792081 30.9351415,27.6685989 32.7856258,28.471403 C34.63611,29.2742072 36.5361323,30.0933828 38.4857497,30.9289544 C40.435367,31.7645261 42.3353893,32.6574275 44.1858736,33.6076854 C46.0363579,34.5579434 47.6885512,35.6638305 49.1425031,36.9253798 C50.596455,38.1869292 51.7695123,39.6450617 52.66171,41.2998213 C53.5539078,42.9545808 54,44.8796435 54,47.075067 C54,49.3032581 53.5786907,51.3921559 52.7360595,53.3418231 C51.8934283,55.2914902 50.6295004,56.978992 48.9442379,58.4043789 C47.2589755,59.8297658 45.1359071,60.9520364 42.574969,61.7712243 C40.014031,62.5904122 37.0318221,63 33.6282528,63 C32.0751678,63 30.4808012,62.8771237 28.8451053,62.6313673 C27.2094094,62.3856109 25.5572161,61.9104891 23.8884758,61.2059875 C22.2197356,60.5014859 20.5510203,59.5102834 18.88228,58.2323503 C17.2135398,56.9544172 15.5861294,55.283299 14,53.2189455 L18.3122677,49.3360143 C19.6009978,51.1382277 20.8401428,52.670086 22.0297398,53.9316354 C23.2193368,55.1931847 24.417177,56.225346 25.6232962,57.0281501 C26.8294154,57.8309543 28.0850823,58.4207607 29.3903346,58.7975871 C30.6955869,59.1744136 32.1082121,59.3628239 33.6282528,59.3628239 L37.6431227,58.6992851 Z" sketch:type="MSShapeGroup"></path>
            </g>
        </g>
    </g>
</svg>