<?xml version="1.0" encoding="UTF-8" standalone="no"?>
<svg width="1024px" height="768px" viewBox="0 0 1024 768" version="1.1" xmlns="http://www.w3.org/2000/svg" xmlns:xlink="http://www.w3.org/1999/xlink" xmlns:sketch="http://www.bohemiancoding.com/sketch/ns">
    <!-- Generator: Sketch 3.0.3 (7892) - http://www.bohemiancoding.com/sketch -->
    <title>Components/01-Buttons</title>
    <desc>Created with Sketch.</desc>
    <defs>
        <rect id="path-1" x="0" y="0" width="61" height="28" rx="4"></rect>
        <linearGradient x1="50%" y1="1.96508291%" x2="50%" y2="100%" id="linearGradient-2">
            <stop stop-color="#F66300" offset="0%"></stop>
            <stop stop-color="#BB4C00" offset="98.3139349%"></stop>
        </linearGradient>
        <linearGradient x1="50%" y1="1.96508291%" x2="50%" y2="100%" id="linearGradient-3">
            <stop stop-color="#F66300" offset="0%"></stop>
            <stop stop-color="#BB4C00" offset="100%"></stop>
        </linearGradient>
        <filter x="-50%" y="-50%" width="200%" height="200%" filterUnits="objectBoundingBox" id="filter-4">
            <feOffset dx="0" dy="1" in="SourceAlpha" result="shadowOffsetInner1"></feOffset>
            <feGaussianBlur stdDeviation="1.5" in="shadowOffsetInner1" result="shadowBlurInner1"></feGaussianBlur>
            <feComposite in="shadowBlurInner1" in2="SourceAlpha" operator="arithmetic" k2="-1" k3="1" result="shadowInnerInner1"></feComposite>
            <feColorMatrix values="0 0 0 0 0.501248937   0 0 0 0 0.253900591   0 0 0 0 0.0873190521  0 0 0 0.7 0" in="shadowInnerInner1" type="matrix" result="shadowMatrixInner1"></feColorMatrix>
            <feMerge>
                <feMergeNode in="SourceGraphic"></feMergeNode>
                <feMergeNode in="shadowMatrixInner1"></feMergeNode>
            </feMerge>
        </filter>
        <filter x="-50%" y="-50%" width="200%" height="200%" filterUnits="objectBoundingBox" id="filter-5">
            <feOffset dx="0" dy="1" in="SourceAlpha" result="shadowOffsetOuter1"></feOffset>
            <feGaussianBlur stdDeviation="1" in="shadowOffsetOuter1" result="shadowBlurOuter1"></feGaussianBlur>
            <feColorMatrix values="0 0 0 0 0   0 0 0 0 0   0 0 0 0 0  0 0 0 0.7 0" in="shadowBlurOuter1" type="matrix" result="shadowMatrixOuter1"></feColorMatrix>
            <feMerge>
                <feMergeNode in="shadowMatrixOuter1"></feMergeNode>
                <feMergeNode in="SourceGraphic"></feMergeNode>
            </feMerge>
        </filter>
        <filter x="-50%" y="-50%" width="200%" height="200%" filterUnits="objectBoundingBox" id="filter-6">
            <feOffset dx="0" dy="1" in="SourceAlpha" result="shadowOffsetInner1"></feOffset>
            <feGaussianBlur stdDeviation="1.5" in="shadowOffsetInner1" result="shadowBlurInner1"></feGaussianBlur>
            <feComposite in="shadowBlurInner1" in2="SourceAlpha" operator="arithmetic" k2="-1" k3="1" result="shadowInnerInner1"></feComposite>
            <feColorMatrix values="0 0 0 0 0.501248937   0 0 0 0 0.253900591   0 0 0 0 0.0873190521  0 0 0 0.7 0" in="shadowInnerInner1" type="matrix" result="shadowMatrixInner1"></feColorMatrix>
            <feMerge>
                <feMergeNode in="SourceGraphic"></feMergeNode>
                <feMergeNode in="shadowMatrixInner1"></feMergeNode>
            </feMerge>
        </filter>
        <filter x="-50%" y="-50%" width="200%" height="200%" filterUnits="objectBoundingBox" id="filter-7">
            <feOffset dx="0" dy="1" in="SourceAlpha" result="shadowOffsetOuter1"></feOffset>
            <feGaussianBlur stdDeviation="1" in="shadowOffsetOuter1" result="shadowBlurOuter1"></feGaussianBlur>
            <feColorMatrix values="0 0 0 0 0   0 0 0 0 0   0 0 0 0 0  0 0 0 0.7 0" in="shadowBlurOuter1" type="matrix" result="shadowMatrixOuter1"></feColorMatrix>
            <feMerge>
                <feMergeNode in="shadowMatrixOuter1"></feMergeNode>
                <feMergeNode in="SourceGraphic"></feMergeNode>
            </feMerge>
        </filter>
        <filter x="-50%" y="-50%" width="200%" height="200%" filterUnits="objectBoundingBox" id="filter-8">
            <feOffset dx="0" dy="1" in="SourceAlpha" result="shadowOffsetInner1"></feOffset>
            <feGaussianBlur stdDeviation="1" in="shadowOffsetInner1" result="shadowBlurInner1"></feGaussianBlur>
            <feComposite in="shadowBlurInner1" in2="SourceAlpha" operator="arithmetic" k2="-1" k3="1" result="shadowInnerInner1"></feComposite>
            <feColorMatrix values="0 0 0 0 0.527609481   0 0 0 0 0.526339588   0 0 0 0 0.526339588  0 0 0 0.7 0" in="shadowInnerInner1" type="matrix" result="shadowMatrixInner1"></feColorMatrix>
            <feMerge>
                <feMergeNode in="SourceGraphic"></feMergeNode>
                <feMergeNode in="shadowMatrixInner1"></feMergeNode>
            </feMerge>
        </filter>
        <filter x="-50%" y="-50%" width="200%" height="200%" filterUnits="objectBoundingBox" id="filter-9">
            <feOffset dx="0" dy="1" in="SourceAlpha" result="shadowOffsetInner1"></feOffset>
            <feGaussianBlur stdDeviation="1" in="shadowOffsetInner1" result="shadowBlurInner1"></feGaussianBlur>
            <feComposite in="shadowBlurInner1" in2="SourceAlpha" operator="arithmetic" k2="-1" k3="1" result="shadowInnerInner1"></feComposite>
            <feColorMatrix values="0 0 0 0 0.643840349   0 0 0 0 0.437439165   0 0 0 0 0.301457209  0 0 0 0.7 0" in="shadowInnerInner1" type="matrix" result="shadowMatrixInner1"></feColorMatrix>
            <feMerge>
                <feMergeNode in="SourceGraphic"></feMergeNode>
                <feMergeNode in="shadowMatrixInner1"></feMergeNode>
            </feMerge>
        </filter>
        <filter x="-50%" y="-50%" width="200%" height="200%" filterUnits="objectBoundingBox" id="filter-10">
            <feOffset dx="0" dy="1" in="SourceAlpha" result="shadowOffsetOuter1"></feOffset>
            <feGaussianBlur stdDeviation="1" in="shadowOffsetOuter1" result="shadowBlurOuter1"></feGaussianBlur>
            <feColorMatrix values="0 0 0 0 0   0 0 0 0 0   0 0 0 0 0  0 0 0 0.7 0" in="shadowBlurOuter1" type="matrix" result="shadowMatrixOuter1"></feColorMatrix>
            <feMerge>
                <feMergeNode in="shadowMatrixOuter1"></feMergeNode>
                <feMergeNode in="SourceGraphic"></feMergeNode>
            </feMerge>
        </filter>
        <filter x="-50%" y="-50%" width="200%" height="200%" filterUnits="objectBoundingBox" id="filter-11">
            <feOffset dx="0" dy="1" in="SourceAlpha" result="shadowOffsetOuter1"></feOffset>
            <feGaussianBlur stdDeviation="1" in="shadowOffsetOuter1" result="shadowBlurOuter1"></feGaussianBlur>
            <feColorMatrix values="0 0 0 0 0   0 0 0 0 0   0 0 0 0 0  0 0 0 0.7 0" in="shadowBlurOuter1" type="matrix" result="shadowMatrixOuter1"></feColorMatrix>
            <feMerge>
                <feMergeNode in="shadowMatrixOuter1"></feMergeNode>
                <feMergeNode in="SourceGraphic"></feMergeNode>
            </feMerge>
        </filter>
        <filter x="-50%" y="-50%" width="200%" height="200%" filterUnits="objectBoundingBox" id="filter-12">
            <feOffset dx="0" dy="1" in="SourceAlpha" result="shadowOffsetOuter1"></feOffset>
            <feGaussianBlur stdDeviation="1.5" in="shadowOffsetOuter1" result="shadowBlurOuter1"></feGaussianBlur>
            <feColorMatrix values="0 0 0 0 0   0 0 0 0 0   0 0 0 0 0  0 0 0 0.7 0" in="shadowBlurOuter1" type="matrix" result="shadowMatrixOuter1"></feColorMatrix>
            <feMerge>
                <feMergeNode in="shadowMatrixOuter1"></feMergeNode>
                <feMergeNode in="SourceGraphic"></feMergeNode>
            </feMerge>
        </filter>
        <filter x="-50%" y="-50%" width="200%" height="200%" filterUnits="objectBoundingBox" id="filter-13">
            <feOffset dx="0" dy="1" in="SourceAlpha" result="shadowOffsetOuter1"></feOffset>
            <feGaussianBlur stdDeviation="1.5" in="shadowOffsetOuter1" result="shadowBlurOuter1"></feGaussianBlur>
            <feColorMatrix values="0 0 0 0 0   0 0 0 0 0   0 0 0 0 0  0 0 0 0.7 0" in="shadowBlurOuter1" type="matrix" result="shadowMatrixOuter1"></feColorMatrix>
            <feMerge>
                <feMergeNode in="shadowMatrixOuter1"></feMergeNode>
                <feMergeNode in="SourceGraphic"></feMergeNode>
            </feMerge>
        </filter>
        <filter x="-50%" y="-50%" width="200%" height="200%" filterUnits="objectBoundingBox" id="filter-14">
            <feOffset dx="0" dy="1" in="SourceAlpha" result="shadowOffsetOuter1"></feOffset>
            <feGaussianBlur stdDeviation="1.5" in="shadowOffsetOuter1" result="shadowBlurOuter1"></feGaussianBlur>
            <feColorMatrix values="0 0 0 0 0   0 0 0 0 0   0 0 0 0 0  0 0 0 0.7 0" in="shadowBlurOuter1" type="matrix" result="shadowMatrixOuter1"></feColorMatrix>
            <feMerge>
                <feMergeNode in="shadowMatrixOuter1"></feMergeNode>
                <feMergeNode in="SourceGraphic"></feMergeNode>
            </feMerge>
        </filter>
        <filter x="-50%" y="-50%" width="200%" height="200%" filterUnits="objectBoundingBox" id="filter-15">
            <feOffset dx="0" dy="1" in="SourceAlpha" result="shadowOffsetOuter1"></feOffset>
            <feGaussianBlur stdDeviation="1.5" in="shadowOffsetOuter1" result="shadowBlurOuter1"></feGaussianBlur>
            <feColorMatrix values="0 0 0 0 0   0 0 0 0 0   0 0 0 0 0  0 0 0 0.7 0" in="shadowBlurOuter1" type="matrix" result="shadowMatrixOuter1"></feColorMatrix>
            <feMerge>
                <feMergeNode in="shadowMatrixOuter1"></feMergeNode>
                <feMergeNode in="SourceGraphic"></feMergeNode>
            </feMerge>
        </filter>
    </defs>
    <g id="Composants" stroke="none" stroke-width="1" fill="none" fill-rule="evenodd" sketch:type="MSPage">
        <g id="Components/01-Buttons" sketch:type="MSArtboardGroup">
            <rect id="Rectangle-1" fill="#015173" sketch:type="MSShapeGroup" x="200.691406" y="155" width="772.253906" height="80"></rect>
            <rect id="Rectangle-2" stroke="#F2F2F2" fill="#FFFFFF" sketch:type="MSShapeGroup" x="200.691406" y="235" width="772.253906" height="80"></rect>
            <g id="retour-+-" sketch:type="MSLayerGroup" transform="translate(761.000000, 127.000000)" font-size="12" fill="#FFFFFF" font-weight="normal">
                <text id="retour" sketch:type="MSTextLayer" font-family="Arial">
                    <tspan x="15" y="11">retour</tspan>
                </text>
                <text id="" sketch:type="MSTextLayer" font-family="FontAwesome">
                    <tspan x="0" y="10"></tspan>
                </text>
            </g>
            <g id="Rectangle-5-+-valider" sketch:type="MSLayerGroup" transform="translate(246.000000, 179.000000)">
                <rect id="Rectangle-5" fill="#F76401" sketch:type="MSShapeGroup" x="0" y="0" width="61" height="28" rx="4"></rect>
                <text id="valider" sketch:type="MSTextLayer" font-family="Lato" font-size="14" font-weight="260" sketch:alignment="middle" fill="#FFFFFF">
                    <tspan x="10.6825" y="19">valider</tspan>
                </text>
            </g>
            <g id="Rectangle-5-+-valider-2" sketch:type="MSLayerGroup" transform="translate(246.000000, 260.000000)">
                <rect id="Rectangle-5" fill="#F76401" sketch:type="MSShapeGroup" x="0" y="0" width="61" height="28" rx="4"></rect>
                <text id="valider" sketch:type="MSTextLayer" font-family="Lato" font-size="14" font-weight="260" sketch:alignment="middle" fill="#FFFFFF">
                    <tspan x="10.6825" y="19">valider</tspan>
                </text>
            </g>
            <g id="Rectangle-5-+-valider-5" sketch:type="MSLayerGroup" transform="translate(330.000000, 260.000000)">
                <g id="Rectangle-5">
                    <use fill="none" sketch:type="MSShapeGroup" xlink:href="#path-1"></use>
                    <use fill="#FFB000" fill-rule="evenodd" xlink:href="#path-1"></use>
                </g>
                <text id="valider" sketch:type="MSTextLayer" font-family="Lato" font-size="14" font-weight="260" sketch:alignment="middle" fill="#FFFFFF">
                    <tspan x="10.6825" y="19">valider</tspan>
                </text>
            </g>
            <g id="Rectangle-6-+-annuler-2" sketch:type="MSLayerGroup" transform="translate(541.000000, 260.000000)">
                <rect id="Rectangle-6" stroke="#FEA971" sketch:type="MSShapeGroup" x="0" y="0" width="66" height="28" rx="4"></rect>
                <text id="annuler" sketch:type="MSTextLayer" font-family="Lato" font-size="14" font-weight="260" sketch:alignment="middle" fill="#F76401">
                    <tspan x="10.215" y="18.75">annuler</tspan>
                </text>
            </g>
            <g id="Rectangle-5-+-valider-8" sketch:type="MSLayerGroup" transform="translate(330.000000, 179.000000)">
                <rect id="Rectangle-5" fill="url(#linearGradient-2)" sketch:type="MSShapeGroup" x="0" y="0" width="61" height="28" rx="4"></rect>
                <text id="valider" sketch:type="MSTextLayer" font-family="Lato" font-size="14" font-weight="260" sketch:alignment="middle" fill="#FFFFFF">
                    <tspan x="10.6825" y="19">valider</tspan>
                </text>
            </g>
            <g id="Rectangle-5-+-valider-9" sketch:type="MSLayerGroup" transform="translate(414.000000, 179.000000)">
                <rect id="Rectangle-5" fill="url(#linearGradient-3)" filter="url(#filter-4)" sketch:type="MSShapeGroup" x="0" y="0" width="61" height="28" rx="4"></rect>
                <text id="valider" sketch:type="MSTextLayer" font-family="Lato" font-size="14" font-weight="260" sketch:alignment="middle" fill="#FFFFFF">
                    <tspan x="10.6825" y="19">valider</tspan>
                </text>
            </g>
            <g id="Rectangle-6-+-annuler-14" sketch:type="MSLayerGroup" transform="translate(827.000000, 258.000000)">
                <rect id="Rectangle-6" fill="#EEEEEE" sketch:type="MSShapeGroup" x="0" y="0" width="66" height="28" rx="4"></rect>
                <text id="annuler" sketch:type="MSTextLayer" font-family="Lato" font-size="14" font-weight="260" sketch:alignment="middle" fill="#B2B2B2">
                    <tspan x="10.215" y="18.75">annuler</tspan>
                </text>
            </g>
            <g id="Click-2" sketch:type="MSLayerGroup" transform="translate(438.000000, 201.000000)" stroke="#000000" filter="url(#filter-5)" fill="#FFFFFF">
                <path d="M4.99975564,14 C4.99975564,14 2.7939921,12.3012618 2.01797716,11 C1.24196223,9.69873817 -0.228546798,8.04100945 0.0301248696,7 C0.288796515,5.95899054 1.24196223,5.63091493 2.01797724,6.41167212 C2.79399229,7.19242921 3.31673914,8.88406944 3.83408253,8.62381703 C4.35142594,8.3635647 3.96341818,5.89116721 3.44607506,4.45977918 C2.92873189,3.0283912 2.38935737,1.74506734e-07 3.44607505,0 C4.50279274,-9.28378237e-08 4.50279254,1 4.99975564,2.5 C5.49671876,3.99999999 5.10871115,5.99999931 5.49671874,6 C5.88472632,6.00000059 6.03279134,5.65063082 6.03279144,5 C6.03279148,4.82318548 6.06724813,4.67374541 6.13720714,4.54985954 C6.32467886,4.21787805 6.76709251,4.06940091 7.48457114,4.06940079 C8.46979199,4.06940079 7.98153424,6.00000009 8.47849734,6 C8.97546044,6 8.97546083,6.04100937 8.97546044,5 C8.97546006,3.95899063 9.43628365,4.06940096 10.4302098,4.06940079 C11.424136,4.06940079 10.942933,5.9999999 11.4602759,6 C11.9776189,6.00000009 11.4602759,5.00000008 11.957239,5 C12.4542021,5 12.9511647,5.15772862 12.9511652,7.5 C12.9511658,9.84227138 13.2302174,9.95899044 12.4542021,11 C11.6781868,12.0410096 10.9633128,13 10.9633128,13 C10.9633128,13 10.9633128,14 10.4302098,14 C9.89710685,14.0000001 9.62213993,12.9999999 8.97546044,13 C8.32878095,13.0000001 7.98153424,14 7.98153424,14 L4.99975564,14 Z M11,12 L11,8 L10,8 L10,12 L11,12 Z M8,11 C8,11.2708838 8.23193359,12 8.5,12 C8.77614237,12 9,11.2754211 9,11 L9,9 C9,8.7291162 8.76806641,8 8.5,8 C8.22385763,8 8,8.72457886 8,9 L8,11 Z M6,11 C6,11.2708838 6.23193359,12 6.5,12 C6.77614237,12 7,11.2754211 7,11 L7,9 C7,8.7291162 6.76806641,8 6.5,8 C6.22385763,8 6,8.72457886 6,9 L6,11 Z" id="Pointer" sketch:type="MSShapeGroup"></path>
            </g>
            <g id="Rectangle-5-+-valider-10" sketch:type="MSLayerGroup" transform="translate(414.000000, 260.000000)">
                <rect id="Rectangle-5" fill="url(#linearGradient-3)" filter="url(#filter-6)" sketch:type="MSShapeGroup" x="0" y="0" width="61" height="28" rx="4"></rect>
                <text id="valider" sketch:type="MSTextLayer" font-family="Lato" font-size="14" font-weight="260" sketch:alignment="middle" fill="#FFFFFF">
                    <tspan x="10.6825" y="19">valider</tspan>
                </text>
            </g>
            <g id="Click-3" sketch:type="MSLayerGroup" transform="translate(438.000000, 282.000000)" stroke="#000000" filter="url(#filter-7)" fill="#FFFFFF">
                <path d="M4.99975564,14 C4.99975564,14 2.7939921,12.3012618 2.01797716,11 C1.24196223,9.69873817 -0.228546798,8.04100945 0.0301248696,7 C0.288796515,5.95899054 1.24196223,5.63091493 2.01797724,6.41167212 C2.79399229,7.19242921 3.31673914,8.88406944 3.83408253,8.62381703 C4.35142594,8.3635647 3.96341818,5.89116721 3.44607506,4.45977918 C2.92873189,3.0283912 2.38935737,1.74506734e-07 3.44607505,0 C4.50279274,-9.28378237e-08 4.50279254,1 4.99975564,2.5 C5.49671876,3.99999999 5.10871115,5.99999931 5.49671874,6 C5.88472632,6.00000059 6.03279134,5.65063082 6.03279144,5 C6.03279148,4.82318548 6.06724813,4.67374541 6.13720714,4.54985954 C6.32467886,4.21787805 6.76709251,4.06940091 7.48457114,4.06940079 C8.46979199,4.06940079 7.98153424,6.00000009 8.47849734,6 C8.97546044,6 8.97546083,6.04100937 8.97546044,5 C8.97546006,3.95899063 9.43628365,4.06940096 10.4302098,4.06940079 C11.424136,4.06940079 10.942933,5.9999999 11.4602759,6 C11.9776189,6.00000009 11.4602759,5.00000008 11.957239,5 C12.4542021,5 12.9511647,5.15772862 12.9511652,7.5 C12.9511658,9.84227138 13.2302174,9.95899044 12.4542021,11 C11.6781868,12.0410096 10.9633128,13 10.9633128,13 C10.9633128,13 10.9633128,14 10.4302098,14 C9.89710685,14.0000001 9.62213993,12.9999999 8.97546044,13 C8.32878095,13.0000001 7.98153424,14 7.98153424,14 L4.99975564,14 Z M11,12 L11,8 L10,8 L10,12 L11,12 Z M8,11 C8,11.2708838 8.23193359,12 8.5,12 C8.77614237,12 9,11.2754211 9,11 L9,9 C9,8.7291162 8.76806641,8 8.5,8 C8.22385763,8 8,8.72457886 8,9 L8,11 Z M6,11 C6,11.2708838 6.23193359,12 6.5,12 C6.77614237,12 7,11.2754211 7,11 L7,9 C7,8.7291162 6.76806641,8 6.5,8 C6.22385763,8 6,8.72457886 6,9 L6,11 Z" id="Pointer" sketch:type="MSShapeGroup"></path>
            </g>
            <g id="Rectangle-6-+-annuler-15" sketch:type="MSLayerGroup" transform="translate(827.000000, 183.000000)">
                <rect id="Rectangle-6" fill="#EEEEEE" sketch:type="MSShapeGroup" x="0" y="0" width="66" height="28" rx="4"></rect>
                <text id="annuler" sketch:type="MSTextLayer" font-family="Lato" font-size="14" font-weight="260" sketch:alignment="middle" fill="#B2B2B2">
                    <tspan x="10.215" y="18.75">annuler</tspan>
                </text>
            </g>
            <g id="Rectangle-6-+-annuler-13" sketch:type="MSLayerGroup" transform="translate(541.000000, 181.000000)">
                <rect id="Rectangle-6" stroke="#FFFFFF" sketch:type="MSShapeGroup" x="0" y="0" width="66" height="28" rx="4"></rect>
                <text id="annuler" sketch:type="MSTextLayer" font-family="Lato" font-size="14" font-weight="260" sketch:alignment="middle" fill="#FFFFFF">
                    <tspan x="10.215" y="18.75">annuler</tspan>
                </text>
            </g>
            <g id="Rectangle-6-+-annuler-17" sketch:type="MSLayerGroup" transform="translate(627.000000, 181.000000)">
                <rect id="Rectangle-6" stroke="#FFFFFF" fill="#FFFFFF" sketch:type="MSShapeGroup" x="0" y="0" width="66" height="28" rx="4"></rect>
                <text id="annuler" sketch:type="MSTextLayer" font-family="Lato" font-size="14" font-weight="260" sketch:alignment="middle" fill="#FEA971">
                    <tspan x="10.215" y="18.75">annuler</tspan>
                </text>
            </g>
            <g id="Rectangle-6-+-annuler-18" sketch:type="MSLayerGroup" transform="translate(627.000000, 260.000000)">
                <rect id="Rectangle-6" stroke="#FEA971" fill="#FEA971" sketch:type="MSShapeGroup" x="0" y="0" width="66" height="28" rx="4"></rect>
                <text id="annuler" sketch:type="MSTextLayer" font-family="Lato" font-size="14" font-weight="260" sketch:alignment="middle" fill="#FFFFFF">
                    <tspan x="10.215" y="18.75">annuler</tspan>
                </text>
            </g>
            <g id="Rectangle-6-+-annuler-20" sketch:type="MSLayerGroup" transform="translate(713.000000, 181.000000)">
                <rect id="Rectangle-6" fill="#FFFFFF" filter="url(#filter-8)" sketch:type="MSShapeGroup" x="0" y="0" width="66" height="28" rx="4"></rect>
                <text id="annuler" sketch:type="MSTextLayer" font-family="Lato" font-size="14" font-weight="260" sketch:alignment="middle" fill="#FEA971">
                    <tspan x="10.215" y="18.75">annuler</tspan>
                </text>
            </g>
            <g id="Rectangle-6-+-annuler-19" sketch:type="MSLayerGroup" transform="translate(713.000000, 260.000000)">
                <rect id="Rectangle-6" fill="#FEA971" filter="url(#filter-9)" sketch:type="MSShapeGroup" x="0" y="0" width="66" height="28" rx="4"></rect>
                <text id="annuler" sketch:type="MSTextLayer" font-family="Lato" font-size="14" font-weight="260" sketch:alignment="middle" fill="#FFFFFF">
                    <tspan x="10.215" y="18.75">annuler</tspan>
                </text>
            </g>
            <g id="Click-5" sketch:type="MSLayerGroup" transform="translate(740.000000, 201.000000)" stroke="#000000" filter="url(#filter-10)" fill="#FFFFFF">
                <path d="M4.99975564,14 C4.99975564,14 2.7939921,12.3012618 2.01797716,11 C1.24196223,9.69873817 -0.228546798,8.04100945 0.0301248696,7 C0.288796515,5.95899054 1.24196223,5.63091493 2.01797724,6.41167212 C2.79399229,7.19242921 3.31673914,8.88406944 3.83408253,8.62381703 C4.35142594,8.3635647 3.96341818,5.89116721 3.44607506,4.45977918 C2.92873189,3.0283912 2.38935737,1.74506734e-07 3.44607505,0 C4.50279274,-9.28378237e-08 4.50279254,1 4.99975564,2.5 C5.49671876,3.99999999 5.10871115,5.99999931 5.49671874,6 C5.88472632,6.00000059 6.03279134,5.65063082 6.03279144,5 C6.03279148,4.82318548 6.06724813,4.67374541 6.13720714,4.54985954 C6.32467886,4.21787805 6.76709251,4.06940091 7.48457114,4.06940079 C8.46979199,4.06940079 7.98153424,6.00000009 8.47849734,6 C8.97546044,6 8.97546083,6.04100937 8.97546044,5 C8.97546006,3.95899063 9.43628365,4.06940096 10.4302098,4.06940079 C11.424136,4.06940079 10.942933,5.9999999 11.4602759,6 C11.9776189,6.00000009 11.4602759,5.00000008 11.957239,5 C12.4542021,5 12.9511647,5.15772862 12.9511652,7.5 C12.9511658,9.84227138 13.2302174,9.95899044 12.4542021,11 C11.6781868,12.0410096 10.9633128,13 10.9633128,13 C10.9633128,13 10.9633128,14 10.4302098,14 C9.89710685,14.0000001 9.62213993,12.9999999 8.97546044,13 C8.32878095,13.0000001 7.98153424,14 7.98153424,14 L4.99975564,14 Z M11,12 L11,8 L10,8 L10,12 L11,12 Z M8,11 C8,11.2708838 8.23193359,12 8.5,12 C8.77614237,12 9,11.2754211 9,11 L9,9 C9,8.7291162 8.76806641,8 8.5,8 C8.22385763,8 8,8.72457886 8,9 L8,11 Z M6,11 C6,11.2708838 6.23193359,12 6.5,12 C6.77614237,12 7,11.2754211 7,11 L7,9 C7,8.7291162 6.76806641,8 6.5,8 C6.22385763,8 6,8.72457886 6,9 L6,11 Z" id="Pointer" sketch:type="MSShapeGroup"></path>
            </g>
            <g id="Click-4" sketch:type="MSLayerGroup" transform="translate(740.000000, 282.000000)" stroke="#000000" filter="url(#filter-11)" fill="#FFFFFF">
                <path d="M4.99975564,14 C4.99975564,14 2.7939921,12.3012618 2.01797716,11 C1.24196223,9.69873817 -0.228546798,8.04100945 0.0301248696,7 C0.288796515,5.95899054 1.24196223,5.63091493 2.01797724,6.41167212 C2.79399229,7.19242921 3.31673914,8.88406944 3.83408253,8.62381703 C4.35142594,8.3635647 3.96341818,5.89116721 3.44607506,4.45977918 C2.92873189,3.0283912 2.38935737,1.74506734e-07 3.44607505,0 C4.50279274,-9.28378237e-08 4.50279254,1 4.99975564,2.5 C5.49671876,3.99999999 5.10871115,5.99999931 5.49671874,6 C5.88472632,6.00000059 6.03279134,5.65063082 6.03279144,5 C6.03279148,4.82318548 6.06724813,4.67374541 6.13720714,4.54985954 C6.32467886,4.21787805 6.76709251,4.06940091 7.48457114,4.06940079 C8.46979199,4.06940079 7.98153424,6.00000009 8.47849734,6 C8.97546044,6 8.97546083,6.04100937 8.97546044,5 C8.97546006,3.95899063 9.43628365,4.06940096 10.4302098,4.06940079 C11.424136,4.06940079 10.942933,5.9999999 11.4602759,6 C11.9776189,6.00000009 11.4602759,5.00000008 11.957239,5 C12.4542021,5 12.9511647,5.15772862 12.9511652,7.5 C12.9511658,9.84227138 13.2302174,9.95899044 12.4542021,11 C11.6781868,12.0410096 10.9633128,13 10.9633128,13 C10.9633128,13 10.9633128,14 10.4302098,14 C9.89710685,14.0000001 9.62213993,12.9999999 8.97546044,13 C8.32878095,13.0000001 7.98153424,14 7.98153424,14 L4.99975564,14 Z M11,12 L11,8 L10,8 L10,12 L11,12 Z M8,11 C8,11.2708838 8.23193359,12 8.5,12 C8.77614237,12 9,11.2754211 9,11 L9,9 C9,8.7291162 8.76806641,8 8.5,8 C8.22385763,8 8,8.72457886 8,9 L8,11 Z M6,11 C6,11.2708838 6.23193359,12 6.5,12 C6.77614237,12 7,11.2754211 7,11 L7,9 C7,8.7291162 6.76806641,8 6.5,8 C6.22385763,8 6,8.72457886 6,9 L6,11 Z" id="Pointer" sketch:type="MSShapeGroup"></path>
            </g>
            <g id="Rollover-3" sketch:type="MSLayerGroup" transform="translate(660.000000, 201.000000)" stroke="#FFFFFF" filter="url(#filter-12)" fill="#000000">
                <path d="M0,0 L0,12 L3,9 L5.5,14 L6.5,14 C6.5,14 7.14566022,13.3495845 7,13 C6.31232691,11.3495845 4.5,8 4.5,8 L8,8 L0,0 Z" id="Default" sketch:type="MSShapeGroup"></path>
            </g>
            <g id="Rollover-4" sketch:type="MSLayerGroup" transform="translate(660.000000, 281.000000)" stroke="#FFFFFF" filter="url(#filter-13)" fill="#000000">
                <path d="M0,0 L0,12 L3,9 L5.5,14 L6.5,14 C6.5,14 7.14566022,13.3495845 7,13 C6.31232691,11.3495845 4.5,8 4.5,8 L8,8 L0,0 Z" id="Default" sketch:type="MSShapeGroup"></path>
            </g>
            <g id="Rollover-6" sketch:type="MSLayerGroup" transform="translate(361.000000, 201.000000)" stroke="#FFFFFF" filter="url(#filter-14)" fill="#000000">
                <path d="M0,0 L0,12 L3,9 L5.5,14 L6.5,14 C6.5,14 7.14566022,13.3495845 7,13 C6.31232691,11.3495845 4.5,8 4.5,8 L8,8 L0,0 Z" id="Default" sketch:type="MSShapeGroup"></path>
            </g>
            <g id="Rollover-5" sketch:type="MSLayerGroup" transform="translate(361.000000, 281.000000)" stroke="#FFFFFF" filter="url(#filter-15)" fill="#000000">
                <path d="M0,0 L0,12 L3,9 L5.5,14 L6.5,14 C6.5,14 7.14566022,13.3495845 7,13 C6.31232691,11.3495845 4.5,8 4.5,8 L8,8 L0,0 Z" id="Default" sketch:type="MSShapeGroup"></path>
            </g>
            <g id="Titre" sketch:type="MSLayerGroup" transform="translate(0.000000, 21.000000)">
                <text id="Buttons-" sketch:type="MSTextLayer" font-family="Lato" font-size="30" font-weight="normal" fill="#015173">
                    <tspan x="30" y="30">Buttons </tspan>
                </text>
                <path d="M0,57.5 L1023.56146,57.5" id="Line" stroke="#015173" stroke-linecap="square" sketch:type="MSShapeGroup"></path>
            </g>
            <text id="Primary-button" sketch:type="MSTextLayer" font-family="Lato" font-size="20" font-weight="normal" fill="#333333">
                <tspan x="234" y="137">Primary button</tspan>
            </text>
            <text id="Small" sketch:type="MSTextLayer" font-family="Lato" font-size="20" font-weight="normal" fill="#333333">
                <tspan x="75" y="231">Small</tspan>
                <tspan x="75" y="255">28px</tspan>
            </text>
            <text id="Secondary-button" sketch:type="MSTextLayer" font-family="Lato" font-size="20" font-weight="normal" fill="#333333">
                <tspan x="541" y="137">Secondary button</tspan>
            </text>
            <text id="Inactive-button" sketch:type="MSTextLayer" font-family="Lato" font-size="20" font-weight="normal" fill="#333333">
                <tspan x="827" y="137">Inactive button</tspan>
            </text>
            <rect id="Rectangle-4" fill="#015173" sketch:type="MSShapeGroup" x="200.691406" y="336" width="772.253906" height="80"></rect>
            <rect id="Rectangle-3" stroke="#F2F2F2" fill="#FFFFFF" sketch:type="MSShapeGroup" x="200.691406" y="416" width="772.253906" height="80"></rect>
            <g id="Rectangle-5-+-valider-4" sketch:type="MSLayerGroup" transform="translate(234.000000, 360.000000)">
                <rect id="Rectangle-5" fill="#F76401" sketch:type="MSShapeGroup" x="0" y="0" width="86" height="32" rx="4"></rect>
                <text id="valider" sketch:type="MSTextLayer" font-family="Lato" font-size="16" font-weight="260" sketch:alignment="middle" fill="#FFFFFF">
                    <tspan x="19.78" y="22">valider</tspan>
                </text>
            </g>
            <g id="Rectangle-6-+-annuler-8" sketch:type="MSLayerGroup" transform="translate(541.000000, 360.000000)">
                <rect id="Rectangle-6" stroke="#FFFFFF" sketch:type="MSShapeGroup" x="0" y="0" width="92" height="32" rx="4"></rect>
                <text id="annuler" sketch:type="MSTextLayer" font-family="Lato" font-size="16" font-weight="260" sketch:alignment="middle" fill="#FFFFFF">
                    <tspan x="19.96" y="22">annuler</tspan>
                </text>
            </g>
            <g id="Rectangle-5-+-valider-3" sketch:type="MSLayerGroup" transform="translate(234.000000, 439.000000)">
                <rect id="Rectangle-5" fill="#F76401" sketch:type="MSShapeGroup" x="0" y="0" width="86" height="32" rx="4"></rect>
                <text id="valider" sketch:type="MSTextLayer" font-family="Lato" font-size="16" font-weight="260" sketch:alignment="middle" fill="#FFFFFF">
                    <tspan x="19.78" y="22">valider</tspan>
                </text>
            </g>
            <g id="Rectangle-6-+-annuler-7" sketch:type="MSLayerGroup" transform="translate(541.000000, 439.000000)">
                <rect id="Rectangle-6" stroke="#FEA971" sketch:type="MSShapeGroup" x="0" y="0" width="92" height="32" rx="4"></rect>
                <text id="annuler" sketch:type="MSTextLayer" font-family="Lato" font-size="16" font-weight="260" sketch:alignment="middle" fill="#F76401">
                    <tspan x="19.96" y="22">annuler</tspan>
                </text>
            </g>
            <g id="Rectangle-6-+-annuler-6" sketch:type="MSLayerGroup" transform="translate(827.000000, 360.000000)">
                <rect id="Rectangle-6" fill="#F1F1F1" sketch:type="MSShapeGroup" x="0" y="0" width="92" height="32" rx="4"></rect>
                <text id="annuler" sketch:type="MSTextLayer" font-family="Lato" font-size="16" font-weight="260" sketch:alignment="middle" fill="#B2B2B2">
                    <tspan x="19.96" y="22">annuler</tspan>
                </text>
            </g>
            <g id="Rectangle-6-+-annuler-5" sketch:type="MSLayerGroup" transform="translate(827.000000, 439.000000)">
                <rect id="Rectangle-6" fill="#EEEEEE" sketch:type="MSShapeGroup" x="0" y="0" width="92" height="32" rx="4"></rect>
                <text id="annuler" sketch:type="MSTextLayer" font-family="Lato" font-size="16" font-weight="260" sketch:alignment="middle" fill="#B2B2B2">
                    <tspan x="19.96" y="22">annuler</tspan>
                </text>
            </g>
            <text id="Medium" sketch:type="MSTextLayer" font-family="Lato" font-size="20" font-weight="normal" fill="#333333">
                <tspan x="50" y="412">Medium</tspan>
                <tspan x="50" y="436">32px</tspan>
            </text>
            <rect id="Rectangle-8" fill="#015173" sketch:type="MSShapeGroup" x="200.691406" y="513" width="772.253906" height="80"></rect>
            <rect id="Rectangle-7" stroke="#F2F2F2" fill="#FFFFFF" sketch:type="MSShapeGroup" x="200.691406" y="593" width="772.253906" height="80"></rect>
            <g id="Rectangle-6-+-annuler-9" sketch:type="MSLayerGroup" transform="translate(827.000000, 537.000000)">
                <path d="M3.99733833,0 C1.78966933,0 -1.77635684e-15,1.79642476 -1.77635684e-15,4.00002553 L-1.77635684e-15,35.9999745 C-1.77635684e-15,38.2091276 1.78323349,40 3.99733833,40 L100.002662,40 C102.210331,40 104,38.2035752 104,35.9999745 L104,4.00002553 C104,1.79087243 102.216767,0 100.002662,0 L3.99733833,0 Z" id="Rectangle-6" fill="#EEEEEE" sketch:type="MSShapeGroup"></path>
                <text id="annuler" sketch:type="MSTextLayer" font-family="Lato" font-size="20" font-weight="260" sketch:alignment="middle" fill="#B2B2B2">
                    <tspan x="19.45" y="27">annuler</tspan>
                </text>
            </g>
            <g id="Rectangle-6-+-annuler-10" sketch:type="MSLayerGroup" transform="translate(827.000000, 612.000000)">
                <path d="M3.99733833,0 C1.78966933,0 -1.77635684e-15,1.79642476 -1.77635684e-15,4.00002553 L-1.77635684e-15,35.9999745 C-1.77635684e-15,38.2091276 1.78323349,40 3.99733833,40 L100.002662,40 C102.210331,40 104,38.2035752 104,35.9999745 L104,4.00002553 C104,1.79087243 102.216767,0 100.002662,0 L3.99733833,0 Z" id="Rectangle-6" fill="#EEEEEE" sketch:type="MSShapeGroup"></path>
                <text id="annuler" sketch:type="MSTextLayer" font-family="Lato" font-size="20" font-weight="260" sketch:alignment="middle" fill="#B2B2B2">
                    <tspan x="19.45" y="27">annuler</tspan>
                </text>
            </g>
            <g id="Rectangle-5-+-valider-6" sketch:type="MSLayerGroup" transform="translate(227.000000, 537.000000)">
                <rect id="Rectangle-5" fill="#F76401" sketch:type="MSShapeGroup" x="0" y="0" width="99" height="40" rx="4"></rect>
                <text id="valider" sketch:type="MSTextLayer" font-family="Lato" font-size="20" font-weight="260" sketch:alignment="middle" fill="#FFFFFF">
                    <tspan x="20.975" y="28">valider</tspan>
                </text>
            </g>
            <g id="Rectangle-5-+-valider-7" sketch:type="MSLayerGroup" transform="translate(227.000000, 612.000000)">
                <rect id="Rectangle-5" fill="#F76401" sketch:type="MSShapeGroup" x="0" y="0" width="99" height="40" rx="4"></rect>
                <text id="valider" sketch:type="MSTextLayer" font-family="Lato" font-size="20" font-weight="260" sketch:alignment="middle" fill="#FFFFFF">
                    <tspan x="20.975" y="28">valider</tspan>
                </text>
            </g>
            <g id="Rectangle-6-+-annuler-12" sketch:type="MSLayerGroup" transform="translate(541.000000, 537.000000)">
                <rect id="Rectangle-6" stroke="#FFFFFF" sketch:type="MSShapeGroup" x="0" y="0" width="106" height="40" rx="4"></rect>
                <text id="annuler" sketch:type="MSTextLayer" font-family="Lato" font-size="20" font-weight="260" sketch:alignment="middle" fill="#FFFFFF">
                    <tspan x="20.45" y="27">annuler</tspan>
                </text>
            </g>
            <g id="Rectangle-6-+-annuler-16" sketch:type="MSLayerGroup" transform="translate(541.000000, 612.000000)">
                <rect id="Rectangle-6" stroke="#FEA971" sketch:type="MSShapeGroup" x="0" y="0" width="106" height="40" rx="4"></rect>
                <text id="annuler" sketch:type="MSTextLayer" font-family="Lato" font-size="20" font-weight="260" sketch:alignment="middle" fill="#F76401">
                    <tspan x="20.45" y="27">annuler</tspan>
                </text>
            </g>
            <text id="Large" sketch:type="MSTextLayer" font-family="Lato" font-size="20" font-weight="normal" fill="#333333">
                <tspan x="73" y="589">Large</tspan>
                <tspan x="73" y="613">40px</tspan>
            </text>
        </g>
    </g>
</svg>