<?xml version="1.0" encoding="UTF-8" standalone="no"?>
<svg width="1024px" height="768px" viewBox="0 0 1024 768" version="1.1" xmlns="http://www.w3.org/2000/svg" xmlns:xlink="http://www.w3.org/1999/xlink" xmlns:sketch="http://www.bohemiancoding.com/sketch/ns">
    <!-- Generator: Sketch 3.0.4 (8054) - http://www.bohemiancoding.com/sketch -->
    <title>Components/04-Other components</title>
    <desc>Created with Sketch.</desc>
    <defs>
        <filter x="-50%" y="-50%" width="200%" height="200%" filterUnits="objectBoundingBox" id="filter-1">
            <feOffset dx="0" dy="0" in="SourceAlpha" result="shadowOffsetOuter1"></feOffset>
            <feGaussianBlur stdDeviation="2" in="shadowOffsetOuter1" result="shadowBlurOuter1"></feGaussianBlur>
            <feColorMatrix values="0 0 0 0 0.325201956   0 0 0 0 0.325201956   0 0 0 0 0.325201956  0 0 0 0.7 0" in="shadowBlurOuter1" type="matrix" result="shadowMatrixOuter1"></feColorMatrix>
            <feMerge>
                <feMergeNode in="shadowMatrixOuter1"></feMergeNode>
                <feMergeNode in="SourceGraphic"></feMergeNode>
            </feMerge>
        </filter>
        <filter x="-50%" y="-50%" width="200%" height="200%" filterUnits="objectBoundingBox" id="filter-2">
            <feOffset dx="0" dy="1" in="SourceAlpha" result="shadowOffsetOuter1"></feOffset>
            <feGaussianBlur stdDeviation="1.5" in="shadowOffsetOuter1" result="shadowBlurOuter1"></feGaussianBlur>
            <feColorMatrix values="0 0 0 0 0   0 0 0 0 0   0 0 0 0 0  0 0 0 0.7 0" in="shadowBlurOuter1" type="matrix" result="shadowMatrixOuter1"></feColorMatrix>
            <feMerge>
                <feMergeNode in="shadowMatrixOuter1"></feMergeNode>
                <feMergeNode in="SourceGraphic"></feMergeNode>
            </feMerge>
        </filter>
    </defs>
    <g id="Composants" stroke="none" stroke-width="1" fill="none" fill-rule="evenodd" sketch:type="MSPage">
        <g id="Components/04-Other-components" sketch:type="MSArtboardGroup">
            <g id="Titre" sketch:type="MSLayerGroup" transform="translate(0.000000, 21.000000)">
                <text id="Other-components" sketch:type="MSTextLayer" font-family="Lato" font-size="30" font-weight="normal" fill="#015173">
                    <tspan x="30" y="30">Other components</tspan>
                </text>
                <path d="M0,57.5 L1023.56146,57.5" id="Line" stroke="#015173" stroke-linecap="square" sketch:type="MSShapeGroup"></path>
            </g>
            <text id="Horizontal" sketch:type="MSTextLayer" font-family="Lato" font-size="20" font-weight="normal" fill="#585858">
                <tspan x="40" y="138">Horizontal</tspan>
            </text>
            <text id="Used-to-set-a-frame-" sketch:type="MSTextLayer" font-family="Arial" font-size="14" font-weight="normal" fill="#585858">
                <tspan x="40" y="160">Used to set a frame of value (like time, quantity,…)</tspan>
            </text>
            <g id="Ask-Alfred-+-Link-to-the-knowledg-+-alfred*" sketch:type="MSLayerGroup" transform="translate(40.000000, 448.000000)">
                <text id="Ask-Alfred" sketch:type="MSTextLayer" font-family="Lato" font-size="20" font-weight="normal" fill="#585858">
                    <tspan x="0" y="20">Ask Alfred</tspan>
                </text>
                <text id="Link-to-the-knowledg" sketch:type="MSTextLayer" font-family="Arial" font-size="15" font-weight="normal" fill="#585858">
                    <tspan x="0" y="44">Link to the knowledge base</tspan>
                </text>
                <g id="Rectangle-163-+-alfred*" transform="translate(0.000000, 57.000000)">
                    <rect id="Rectangle-163" stroke="#E2E2E2" fill="#FFFFFF" sketch:type="MSShapeGroup" x="0" y="0" width="224" height="72" rx="4"></rect>
                    <g id="alfred*" transform="translate(20.000000, 20.000000)">
                        <g id="Assets/Logo-Alfred" transform="translate(152.000000, 0.000000)" sketch:type="MSShapeGroup">
                            <circle id="Oval-2" stroke="#015173" stroke-width="1.60714286" cx="16" cy="16" r="16"></circle>
                            <path d="M22.7421692,16.7099161 C22.7498156,15.9552572 22.7647059,8.03768085 22.7647059,8.03768085 C22.6081565,7.06819788 19.520633,6.29411765 15.7320581,6.29411765 C11.8481048,6.29411765 8.69981276,7.10822968 8.69981276,8.11140278 C8.69981276,8.14548926 8.70383716,8.17917939 8.71108109,8.21286952 C8.71108109,8.21286952 8.6366296,16.6417431 8.64830038,17.7796768 C8.6366296,20.3534544 9.25035137,22.6366041 9.28335149,22.7222167 C10.0294762,24.8141754 11.5684087,25.6282875 11.9273856,25.8712528 C12.6533883,26.3623359 14.2273331,26.8823529 15.7851802,26.8823529 C15.8403146,26.8823529 15.8942416,26.8811639 15.9485711,26.8799748 C17.5772478,26.8415284 18.8870175,26.6029279 19.7061581,26.1078764 C21.1534427,25.2332026 21.6083176,24.3667095 21.8511476,23.6817014 C22.5928525,21.8903167 22.7647062,19.2222134 22.7421692,16.7099161 Z" id="Path" fill="#015173"></path>
                            <g id="Shape" transform="translate(9.823529, 6.294118)" fill="#F3F3F3">
                                <path d="M10.4254902,0.570927602 L10.3392157,3.34598416 C10.1545098,3.27946833 9.95607843,3.2418552 9.74862745,3.2418552 C9.55921569,3.2418552 9.3772549,3.27234163 9.20588235,3.32816742 L9.20588235,-0.0583838595 C9.20588235,-0.0579879319 10.318558,-0.0451357466 10.5938521,0.230429864 L10.4254902,0.570927602 Z M9.21411765,4.04242081 C9.37529412,3.96165158 9.55647059,3.91493213 9.74862745,3.91493213 C9.95294118,3.91493213 10.1454902,3.96640271 10.3145098,4.05746606 C10.6960784,4.26255656 10.9568627,4.66838235 10.9568627,5.13478507 C10.9568627,5.80786199 10.414902,6.35542986 9.74862745,6.35542986 C9.08235294,6.35542986 8.53960784,5.80786199 8.53960784,5.13478507 C8.53960784,4.6561086 8.81529412,4.24196833 9.21411765,4.04242081 L9.21411765,4.04242081 Z M11.6756861,14.6333235 C11.5768626,15.2161289 11.3788853,15.9596187 11.0517647,16.8221719 C10.762485,17.5849463 10.1963659,18.2515276 9.15568627,18.9197964 C8.41066413,19.3982097 7.31843137,19.4879525 6.09098039,19.518043 C6.04588235,19.5196267 6.00117647,19.5196267 5.95686275,19.5196267 C4.68313725,19.5196267 3.37529412,19.0896493 2.79176471,18.6846154 C2.75803922,18.6612557 2.71607843,18.6331448 2.6654902,18.6002828 C2.25529412,18.3338235 1.16470588,17.6274887 0.615294118,16.0485294 C0.607843137,16.0271493 0.184705882,14.6829751 0.101960784,12.7567873 C0.0380392157,11.2811652 0.129411765,8.89411765 0.191764706,7.58716063 C1.41803922,7.09541855 3.52156863,6.77154977 5.91098039,6.77154977 C8.31058824,6.77154977 10.4207843,7.09858597 11.645098,7.59309955 C11.6682353,8.43959276 11.685098,9.79881222 11.6756863,10.66431 C11.6486275,11.779638 11.6756861,14.1147801 11.6756861,14.6333235 Z M3.33333333,11.4819005 C3.874789,11.4819005 4.31372549,11.0387434 4.31372549,10.4920814 C4.31372549,9.94541948 3.874789,9.50226244 3.33333333,9.50226244 C2.79187767,9.50226244 2.35294118,9.94541948 2.35294118,10.4920814 C2.35294118,11.0387434 2.79187767,11.4819005 3.33333333,11.4819005 Z M8.82352941,11.4819005 C9.36498508,11.4819005 9.80392157,11.0387434 9.80392157,10.4920814 C9.80392157,9.94541948 9.36498508,9.50226244 8.82352941,9.50226244 C8.28207375,9.50226244 7.84313725,9.94541948 7.84313725,10.4920814 C7.84313725,11.0387434 8.28207375,11.4819005 8.82352941,11.4819005 Z M6.07843137,16.6289593 C8.1359629,16.6289593 9.80392157,14.9088447 9.80392157,13.8456466 C9.80392157,12.7824484 8.1359629,14.2637164 6.07843137,14.2637164 C4.02089985,14.2637164 2.35294118,12.7824484 2.35294118,13.8456466 C2.35294118,14.9088447 4.02089985,16.6289593 6.07843137,16.6289593 Z"></path>
                            </g>
                        </g>
                        <text id="Need-any-help-?" sketch:type="MSTextLayer" font-family="Arial" font-size="12" font-weight="normal" sketch:alignment="right" fill="#939393">
                            <tspan x="55.6015625" y="14">Need any help ?</tspan>
                            <tspan x="0.25390625" y="28">Ask your question to Alfred</tspan>
                        </text>
                    </g>
                </g>
            </g>
            <g id="Rectangle-163-+-Group-7-+-Group" sketch:type="MSLayerGroup" transform="translate(40.000000, 174.000000)">
                <rect id="Rectangle-163" stroke="#E2E2E2" fill="#FFFFFF" sketch:type="MSShapeGroup" x="0" y="0" width="580" height="234" rx="4"></rect>
                <g id="Group-7" transform="translate(19.000000, 137.000000)">
                    <g id="Rectangle-128-+-Rectangle-129-+-Comp/Grip" transform="translate(1.000000, 37.000000)" sketch:type="MSShapeGroup">
                        <rect id="Rectangle-128" fill="#F3F3F3" x="0" y="0" width="540" height="15" rx="40"></rect>
                        <rect id="Rectangle-129" fill="#54578F" x="0" y="0" width="398" height="15" rx="40"></rect>
                    </g>
                    <g id="Comp/Grip-2" transform="translate(391.000000, 25.000000)" sketch:type="MSShapeGroup">
                        <rect id="Rectangle-23" fill="#FF8328" transform="translate(8.000000, 19.000000) scale(-1, 1) translate(-8.000000, -19.000000) " x="0" y="0" width="16" height="38" rx="22"></rect>
                        <g id="Group" transform="translate(5.000000, 14.000000)" fill="#000000" fill-opacity="0.5">
                            <path d="M4.875,2.30769231 C5.49632034,2.30769231 6,1.79109779 6,1.15384615 C6,0.516594519 5.49632034,0 4.875,0 C4.25367966,0 3.75,0.516594519 3.75,1.15384615 C3.75,1.79109779 4.25367966,2.30769231 4.875,2.30769231 Z" id="Oval-11"></path>
                            <ellipse id="Oval-10" cx="4.875" cy="5" rx="1.125" ry="1.15384615"></ellipse>
                            <ellipse id="Oval-9" cx="4.875" cy="8.84615385" rx="1.125" ry="1.15384615"></ellipse>
                            <ellipse id="Oval-8" cx="1.125" cy="1.15384615" rx="1.125" ry="1.15384615"></ellipse>
                            <ellipse id="Oval-7" cx="1.125" cy="5" rx="1.125" ry="1.15384615"></ellipse>
                            <ellipse id="Oval-6" cx="1.125" cy="8.84615385" rx="1.125" ry="1.15384615"></ellipse>
                        </g>
                    </g>
                    <g id="Comp/Grip-3" transform="translate(0.000000, 25.000000)" sketch:type="MSShapeGroup">
                        <rect id="Rectangle-23" fill="#FF8328" transform="translate(8.000000, 19.000000) scale(-1, 1) translate(-8.000000, -19.000000) " x="0" y="0" width="16" height="38" rx="22"></rect>
                        <g id="Group" transform="translate(5.000000, 14.000000)" fill="#000000" fill-opacity="0.5">
                            <path d="M4.875,2.30769231 C5.49632034,2.30769231 6,1.79109779 6,1.15384615 C6,0.516594519 5.49632034,0 4.875,0 C4.25367966,0 3.75,0.516594519 3.75,1.15384615 C3.75,1.79109779 4.25367966,2.30769231 4.875,2.30769231 Z" id="Oval-11"></path>
                            <ellipse id="Oval-10" cx="4.875" cy="5" rx="1.125" ry="1.15384615"></ellipse>
                            <ellipse id="Oval-9" cx="4.875" cy="8.84615385" rx="1.125" ry="1.15384615"></ellipse>
                            <ellipse id="Oval-8" cx="1.125" cy="1.15384615" rx="1.125" ry="1.15384615"></ellipse>
                            <ellipse id="Oval-7" cx="1.125" cy="5" rx="1.125" ry="1.15384615"></ellipse>
                            <ellipse id="Oval-6" cx="1.125" cy="8.84615385" rx="1.125" ry="1.15384615"></ellipse>
                        </g>
                    </g>
                    <text id="00:00" sketch:type="MSTextLayer" font-family="Arial" font-size="12" font-weight="normal" fill="#939393">
                        <tspan x="1" y="74">00:00</tspan>
                    </text>
                    <text id="12:00" sketch:type="MSTextLayer" font-family="Arial" font-size="12" font-weight="normal" fill="#939393">
                        <tspan x="255" y="74">12:00</tspan>
                    </text>
                    <text id="06:00" opacity="0.8" sketch:type="MSTextLayer" font-family="Arial" font-size="12" font-weight="normal" fill="#939393">
                        <tspan x="128" y="74">06:00</tspan>
                    </text>
                    <text id="18:00" opacity="0.8" sketch:type="MSTextLayer" font-family="Arial" font-size="12" font-weight="normal" fill="#939393">
                        <tspan x="382" y="74">18:00</tspan>
                    </text>
                    <text id="23:59" sketch:type="MSTextLayer" font-family="Arial" font-size="12" font-weight="normal" fill="#939393">
                        <tspan x="510" y="74">23:59</tspan>
                    </text>
                    <text id="Lobby’s-opening-hour" sketch:type="MSTextLayer" font-family="Arial" font-size="16" font-weight="normal" fill="#585858">
                        <tspan x="1" y="14">Lobby’s opening hours</tspan>
                    </text>
                    <text id="00:00---18:00" sketch:type="MSTextLayer" font-family="Arial" font-size="14" font-weight="normal" sketch:alignment="right" fill="#54578F">
                        <tspan x="188.490234" y="14">00:00 - 18:00</tspan>
                    </text>
                </g>
                <g id="Group" transform="translate(20.000000, 20.000000)">
                    <g id="Rectangle-128-+-Rectangle-129-+-Comp/Grip" transform="translate(0.000000, 26.000000)" sketch:type="MSShapeGroup">
                        <rect id="Rectangle-128" fill="#F3F3F3" x="0" y="11" width="540" height="15" rx="40"></rect>
                        <rect id="Rectangle-129" fill="#54578F" x="0" y="11" width="219" height="15" rx="40"></rect>
                        <g id="Comp/Grip" transform="translate(211.000000, 0.000000)">
                            <rect id="Rectangle-23" fill="#FF8328" transform="translate(8.000000, 19.000000) scale(-1, 1) translate(-8.000000, -19.000000) " x="0" y="0" width="16" height="38" rx="22"></rect>
                            <g id="Group" transform="translate(5.000000, 14.000000)" fill="#000000" fill-opacity="0.5">
                                <path d="M4.875,2.30769231 C5.49632034,2.30769231 6,1.79109779 6,1.15384615 C6,0.516594519 5.49632034,0 4.875,0 C4.25367966,0 3.75,0.516594519 3.75,1.15384615 C3.75,1.79109779 4.25367966,2.30769231 4.875,2.30769231 Z" id="Oval-11"></path>
                                <ellipse id="Oval-10" cx="4.875" cy="5" rx="1.125" ry="1.15384615"></ellipse>
                                <ellipse id="Oval-9" cx="4.875" cy="8.84615385" rx="1.125" ry="1.15384615"></ellipse>
                                <ellipse id="Oval-8" cx="1.125" cy="1.15384615" rx="1.125" ry="1.15384615"></ellipse>
                                <ellipse id="Oval-7" cx="1.125" cy="5" rx="1.125" ry="1.15384615"></ellipse>
                                <ellipse id="Oval-6" cx="1.125" cy="8.84615385" rx="1.125" ry="1.15384615"></ellipse>
                            </g>
                        </g>
                    </g>
                    <text id="00:00" sketch:type="MSTextLayer" font-family="Arial" font-size="12" font-weight="normal" fill="#939393">
                        <tspan x="0" y="74">00:00</tspan>
                    </text>
                    <text id="12:00" sketch:type="MSTextLayer" font-family="Arial" font-size="12" font-weight="normal" fill="#939393">
                        <tspan x="254" y="74">12:00</tspan>
                    </text>
                    <text id="06:00" opacity="0.8" sketch:type="MSTextLayer" font-family="Arial" font-size="12" font-weight="normal" fill="#939393">
                        <tspan x="127" y="74">06:00</tspan>
                    </text>
                    <text id="18:00" opacity="0.8" sketch:type="MSTextLayer" font-family="Arial" font-size="12" font-weight="normal" fill="#939393">
                        <tspan x="381" y="74">18:00</tspan>
                    </text>
                    <text id="23:59" sketch:type="MSTextLayer" font-family="Arial" font-size="12" font-weight="normal" fill="#939393">
                        <tspan x="509" y="74">23:59</tspan>
                    </text>
                    <text id="Check-out-time" sketch:type="MSTextLayer" font-family="Arial" font-size="16" font-weight="normal" fill="#585858">
                        <tspan x="0" y="14">Check-out time</tspan>
                    </text>
                    <text id="before" sketch:type="MSTextLayer" font-family="Arial" font-size="12" font-weight="normal" sketch:alignment="right" fill="#939393">
                        <tspan x="116.974609" y="14">before</tspan>
                    </text>
                    <text id="11:00" sketch:type="MSTextLayer" font-family="Arial" font-size="14" font-weight="normal" sketch:alignment="right" fill="#54578F">
                        <tspan x="156.004883" y="14">11:00</tspan>
                    </text>
                </g>
            </g>
            <g id="Group-+-Vertical-Slider" sketch:type="MSLayerGroup" transform="translate(674.000000, 117.000000)">
                <g id="Rectangle-163-+-Group" transform="translate(0.000000, 56.000000)">
                    <rect id="Rectangle-163" stroke="#E2E2E2" fill="#FFFFFF" sketch:type="MSShapeGroup" x="0" y="0" width="143" height="152" rx="4"></rect>
                    <g id="Group" transform="translate(20.000000, 20.000000)">
                        <text id="Days" sketch:type="MSTextLayer" font-family="Arial" font-size="14" font-weight="normal">
                            <tspan x="48" y="23" fill="#F76401">Days</tspan>
                            <tspan x="79.8964844" y="23" fill="#585858"></tspan>
                            <tspan x="48" y="49" fill="#585858">Weeks</tspan>
                            <tspan x="48" y="75" fill="#585858">Months</tspan>
                            <tspan x="48" y="101" fill="#585858">Quarters</tspan>
                        </text>
                        <rect id="Rectangle-42" fill="#E2E2E2" sketch:type="MSShapeGroup" x="13" y="0" width="15" height="112" rx="40"></rect>
                        <g id="Comp/Grip-2" transform="translate(0.000000, 10.000000)" sketch:type="MSShapeGroup">
                            <path d="M13.0007413,0 C8.58205387,0 3.10258497,3.03586404 0.759392381,6.78497219 L0.535087585,7.14385986 C0.239566872,7.616693 0.241160393,8.38585663 0.535087585,8.85614014 L0.759392381,9.21502781 C3.1014153,12.9622645 8.58343124,16 13.0007413,16 L32.9992587,16 C37.4179461,16 41,12.4092877 41,8 L41,8 C41,3.581722 37.4165688,0 32.9992587,0 L13.0007413,0 Z" id="Rectangle-23" fill="#FF8328" transform="translate(20.500000, 8.000000) scale(-1, 1) translate(-20.500000, -8.000000) "></path>
                            <g id="Group" transform="translate(19.000000, 8.000000) rotate(-90.000000) translate(-19.000000, -8.000000) translate(16.000000, 3.000000)" fill="#B34D02">
                                <ellipse id="Oval-11" cx="4.875" cy="1.15384615" rx="1.125" ry="1.15384615"></ellipse>
                                <ellipse id="Oval-10" cx="4.875" cy="5" rx="1.125" ry="1.15384615"></ellipse>
                                <ellipse id="Oval-9" cx="4.875" cy="8.84615385" rx="1.125" ry="1.15384615"></ellipse>
                                <ellipse id="Oval-8" cx="1.125" cy="1.15384615" rx="1.125" ry="1.15384615"></ellipse>
                                <ellipse id="Oval-7" cx="1.125" cy="5" rx="1.125" ry="1.15384615"></ellipse>
                                <ellipse id="Oval-6" cx="1.125" cy="8.84615385" rx="1.125" ry="1.15384615"></ellipse>
                            </g>
                        </g>
                        <text id="Days" sketch:type="MSTextLayer" font-family="Arial" font-size="14" font-weight="normal">
                            <tspan x="48" y="23" fill="#F76401">Days</tspan>
                            <tspan x="79.8964844" y="23" fill="#585858"></tspan>
                            <tspan x="48" y="49" fill="#585858">Weeks</tspan>
                            <tspan x="48" y="75" fill="#585858">Months</tspan>
                            <tspan x="48" y="101" fill="#585858">Quarters</tspan>
                        </text>
                        <rect id="Rectangle-42" fill="#E2E2E2" sketch:type="MSShapeGroup" x="13" y="0" width="15" height="112" rx="40"></rect>
                        <g id="Comp/Grip-2" transform="translate(0.000000, 10.000000)" sketch:type="MSShapeGroup">
                            <path d="M13.0007413,0 C8.58205387,0 3.10258497,3.03586404 0.759392381,6.78497219 L0.535087585,7.14385986 C0.239566872,7.616693 0.241160393,8.38585663 0.535087585,8.85614014 L0.759392381,9.21502781 C3.1014153,12.9622645 8.58343124,16 13.0007413,16 L32.9992587,16 C37.4179461,16 41,12.4092877 41,8 L41,8 C41,3.581722 37.4165688,0 32.9992587,0 L13.0007413,0 Z" id="Rectangle-23" fill="#FF8328" transform="translate(20.500000, 8.000000) scale(-1, 1) translate(-20.500000, -8.000000) "></path>
                            <g id="Group" transform="translate(19.000000, 8.000000) rotate(-90.000000) translate(-19.000000, -8.000000) translate(16.000000, 3.000000)" fill="#B34D02">
                                <ellipse id="Oval-11" cx="4.875" cy="1.15384615" rx="1.125" ry="1.15384615"></ellipse>
                                <ellipse id="Oval-10" cx="4.875" cy="5" rx="1.125" ry="1.15384615"></ellipse>
                                <ellipse id="Oval-9" cx="4.875" cy="8.84615385" rx="1.125" ry="1.15384615"></ellipse>
                                <ellipse id="Oval-8" cx="1.125" cy="1.15384615" rx="1.125" ry="1.15384615"></ellipse>
                                <ellipse id="Oval-7" cx="1.125" cy="5" rx="1.125" ry="1.15384615"></ellipse>
                                <ellipse id="Oval-6" cx="1.125" cy="8.84615385" rx="1.125" ry="1.15384615"></ellipse>
                            </g>
                        </g>
                    </g>
                </g>
                <text id="Vertical-Slider" sketch:type="MSTextLayer" font-family="Lato" font-size="20" font-weight="normal" fill="#585858">
                    <tspan x="0" y="20">Vertical Slider</tspan>
                </text>
                <text id="Used-for-zoom" sketch:type="MSTextLayer" font-family="Arial" font-size="14" font-weight="normal" fill="#585858">
                    <tspan x="0" y="43">Used for zoom</tspan>
                </text>
            </g>
            <g id="Segmented-controls-+-Rectangle-5-+-valider-3-+-Rectangle-5-+-valider-2" sketch:type="MSLayerGroup" transform="translate(320.000000, 448.000000)">
                <text id="Segmented-controls" sketch:type="MSTextLayer" font-family="Lato" font-size="20" font-weight="normal" fill="#585858">
                    <tspan x="0" y="20">Segmented controls</tspan>
                </text>
                <text id="Used-when-there-is-o" sketch:type="MSTextLayer" font-family="Arial" font-size="14" font-weight="normal" fill="#585858">
                    <tspan x="0" y="43">Used when there is only one answer possible</tspan>
                    <tspan x="0" y="59">(eg. to replace radio buttons)</tspan>
                </text>
                <g id="Rectangle-163-+-Rectangle-5-+-valider-3-+-Rectangle-5-+-valider-2" transform="translate(0.000000, 72.000000)">
                    <rect id="Rectangle-163" stroke="#E2E2E2" fill="#FFFFFF" sketch:type="MSShapeGroup" x="0" y="0" width="163" height="72" rx="4"></rect>
                    <g id="Rectangle-5-+-valider-3" transform="translate(81.000000, 20.000000)">
                        <rect id="Rectangle-5" stroke="#FEA971" sketch:type="MSShapeGroup" x="0" y="0" width="62" height="32" rx="4"></rect>
                        <text id="no" sketch:type="MSTextLayer" font-family="Lato" font-size="16" font-weight="260" sketch:alignment="middle" fill="#F76401">
                            <tspan x="22.344" y="21">no</tspan>
                        </text>
                    </g>
                    <g id="Rectangle-5-+-valider-2" transform="translate(20.000000, 20.000000)">
                        <rect id="Rectangle-5" stroke="#F76401" fill="#F76401" sketch:type="MSShapeGroup" x="0" y="0" width="62" height="32" rx="4"></rect>
                        <text id="yes" sketch:type="MSTextLayer" font-family="Lato" font-size="16" font-weight="260" sketch:alignment="right" fill="#FFFFFF">
                            <tspan x="20.796" y="21">yes</tspan>
                        </text>
                    </g>
                </g>
            </g>
            <text id="Tooltips" sketch:type="MSTextLayer" font-family="Lato" font-size="20" font-weight="normal" fill="#585858">
                <tspan x="678" y="469">Tooltips</tspan>
            </text>
            <text id="To-explain-one-parti" sketch:type="MSTextLayer" font-family="Arial" font-size="15" font-weight="normal" fill="#585858">
                <tspan x="678" y="493">To explain one particular concept or element</tspan>
            </text>
            <rect id="Rectangle-163" stroke="#E2E2E2" fill="#FFFFFF" sketch:type="MSShapeGroup" x="678" y="506" width="271" height="194" rx="4"></rect>
            <g id="popoRoomsRatesDetails" sketch:type="MSLayerGroup" transform="translate(698.000000, 526.000000)">
                <g id="popoverContent" filter="url(#filter-1)" fill="#1C1C1C" sketch:type="MSShapeGroup">
                    <path d="M20.3585442,126.136719 L4.00277957,126.136719 C1.78942383,126.136719 0,124.345435 0,122.135775 L0,4.00094358 C0,1.78310831 1.79210546,3.55271368e-15 4.00277957,3.55271368e-15 L226.613627,3.55271368e-15 C228.826982,3.55271368e-15 230.616406,1.79128346 230.616406,4.00094358 L230.616406,122.135775 C230.616406,124.35361 228.824301,126.136719 226.613627,126.136719 L34.6414558,126.136719 L27.5,133.278175 L20.3585442,126.136719 Z" id="top"></path>
                </g>
                <text id="Please-contact-EXPED" sketch:type="MSTextLayer" font-family="Arial" font-size="12" font-weight="bold" fill="#FFFFFF">
                    <tspan x="20" y="31">Please contact EXPEDIA to </tspan>
                    <tspan x="20" y="45">resolve this issue :</tspan>
                    <tspan x="128.046875" y="45" font-weight="normal"></tspan>
                    <tspan x="20" y="64" font-weight="normal">The minimum stay for this rate </tspan>
                    <tspan x="20" y="78" font-weight="normal">does not comply with your contract.</tspan>
                </text>
                <text id="Open-Expedia’s-extra" sketch:type="MSTextLayer" font-family="Arial" font-size="12" font-weight="normal" text-decoration="underline" fill="#FFFFFF">
                    <tspan x="20" y="103">Open Expedia’s extranet</tspan>
                </text>
                <text id="" sketch:type="MSTextLayer" font-family="FontAwesome" font-size="12" font-weight="normal" fill="#939393">
                    <tspan x="157" y="102"></tspan>
                </text>
                <g id="Rollover-2" transform="translate(27.000000, 140.000000)" stroke="#FFFFFF" filter="url(#filter-2)" fill="#000000" sketch:type="MSShapeGroup">
                    <path d="M0,0 L0,12 L3,9 L5.5,14 L6.5,14 C6.5,14 7.14566022,13.3495845 7,13 C6.31232691,11.3495845 4.5,8 4.5,8 L8,8 L0,0 Z" id="Default"></path>
                </g>
            </g>
        </g>
    </g>
</svg>