<?xml version="1.0" encoding="UTF-8" standalone="no"?>
<svg width="1024px" height="768px" viewBox="0 0 1024 768" version="1.1" xmlns="http://www.w3.org/2000/svg" xmlns:xlink="http://www.w3.org/1999/xlink" xmlns:sketch="http://www.bohemiancoding.com/sketch/ns">
    <!-- Generator: Sketch 3.0.3 (7892) - http://www.bohemiancoding.com/sketch -->
    <title>Components/07-Other components</title>
    <desc>Created with Sketch.</desc>
    <defs></defs>
    <g id="Composants" stroke="none" stroke-width="1" fill="none" fill-rule="evenodd" sketch:type="MSPage">
        <g id="Components/07-Other-components" sketch:type="MSArtboardGroup">
            <g id="Titre" sketch:type="MSLayerGroup" transform="translate(0.000000, 21.000000)">
                <text id="Other-components" sketch:type="MSTextLayer" font-family="Lato" font-size="30" font-weight="normal" fill="#015173">
                    <tspan x="30" y="30">Other components</tspan>
                </text>
                <path d="M0,57.5 L1023.56146,57.5" id="Line" stroke="#015173" stroke-linecap="square" sketch:type="MSShapeGroup"></path>
            </g>
            <text id="Ask-Alfred" sketch:type="MSTextLayer" font-family="Lato" font-size="20" font-weight="normal" fill="#333333">
                <tspan x="30" y="130">Ask Alfred</tspan>
            </text>
            <text id="Links" sketch:type="MSTextLayer" font-family="Lato" font-size="20" font-weight="normal" fill="#333333">
                <tspan x="30" y="220">Links</tspan>
            </text>
            <text id="Back-link" sketch:type="MSTextLayer" font-family="Lato" font-size="20" font-weight="normal" fill="#333333">
                <tspan x="388" y="220">Back link</tspan>
            </text>
            <text id="Links-inside-a-text" sketch:type="MSTextLayer" font-family="Lato" font-size="20" font-weight="normal" fill="#333333">
                <tspan x="568" y="220">Links inside a text</tspan>
            </text>
            <text id="Link-to-the-knowledg" sketch:type="MSTextLayer" font-family="Arial" font-size="15" font-weight="normal" fill="#585858">
                <tspan x="30" y="154">Link to the knowledge base</tspan>
            </text>
            <g id="alfred*" sketch:type="MSLayerGroup" transform="translate(260.000000, 120.000000)">
                <g id="Oval-2-+-Bitmap" transform="translate(152.000000, 0.000000)" sketch:type="MSShapeGroup">
                    <circle id="Oval-2" stroke="#015173" stroke-width="1.60714286" cx="16" cy="16" r="16"></circle>
                    <path d="M22.7421692,16.7099161 C22.7498156,15.9552572 22.7647059,8.03768085 22.7647059,8.03768085 C22.6081565,7.06819788 19.520633,6.29411765 15.7320581,6.29411765 C11.8481048,6.29411765 8.69981276,7.10822968 8.69981276,8.11140278 C8.69981276,8.14548926 8.70383716,8.17917939 8.71108109,8.21286952 C8.71108109,8.21286952 8.6366296,16.6417431 8.64830038,17.7796768 C8.6366296,20.3534544 9.25035137,22.6366041 9.28335149,22.7222167 C10.0294762,24.8141754 11.5684087,25.6282875 11.9273856,25.8712528 C12.6533883,26.3623359 14.2273331,26.8823529 15.7851802,26.8823529 C15.8403146,26.8823529 15.8942416,26.8811639 15.9485711,26.8799748 C17.5772478,26.8415284 18.8870175,26.6029279 19.7061581,26.1078764 C21.1534427,25.2332026 21.6083176,24.3667095 21.8511476,23.6817014 C22.5928525,21.8903167 22.7647062,19.2222134 22.7421692,16.7099161 Z" id="Path" fill="#015173"></path>
                    <g id="Shape" transform="translate(9.823529, 6.294118)" fill="#F3F3F3">
                        <path d="M10.4254902,0.570927602 L10.3392157,3.34598416 C10.1545098,3.27946833 9.95607843,3.2418552 9.74862745,3.2418552 C9.55921569,3.2418552 9.3772549,3.27234163 9.20588235,3.32816742 L9.20588235,-0.0583838595 C9.20588235,-0.0579879319 10.318558,-0.0451357466 10.5938521,0.230429864 L10.4254902,0.570927602 Z M9.21411765,4.04242081 C9.37529412,3.96165158 9.55647059,3.91493213 9.74862745,3.91493213 C9.95294118,3.91493213 10.1454902,3.96640271 10.3145098,4.05746606 C10.6960784,4.26255656 10.9568627,4.66838235 10.9568627,5.13478507 C10.9568627,5.80786199 10.414902,6.35542986 9.74862745,6.35542986 C9.08235294,6.35542986 8.53960784,5.80786199 8.53960784,5.13478507 C8.53960784,4.6561086 8.81529412,4.24196833 9.21411765,4.04242081 L9.21411765,4.04242081 Z M11.6756861,14.6333235 C11.5768626,15.2161289 11.3788853,15.9596187 11.0517647,16.8221719 C10.762485,17.5849463 10.1963659,18.2515276 9.15568627,18.9197964 C8.41066413,19.3982097 7.31843137,19.4879525 6.09098039,19.518043 C6.04588235,19.5196267 6.00117647,19.5196267 5.95686275,19.5196267 C4.68313725,19.5196267 3.37529412,19.0896493 2.79176471,18.6846154 C2.75803922,18.6612557 2.71607843,18.6331448 2.6654902,18.6002828 C2.25529412,18.3338235 1.16470588,17.6274887 0.615294118,16.0485294 C0.607843137,16.0271493 0.184705882,14.6829751 0.101960784,12.7567873 C0.0380392157,11.2811652 0.129411765,8.89411765 0.191764706,7.58716063 C1.41803922,7.09541855 3.52156863,6.77154977 5.91098039,6.77154977 C8.31058824,6.77154977 10.4207843,7.09858597 11.645098,7.59309955 C11.6682353,8.43959276 11.685098,9.79881222 11.6756863,10.66431 C11.6486275,11.779638 11.6756861,14.1147801 11.6756861,14.6333235 Z M3.33333333,11.4819005 C3.874789,11.4819005 4.31372549,11.0387434 4.31372549,10.4920814 C4.31372549,9.94541948 3.874789,9.50226244 3.33333333,9.50226244 C2.79187767,9.50226244 2.35294118,9.94541948 2.35294118,10.4920814 C2.35294118,11.0387434 2.79187767,11.4819005 3.33333333,11.4819005 Z M8.82352941,11.4819005 C9.36498508,11.4819005 9.80392157,11.0387434 9.80392157,10.4920814 C9.80392157,9.94541948 9.36498508,9.50226244 8.82352941,9.50226244 C8.28207375,9.50226244 7.84313725,9.94541948 7.84313725,10.4920814 C7.84313725,11.0387434 8.28207375,11.4819005 8.82352941,11.4819005 Z M6.07843137,16.6289593 C8.1359629,16.6289593 9.80392157,14.9088447 9.80392157,13.8456466 C9.80392157,12.7824484 8.1359629,14.2637164 6.07843137,14.2637164 C4.02089985,14.2637164 2.35294118,12.7824484 2.35294118,13.8456466 C2.35294118,14.9088447 4.02089985,16.6289593 6.07843137,16.6289593 Z"></path>
                    </g>
                </g>
                <text id="Need-any-help-?" sketch:type="MSTextLayer" font-family="Arial" font-size="12" font-weight="normal" sketch:alignment="right" fill="#939393">
                    <tspan x="55.6015625" y="14">Need any help ?</tspan>
                    <tspan x="0.25390625" y="28">Ask your question to Alfred</tspan>
                </text>
            </g>
            <text id="-Link-with-a-pictog" sketch:type="MSTextLayer" font-family="FontAwesome" font-size="12" font-weight="normal" fill="#028ECA">
                <tspan x="30" y="246"></tspan>
                <tspan x="40.2857143" y="246"> </tspan>
                <tspan x="43.2857143" y="246" font-family="Arial">Link with a pictogram</tspan>
            </text>
            <text id="-Simple-link-" sketch:type="MSTextLayer" font-family="FontAwesome" font-size="12" font-weight="normal" fill="#028ECA">
                <tspan x="198" y="246"></tspan>
                <tspan x="202.285714" y="246"> </tspan>
                <tspan x="205.285714" y="246" font-family="Arial">Simple link </tspan>
            </text>
            <text id="-Link-with-a-pictog-2" sketch:type="MSTextLayer" font-family="FontAwesome" font-size="12" font-weight="normal" fill="#949494">
                <tspan x="30" y="266"></tspan>
                <tspan x="40.2857143" y="266"> </tspan>
                <tspan x="43.2857143" y="266" font-family="Arial">Link with a pictogram</tspan>
            </text>
            <text id="-Simple-link--2" sketch:type="MSTextLayer" font-family="FontAwesome" font-size="12" font-weight="normal" fill="#949494">
                <tspan x="198" y="266"></tspan>
                <tspan x="202.285714" y="266"> </tspan>
                <tspan x="205.285714" y="266" font-family="Arial">Simple link </tspan>
            </text>
            <text id="There-is-a-momentary" sketch:type="MSTextLayer" font-family="Arial" font-size="12" font-weight="normal" fill="#939393">
                <tspan x="568" y="246">There is a momentary problem with </tspan>
                <tspan x="568" y="260">the </tspan>
                <tspan x="588.015625" y="260" text-decoration="underline">channel’s server</tspan>
                <tspan x="674.511719" y="260">, wait a moment </tspan>
                <tspan x="568" y="274">and relaunch synchronization.</tspan>
            </text>
            <g id="retour-+--2" sketch:type="MSLayerGroup" transform="translate(390.000000, 238.000000)" font-weight="normal" fill="#F76401" font-size="12">
                <text id="back" sketch:type="MSTextLayer" font-family="Arial" sketch:alignment="right">
                    <tspan x="16.6523438" y="11">back</tspan>
                </text>
                <text id="" sketch:type="MSTextLayer" font-family="FontAwesome">
                    <tspan x="0" y="10"></tspan>
                </text>
            </g>
        </g>
    </g>
</svg>