<?xml version="1.0" encoding="UTF-8" standalone="no"?>
<svg width="1024px" height="768px" viewBox="0 0 1024 768" version="1.1" xmlns="http://www.w3.org/2000/svg" xmlns:xlink="http://www.w3.org/1999/xlink" xmlns:sketch="http://www.bohemiancoding.com/sketch/ns">
    <!-- Generator: Sketch 3.0.3 (7892) - http://www.bohemiancoding.com/sketch -->
    <title>Components/07-Other components</title>
    <desc>Created with Sketch.</desc>
    <defs></defs>
    <g id="Composants" stroke="none" stroke-width="1" fill="none" fill-rule="evenodd" sketch:type="MSPage">
        <g id="Components/07-Other-components" sketch:type="MSArtboardGroup">
            <g id="Titre" sketch:type="MSLayerGroup" transform="translate(0.000000, 21.000000)">
                <text id="Other-components" sketch:type="MSTextLayer" font-family="Lato" font-size="30" font-weight="normal" fill="#015173">
                    <tspan x="30" y="30">Other components</tspan>
                </text>
                <path d="M0,57.5 L1023.56146,57.5" id="Line" stroke="#015173" stroke-linecap="square" sketch:type="MSShapeGroup"></path>
            </g>
            <text id="Ask-Alfred" sketch:type="MSTextLayer" font-family="Lato" font-size="20" font-weight="normal" fill="#333333">
                <tspan x="30" y="130">Ask Alfred</tspan>
            </text>
            <text id="Links" sketch:type="MSTextLayer" font-family="Lato" font-size="20" font-weight="normal" fill="#333333">
                <tspan x="30" y="220">Links</tspan>
            </text>
            <text id="Date-Picker" sketch:type="MSTextLayer" font-family="Lato" font-size="20" font-weight="normal" fill="#333333">
                <tspan x="30" y="356">Date Picker</tspan>
            </text>
            <text id="Sliders" sketch:type="MSTextLayer" font-family="Lato" font-size="20" font-weight="normal" fill="#333333">
                <tspan x="328" y="356">Sliders</tspan>
            </text>
            <text id="Back-link" sketch:type="MSTextLayer" font-family="Lato" font-size="20" font-weight="normal" fill="#333333">
                <tspan x="388" y="220">Back link</tspan>
            </text>
            <text id="Links-inside-a-text" sketch:type="MSTextLayer" font-family="Lato" font-size="20" font-weight="normal" fill="#333333">
                <tspan x="568" y="220">Links inside a text</tspan>
            </text>
            <text id="Link-to-the-knowledg" sketch:type="MSTextLayer" font-family="Arial" font-size="15" font-weight="normal" fill="#585858">
                <tspan x="30" y="154">Link to the knowledge base</tspan>
            </text>
            <text id="-Link-with-a-pictog" sketch:type="MSTextLayer" font-family="FontAwesome" font-size="12" font-weight="normal" fill="#028ECA">
                <tspan x="30" y="246"></tspan>
                <tspan x="40.2857143" y="246"> </tspan>
                <tspan x="43.2857143" y="246" font-family="Arial">Link with a pictogram</tspan>
            </text>
            <text id="-Simple-link-" sketch:type="MSTextLayer" font-family="FontAwesome" font-size="12" font-weight="normal" fill="#028ECA">
                <tspan x="198" y="246"></tspan>
                <tspan x="202.285714" y="246"> </tspan>
                <tspan x="205.285714" y="246" font-family="Arial">Simple link </tspan>
            </text>
            <text id="-Link-with-a-pictog-2" sketch:type="MSTextLayer" font-family="FontAwesome" font-size="12" font-weight="normal" fill="#949494">
                <tspan x="30" y="266"></tspan>
                <tspan x="40.2857143" y="266"> </tspan>
                <tspan x="43.2857143" y="266" font-family="Arial">Link with a pictogram</tspan>
            </text>
            <text id="-Simple-link-" sketch:type="MSTextLayer" font-family="FontAwesome" font-size="12" font-weight="normal" fill="#949494">
                <tspan x="198" y="266"></tspan>
                <tspan x="202.285714" y="266"> </tspan>
                <tspan x="205.285714" y="266" font-family="Arial">Simple link </tspan>
            </text>
            <text id="There-is-a-momentary" sketch:type="MSTextLayer" font-family="Arial" font-size="12" font-weight="normal" fill="#939393">
                <tspan x="568" y="246">There is a momentary problem with </tspan>
                <tspan x="568" y="260">the </tspan>
                <tspan x="588.015625" y="260" text-decoration="underline">channel’s server</tspan>
                <tspan x="674.511719" y="260">, wait a moment </tspan>
                <tspan x="568" y="274">and relaunch synchronization.</tspan>
            </text>
            <g id="retour-+--2" sketch:type="MSLayerGroup" transform="translate(390.000000, 238.000000)" font-weight="normal" fill="#F76401" font-size="12">
                <text id="back" sketch:type="MSTextLayer" font-family="Arial" sketch:alignment="right">
                    <tspan x="16.6523438" y="11">back</tspan>
                </text>
                <text id="" sketch:type="MSTextLayer" font-family="FontAwesome">
                    <tspan x="0" y="10"></tspan>
                </text>
            </g>
            <g id="Calendar" sketch:type="MSLayerGroup" transform="translate(32.000000, 384.000000)">
                <g id="Blocks" transform="translate(0.356506, 61.795848)" stroke="#FFFFFF" stroke-width="0.5" sketch:type="MSShapeGroup">
                    <rect id="Rectangle-38" fill="#EBEBEB" x="57.0409982" y="0" width="28.5204991" height="28.5121107"></rect>
                    <rect id="Rectangle-39" fill="#EBEBEB" x="85.5614973" y="0" width="28.5204991" height="28.5121107"></rect>
                    <rect id="Rectangle-40" fill="#EBEBEB" x="114.081996" y="0" width="28.5204991" height="28.5121107"></rect>
                    <rect id="Rectangle-41" fill="#EBEBEB" x="142.602496" y="0" width="28.5204991" height="28.5121107"></rect>
                    <rect id="Rectangle-42" fill="#EBEBEB" x="171.122995" y="0" width="28.5204991" height="28.5121107"></rect>
                    <rect id="Rectangle-43" fill="#EBEBEB" x="28.5204991" y="0" width="28.5204991" height="28.5121107"></rect>
                    <rect id="Rectangle-45" fill="#F2F2F2" x="-3.12638804e-13" y="0" width="28.5204991" height="28.5121107"></rect>
                    <rect id="Rectangle-44" fill="#EBEBEB" x="-3.12638804e-13" y="28.5121107" width="28.5204991" height="28.5121107"></rect>
                    <rect id="Rectangle-46" fill="#EBEBEB" x="57.0409982" y="28.5121107" width="28.5204991" height="28.5121107"></rect>
                    <rect id="Rectangle-47" fill="#EBEBEB" x="85.5614973" y="28.5121107" width="28.5204991" height="28.5121107"></rect>
                    <rect id="Rectangle-48" fill="#EBEBEB" x="114.081996" y="28.5121107" width="28.5204991" height="28.5121107"></rect>
                    <rect id="Rectangle-49" fill="#EBEBEB" x="142.602496" y="28.5121107" width="28.5204991" height="28.5121107"></rect>
                    <rect id="Rectangle-50" fill="#EBEBEB" x="171.122995" y="28.5121107" width="28.5204991" height="28.5121107"></rect>
                    <rect id="Rectangle-51" fill="#EBEBEB" x="28.5204991" y="28.5121107" width="28.5204991" height="28.5121107"></rect>
                    <rect id="Rectangle-52" fill="#EBEBEB" x="-3.12638804e-13" y="56.6678201" width="28.5204991" height="28.5121107"></rect>
                    <rect id="Rectangle-54" fill="#EBEBEB" x="57.0409982" y="56.6678201" width="28.5204991" height="28.5121107"></rect>
                    <rect id="Rectangle-55" fill="#FE8534" x="85.5614973" y="56.6678201" width="28.5204991" height="28.5121107"></rect>
                    <rect id="Rectangle-56" fill="#EBEBEB" x="114.081996" y="56.6678201" width="28.5204991" height="28.5121107"></rect>
                    <rect id="Rectangle-57" fill="#EBEBEB" x="142.602496" y="56.6678201" width="28.5204991" height="28.5121107"></rect>
                    <rect id="Rectangle-58" fill="#EBEBEB" x="171.122995" y="56.6678201" width="28.5204991" height="28.5121107"></rect>
                    <rect id="Rectangle-59" fill="#EBEBEB" x="28.5204991" y="56.6678201" width="28.5204991" height="28.5121107"></rect>
                    <rect id="Rectangle-60" fill="#EBEBEB" x="-3.12638804e-13" y="85.1799308" width="28.5204991" height="28.5121107"></rect>
                    <rect id="Rectangle-62" fill="#EBEBEB" x="57.0409982" y="85.1799308" width="28.5204991" height="28.5121107"></rect>
                    <rect id="Rectangle-63" fill="#EBEBEB" x="85.5614973" y="85.1799308" width="28.5204991" height="28.5121107"></rect>
                    <rect id="Rectangle-64" fill="#EBEBEB" x="114.081996" y="85.1799308" width="28.5204991" height="28.5121107"></rect>
                    <rect id="Rectangle-65" fill="#EBEBEB" x="142.602496" y="85.1799308" width="28.5204991" height="28.5121107"></rect>
                    <rect id="Rectangle-66" fill="#EBEBEB" x="171.122995" y="85.1799308" width="28.5204991" height="28.5121107"></rect>
                    <rect id="Rectangle-67" fill="#EBEBEB" x="28.5204991" y="85.1799308" width="28.5204991" height="28.5121107"></rect>
                    <rect id="Rectangle-68" fill="#EBEBEB" x="-3.12638804e-13" y="113.692042" width="28.5204991" height="28.5121107"></rect>
                    <rect id="Rectangle-70" fill="#EBEBEB" x="57.0409982" y="113.692042" width="28.5204991" height="28.5121107"></rect>
                    <rect id="Rectangle-71" fill="#EBEBEB" x="85.5614973" y="113.692042" width="28.5204991" height="28.5121107"></rect>
                    <rect id="Rectangle-72" fill="#F2F2F2" x="114.081996" y="113.692042" width="28.5204991" height="28.5121107"></rect>
                    <rect id="Rectangle-73" fill="#F2F2F2" x="142.602496" y="113.692042" width="28.5204991" height="28.5121107"></rect>
                    <rect id="Rectangle-74" fill="#F2F2F2" x="171.122995" y="113.692042" width="28.5204991" height="28.5121107"></rect>
                    <rect id="Rectangle-75" fill="#EBEBEB" x="28.5204991" y="113.692042" width="28.5204991" height="28.5121107"></rect>
                </g>
                <g id="Numbers" transform="translate(3.208556, 68.211073)" font-weight="normal" font-family="Arial" line-spacing="13.1672598" sketch:type="MSTextLayer" font-size="8.66666667" sketch:alignment="middle">
                    <text id="1" fill="#797979">
                        <tspan x="37.3404521" y="8">1</tspan>
                    </text>
                    <text id="30" fill="#C7C7C7">
                        <tspan x="6.40995954" y="8">30</tspan>
                    </text>
                    <text id="2" fill="#797979">
                        <tspan x="65.8609513" y="8">2</tspan>
                    </text>
                    <text id="3" fill="#797979">
                        <tspan x="94.3814504" y="8">3</tspan>
                    </text>
                    <text id="4" fill="#797979">
                        <tspan x="122.901949" y="8">4</tspan>
                    </text>
                    <text id="5" fill="#797979">
                        <tspan x="151.422449" y="8">5</tspan>
                    </text>
                    <text id="6" fill="#797979">
                        <tspan x="179.942948" y="8">6</tspan>
                    </text>
                    <text id="7" fill="#797979">
                        <tspan x="8.81995303" y="36.5121107">7</tspan>
                    </text>
                    <text id="8" fill="#797979">
                        <tspan x="37.3404521" y="36.5121107">8</tspan>
                    </text>
                    <text id="9" fill="#797979">
                        <tspan x="65.8609513" y="36.5121107">9</tspan>
                    </text>
                    <text id="10" fill="#797979">
                        <tspan x="91.9714569" y="36.5121107">10</tspan>
                    </text>
                    <text id="11" fill="#797979">
                        <tspan x="120.491956" y="36.5121107">11</tspan>
                    </text>
                    <text id="12" fill="#797979">
                        <tspan x="149.012455" y="36.5121107">12</tspan>
                    </text>
                    <text id="13" fill="#797979">
                        <tspan x="177.532954" y="36.5121107">13</tspan>
                    </text>
                    <text id="14" fill="#797979">
                        <tspan x="6.40995954" y="64.6678201">14</tspan>
                    </text>
                    <text id="15" fill="#797979">
                        <tspan x="34.9304587" y="64.6678201">15</tspan>
                    </text>
                    <text id="16" fill="#797979">
                        <tspan x="63.4509578" y="64.6678201">16</tspan>
                    </text>
                    <text id="17" fill="#FFFFFF">
                        <tspan x="91.9714569" y="64.6678201">17</tspan>
                    </text>
                    <text id="18" fill="#797979">
                        <tspan x="120.491956" y="64.6678201">18</tspan>
                    </text>
                    <text id="19" fill="#797979">
                        <tspan x="149.012455" y="64.6678201">19</tspan>
                    </text>
                    <text id="20" fill="#797979">
                        <tspan x="177.532954" y="64.6678201">20</tspan>
                    </text>
                    <text id="21" fill="#797979">
                        <tspan x="6.40995954" y="93.1799308">21</tspan>
                    </text>
                    <text id="22" fill="#797979">
                        <tspan x="34.9304587" y="93.1799308">22</tspan>
                    </text>
                    <text id="23" fill="#797979">
                        <tspan x="63.4509578" y="93.1799308">23</tspan>
                    </text>
                    <text id="24" fill="#797979">
                        <tspan x="91.9714569" y="93.1799308">24</tspan>
                    </text>
                    <text id="25" fill="#797979">
                        <tspan x="120.491956" y="93.1799308">25</tspan>
                    </text>
                    <text id="26" fill="#797979">
                        <tspan x="149.012455" y="93.1799308">26</tspan>
                    </text>
                    <text id="27" fill="#797979">
                        <tspan x="177.532954" y="93.1799308">27</tspan>
                    </text>
                    <text id="28" fill="#797979">
                        <tspan x="6.40995954" y="121.692042">28</tspan>
                    </text>
                    <text id="29" fill="#797979">
                        <tspan x="34.9304587" y="121.692042">29</tspan>
                    </text>
                    <text id="30" fill="#797979">
                        <tspan x="63.4509578" y="121.692042">30</tspan>
                    </text>
                    <text id="31" fill="#797979">
                        <tspan x="91.9714569" y="121.692042">31</tspan>
                    </text>
                    <text id="1" fill="#CCCCCC">
                        <tspan x="122.901949" y="121.692042">1</tspan>
                    </text>
                    <text id="2" fill="#CCCCCC">
                        <tspan x="151.422449" y="121.692042">2</tspan>
                    </text>
                    <text id="3" fill="#CCCCCC">
                        <tspan x="179.942948" y="121.692042">3</tspan>
                    </text>
                </g>
                <g id="Days" transform="translate(3.208556, 37.560554)" font-weight="normal" font-family="Arial" line-spacing="13.1672598" sketch:type="MSTextLayer" font-size="9" sketch:alignment="middle">
                    <text id="MON" fill="#939393">
                        <tspan x="29.2519105" y="8">MON</tspan>
                    </text>
                    <text id="SUN" fill="#C7C7C7">
                        <tspan x="1.72896996" y="8">SUN</tspan>
                    </text>
                    <text id="TUE" fill="#939393">
                        <tspan x="59.2709447" y="8">TUE</tspan>
                    </text>
                    <text id="WED" fill="#939393">
                        <tspan x="86.2929087" y="8">WED</tspan>
                    </text>
                    <text id="THU" fill="#939393">
                        <tspan x="116.063652" y="8">THU</tspan>
                    </text>
                    <text id="FRI" fill="#939393">
                        <tspan x="146.583663" y="8">FRI</tspan>
                    </text>
                    <text id="SAT" fill="#939393">
                        <tspan x="173.601232" y="8">SAT</tspan>
                    </text>
                </g>
                <text id="JULY-2014" sketch:type="MSTextLayer" font-family="Arial" font-size="15" font-weight="normal" sketch:alignment="middle" fill="#585858">
                    <tspan x="63.2483519" y="13.5878979">JULY 2014</tspan>
                </text>
                <g id="Prev" transform="translate(8.000000, 3.712803)" stroke="#BEBEBE" stroke-width="1.06761566" sketch:type="MSShapeGroup">
                    <path d="M-3.07016092,6.79334717 L2.01783656,2.45477438 L7.03561073,6.70008261" id="Path-38" transform="translate(1.948097, 4.656905) rotate(-90.000000) translate(-1.948097, -4.656905) "></path>
                </g>
                <g id="Next" transform="translate(187.860963, 8.314879) rotate(-180.000000) translate(-187.860963, -8.314879) translate(185.860963, 3.314879)" stroke="#BEBEBE" stroke-width="1.06761566" sketch:type="MSShapeGroup">
                    <path d="M-3.07016092,6.79334717 L2.01783656,2.45477438 L7.03561073,6.70008261" id="Path-38" transform="translate(1.948097, 4.656905) rotate(-90.000000) translate(-1.948097, -4.656905) "></path>
                </g>
                <path d="M0.534759358,27.7595156 L198.040499,27.7595156" id="Line" stroke="#F9F9F9" stroke-width="1.06761566" stroke-linecap="square" sketch:type="MSShapeGroup"></path>
            </g>
            <g id="Group-7" sketch:type="MSLayerGroup" transform="translate(328.000000, 508.000000)">
                <g id="Rectangle-128-+-Rectangle-129-+-Comp/Grip" transform="translate(0.000000, 25.000000)" sketch:type="MSShapeGroup">
                    <rect id="Rectangle-128" fill="#F3F3F3" x="0" y="12" width="540" height="15" rx="40"></rect>
                    <rect id="Rectangle-129" fill="#54578F" x="0" y="12" width="398" height="15" rx="40"></rect>
                    <g id="Comp/Grip">
                        <rect id="Rectangle-23" fill="#FF8328" transform="translate(8.000000, 19.000000) scale(-1, 1) translate(-8.000000, -19.000000) " x="0" y="0" width="16" height="38" rx="22"></rect>
                        <g id="Group" transform="translate(5.000000, 14.000000)" fill="#000000" fill-opacity="0.5">
                            <path d="M4.875,2.30769231 C5.49632034,2.30769231 6,1.79109779 6,1.15384615 C6,0.516594519 5.49632034,0 4.875,0 C4.25367966,0 3.75,0.516594519 3.75,1.15384615 C3.75,1.79109779 4.25367966,2.30769231 4.875,2.30769231 Z" id="Oval-11"></path>
                            <ellipse id="Oval-10" cx="4.875" cy="5" rx="1.125" ry="1.15384615"></ellipse>
                            <ellipse id="Oval-9" cx="4.875" cy="8.84615385" rx="1.125" ry="1.15384615"></ellipse>
                            <ellipse id="Oval-8" cx="1.125" cy="1.15384615" rx="1.125" ry="1.15384615"></ellipse>
                            <ellipse id="Oval-7" cx="1.125" cy="5" rx="1.125" ry="1.15384615"></ellipse>
                            <ellipse id="Oval-6" cx="1.125" cy="8.84615385" rx="1.125" ry="1.15384615"></ellipse>
                        </g>
                    </g>
                    <g id="Comp/Grip-2" transform="translate(390.000000, 0.000000)">
                        <rect id="Rectangle-23" fill="#FF8328" transform="translate(8.000000, 19.000000) scale(-1, 1) translate(-8.000000, -19.000000) " x="0" y="0" width="16" height="38" rx="22"></rect>
                        <g id="Group" transform="translate(5.000000, 14.000000)" fill="#000000" fill-opacity="0.5">
                            <path d="M4.875,2.30769231 C5.49632034,2.30769231 6,1.79109779 6,1.15384615 C6,0.516594519 5.49632034,0 4.875,0 C4.25367966,0 3.75,0.516594519 3.75,1.15384615 C3.75,1.79109779 4.25367966,2.30769231 4.875,2.30769231 Z" id="Oval-11"></path>
                            <ellipse id="Oval-10" cx="4.875" cy="5" rx="1.125" ry="1.15384615"></ellipse>
                            <ellipse id="Oval-9" cx="4.875" cy="8.84615385" rx="1.125" ry="1.15384615"></ellipse>
                            <ellipse id="Oval-8" cx="1.125" cy="1.15384615" rx="1.125" ry="1.15384615"></ellipse>
                            <ellipse id="Oval-7" cx="1.125" cy="5" rx="1.125" ry="1.15384615"></ellipse>
                            <ellipse id="Oval-6" cx="1.125" cy="8.84615385" rx="1.125" ry="1.15384615"></ellipse>
                        </g>
                    </g>
                </g>
                <text id="00:00" sketch:type="MSTextLayer" font-family="Arial" font-size="12" font-weight="normal" fill="#939393">
                    <tspan x="0" y="74">00:00</tspan>
                </text>
                <text id="12:00" sketch:type="MSTextLayer" font-family="Arial" font-size="12" font-weight="normal" fill="#939393">
                    <tspan x="254" y="74">12:00</tspan>
                </text>
                <text id="06:00" opacity="0.8" sketch:type="MSTextLayer" font-family="Arial" font-size="12" font-weight="normal" fill="#939393">
                    <tspan x="127" y="74">06:00</tspan>
                </text>
                <text id="18:00" opacity="0.8" sketch:type="MSTextLayer" font-family="Arial" font-size="12" font-weight="normal" fill="#939393">
                    <tspan x="381" y="74">18:00</tspan>
                </text>
                <text id="23:59" sketch:type="MSTextLayer" font-family="Arial" font-size="12" font-weight="normal" fill="#939393">
                    <tspan x="509" y="74">23:59</tspan>
                </text>
                <text id="Lobby’s-opening-hour" sketch:type="MSTextLayer" font-family="Arial" font-size="16" font-weight="normal" fill="#585858">
                    <tspan x="0" y="14">Lobby’s opening hours</tspan>
                </text>
                <text id="00:00---18:00" sketch:type="MSTextLayer" font-family="Arial" font-size="14" font-weight="normal" sketch:alignment="right" fill="#54578F">
                    <tspan x="187.490234" y="14">00:00 - 18:00</tspan>
                </text>
            </g>
            <g id="alfred*" sketch:type="MSLayerGroup" transform="translate(290.000000, 120.000000)">
                <g id="Assets/Logo-Alfred" transform="translate(152.000000, 0.000000)" sketch:type="MSShapeGroup">
                    <circle id="Oval-2" stroke="#015173" stroke-width="1.60714286" cx="16" cy="16" r="16"></circle>
                    <path d="M22.7421692,16.7099161 C22.7498156,15.9552572 22.7647059,8.03768085 22.7647059,8.03768085 C22.6081565,7.06819788 19.520633,6.29411765 15.7320581,6.29411765 C11.8481048,6.29411765 8.69981276,7.10822968 8.69981276,8.11140278 C8.69981276,8.14548926 8.70383716,8.17917939 8.71108109,8.21286952 C8.71108109,8.21286952 8.6366296,16.6417431 8.64830038,17.7796768 C8.6366296,20.3534544 9.25035137,22.6366041 9.28335149,22.7222167 C10.0294762,24.8141754 11.5684087,25.6282875 11.9273856,25.8712528 C12.6533883,26.3623359 14.2273331,26.8823529 15.7851802,26.8823529 C15.8403146,26.8823529 15.8942416,26.8811639 15.9485711,26.8799748 C17.5772478,26.8415284 18.8870175,26.6029279 19.7061581,26.1078764 C21.1534427,25.2332026 21.6083176,24.3667095 21.8511476,23.6817014 C22.5928525,21.8903167 22.7647062,19.2222134 22.7421692,16.7099161 Z" id="Path" fill="#015173"></path>
                    <g id="Shape" transform="translate(9.823529, 6.294118)" fill="#F3F3F3">
                        <path d="M10.4254902,0.570927602 L10.3392157,3.34598416 C10.1545098,3.27946833 9.95607843,3.2418552 9.74862745,3.2418552 C9.55921569,3.2418552 9.3772549,3.27234163 9.20588235,3.32816742 L9.20588235,-0.0583838595 C9.20588235,-0.0579879319 10.318558,-0.0451357466 10.5938521,0.230429864 L10.4254902,0.570927602 Z M9.21411765,4.04242081 C9.37529412,3.96165158 9.55647059,3.91493213 9.74862745,3.91493213 C9.95294118,3.91493213 10.1454902,3.96640271 10.3145098,4.05746606 C10.6960784,4.26255656 10.9568627,4.66838235 10.9568627,5.13478507 C10.9568627,5.80786199 10.414902,6.35542986 9.74862745,6.35542986 C9.08235294,6.35542986 8.53960784,5.80786199 8.53960784,5.13478507 C8.53960784,4.6561086 8.81529412,4.24196833 9.21411765,4.04242081 L9.21411765,4.04242081 Z M11.6756861,14.6333235 C11.5768626,15.2161289 11.3788853,15.9596187 11.0517647,16.8221719 C10.762485,17.5849463 10.1963659,18.2515276 9.15568627,18.9197964 C8.41066413,19.3982097 7.31843137,19.4879525 6.09098039,19.518043 C6.04588235,19.5196267 6.00117647,19.5196267 5.95686275,19.5196267 C4.68313725,19.5196267 3.37529412,19.0896493 2.79176471,18.6846154 C2.75803922,18.6612557 2.71607843,18.6331448 2.6654902,18.6002828 C2.25529412,18.3338235 1.16470588,17.6274887 0.615294118,16.0485294 C0.607843137,16.0271493 0.184705882,14.6829751 0.101960784,12.7567873 C0.0380392157,11.2811652 0.129411765,8.89411765 0.191764706,7.58716063 C1.41803922,7.09541855 3.52156863,6.77154977 5.91098039,6.77154977 C8.31058824,6.77154977 10.4207843,7.09858597 11.645098,7.59309955 C11.6682353,8.43959276 11.685098,9.79881222 11.6756863,10.66431 C11.6486275,11.779638 11.6756861,14.1147801 11.6756861,14.6333235 Z M3.33333333,11.4819005 C3.874789,11.4819005 4.31372549,11.0387434 4.31372549,10.4920814 C4.31372549,9.94541948 3.874789,9.50226244 3.33333333,9.50226244 C2.79187767,9.50226244 2.35294118,9.94541948 2.35294118,10.4920814 C2.35294118,11.0387434 2.79187767,11.4819005 3.33333333,11.4819005 Z M8.82352941,11.4819005 C9.36498508,11.4819005 9.80392157,11.0387434 9.80392157,10.4920814 C9.80392157,9.94541948 9.36498508,9.50226244 8.82352941,9.50226244 C8.28207375,9.50226244 7.84313725,9.94541948 7.84313725,10.4920814 C7.84313725,11.0387434 8.28207375,11.4819005 8.82352941,11.4819005 Z M6.07843137,16.6289593 C8.1359629,16.6289593 9.80392157,14.9088447 9.80392157,13.8456466 C9.80392157,12.7824484 8.1359629,14.2637164 6.07843137,14.2637164 C4.02089985,14.2637164 2.35294118,12.7824484 2.35294118,13.8456466 C2.35294118,14.9088447 4.02089985,16.6289593 6.07843137,16.6289593 Z"></path>
                    </g>
                </g>
                <text id="Need-any-help-?" sketch:type="MSTextLayer" font-family="Arial" font-size="12" font-weight="normal" sketch:alignment="right" fill="#939393">
                    <tspan x="55.6015625" y="14">Need any help ?</tspan>
                    <tspan x="0.25390625" y="28">Ask your question to Alfred</tspan>
                </text>
            </g>
            <g id="Group" sketch:type="MSLayerGroup" transform="translate(328.000000, 391.000000)">
                <g id="Rectangle-128-+-Rectangle-129-+-Comp/Grip" transform="translate(0.000000, 26.000000)" sketch:type="MSShapeGroup">
                    <rect id="Rectangle-128" fill="#F3F3F3" x="0" y="11" width="540" height="15" rx="40"></rect>
                    <rect id="Rectangle-129" fill="#54578F" x="0" y="11" width="219" height="15" rx="40"></rect>
                    <g id="Comp/Grip" transform="translate(211.000000, 0.000000)">
                        <rect id="Rectangle-23" fill="#FF8328" transform="translate(8.000000, 19.000000) scale(-1, 1) translate(-8.000000, -19.000000) " x="0" y="0" width="16" height="38" rx="22"></rect>
                        <g id="Group" transform="translate(5.000000, 14.000000)" fill="#000000" fill-opacity="0.5">
                            <path d="M4.875,2.30769231 C5.49632034,2.30769231 6,1.79109779 6,1.15384615 C6,0.516594519 5.49632034,0 4.875,0 C4.25367966,0 3.75,0.516594519 3.75,1.15384615 C3.75,1.79109779 4.25367966,2.30769231 4.875,2.30769231 Z" id="Oval-11"></path>
                            <ellipse id="Oval-10" cx="4.875" cy="5" rx="1.125" ry="1.15384615"></ellipse>
                            <ellipse id="Oval-9" cx="4.875" cy="8.84615385" rx="1.125" ry="1.15384615"></ellipse>
                            <ellipse id="Oval-8" cx="1.125" cy="1.15384615" rx="1.125" ry="1.15384615"></ellipse>
                            <ellipse id="Oval-7" cx="1.125" cy="5" rx="1.125" ry="1.15384615"></ellipse>
                            <ellipse id="Oval-6" cx="1.125" cy="8.84615385" rx="1.125" ry="1.15384615"></ellipse>
                        </g>
                    </g>
                </g>
                <text id="00:00" sketch:type="MSTextLayer" font-family="Arial" font-size="12" font-weight="normal" fill="#939393">
                    <tspan x="0" y="74">00:00</tspan>
                </text>
                <text id="12:00" sketch:type="MSTextLayer" font-family="Arial" font-size="12" font-weight="normal" fill="#939393">
                    <tspan x="254" y="74">12:00</tspan>
                </text>
                <text id="06:00" opacity="0.8" sketch:type="MSTextLayer" font-family="Arial" font-size="12" font-weight="normal" fill="#939393">
                    <tspan x="127" y="74">06:00</tspan>
                </text>
                <text id="18:00" opacity="0.8" sketch:type="MSTextLayer" font-family="Arial" font-size="12" font-weight="normal" fill="#939393">
                    <tspan x="381" y="74">18:00</tspan>
                </text>
                <text id="23:59" sketch:type="MSTextLayer" font-family="Arial" font-size="12" font-weight="normal" fill="#939393">
                    <tspan x="509" y="74">23:59</tspan>
                </text>
                <text id="Check-out-time" sketch:type="MSTextLayer" font-family="Arial" font-size="16" font-weight="normal" fill="#585858">
                    <tspan x="0" y="14">Check-out time</tspan>
                </text>
                <text id="before" sketch:type="MSTextLayer" font-family="Arial" font-size="12" font-weight="normal" sketch:alignment="right" fill="#939393">
                    <tspan x="116.974609" y="14">before</tspan>
                </text>
                <text id="11:00" sketch:type="MSTextLayer" font-family="Arial" font-size="14" font-weight="normal" sketch:alignment="right" fill="#54578F">
                    <tspan x="156.004883" y="14">11:00</tspan>
                </text>
            </g>
        </g>
    </g>
</svg>