<?xml version="1.0" encoding="UTF-8" standalone="no"?>
<svg width="1024px" height="768px" viewBox="0 0 1024 768" version="1.1" xmlns="http://www.w3.org/2000/svg" xmlns:xlink="http://www.w3.org/1999/xlink" xmlns:sketch="http://www.bohemiancoding.com/sketch/ns">
    <!-- Generator: Sketch 3.0.4 (8054) - http://www.bohemiancoding.com/sketch -->
    <title>Components/09-Siriona mode</title>
    <desc>Created with Sketch.</desc>
    <defs>
        <linearGradient x1="50%" y1="0%" x2="50%" y2="100%" id="linearGradient-1">
            <stop stop-color="#FFFFFF" stop-opacity="0.5" offset="0%"></stop>
            <stop stop-color="#DFDEDE" stop-opacity="0.5" offset="100%"></stop>
        </linearGradient>
        <filter x="-50%" y="-50%" width="200%" height="200%" filterUnits="objectBoundingBox" id="filter-2">
            <feOffset dx="0" dy="0" in="SourceAlpha" result="shadowOffsetInner1"></feOffset>
            <feGaussianBlur stdDeviation="1.5" in="shadowOffsetInner1" result="shadowBlurInner1"></feGaussianBlur>
            <feComposite in="shadowBlurInner1" in2="SourceAlpha" operator="arithmetic" k2="-1" k3="1" result="shadowInnerInner1"></feComposite>
            <feColorMatrix values="0 0 0 0 0.78039217   0 0 0 0 0.78039217   0 0 0 0 0.78039217  0 0 0 0.7 0" in="shadowInnerInner1" type="matrix" result="shadowMatrixInner1"></feColorMatrix>
            <feMerge>
                <feMergeNode in="SourceGraphic"></feMergeNode>
                <feMergeNode in="shadowMatrixInner1"></feMergeNode>
            </feMerge>
        </filter>
        <rect id="path-3" x="0" y="0" width="189" height="32" rx="4"></rect>
        <filter x="-50%" y="-50%" width="200%" height="200%" filterUnits="objectBoundingBox" id="filter-4">
            <feOffset dx="0" dy="0" in="SourceAlpha" result="shadowOffsetInner1"></feOffset>
            <feGaussianBlur stdDeviation="1.5" in="shadowOffsetInner1" result="shadowBlurInner1"></feGaussianBlur>
            <feComposite in="shadowBlurInner1" in2="SourceAlpha" operator="arithmetic" k2="-1" k3="1" result="shadowInnerInner1"></feComposite>
            <feColorMatrix values="0 0 0 0 0.78039217   0 0 0 0 0.78039217   0 0 0 0 0.78039217  0 0 0 0.7 0" in="shadowInnerInner1" type="matrix" result="shadowMatrixInner1"></feColorMatrix>
            <feMerge>
                <feMergeNode in="SourceGraphic"></feMergeNode>
                <feMergeNode in="shadowMatrixInner1"></feMergeNode>
            </feMerge>
        </filter>
        <rect id="path-5" x="0" y="0" width="189" height="32" rx="4"></rect>
        <filter x="-50%" y="-50%" width="200%" height="200%" filterUnits="objectBoundingBox" id="filter-6">
            <feOffset dx="0" dy="0" in="SourceAlpha" result="shadowOffsetOuter1"></feOffset>
            <feGaussianBlur stdDeviation="2" in="shadowOffsetOuter1" result="shadowBlurOuter1"></feGaussianBlur>
            <feColorMatrix values="0 0 0 0 0.82158801   0 0 0 0 0.82158801   0 0 0 0 0.82158801  0 0 0 0.7 0" in="shadowBlurOuter1" type="matrix" result="shadowMatrixOuter1"></feColorMatrix>
            <feMerge>
                <feMergeNode in="shadowMatrixOuter1"></feMergeNode>
                <feMergeNode in="SourceGraphic"></feMergeNode>
            </feMerge>
        </filter>
        <path d="M34.8206764,11.4054054 L209.998383,11.4054054 C212.214235,11.4054054 214,13.1948057 214,15.4021428 L214,43.0032626 C214,45.2104651 212.208415,47 209.998383,47 L4.00161651,47 C1.78576512,47 0,45.2105997 0,43.0032626 L0,15.4021428 C0,13.1949403 1.79158474,11.4054054 4.00161651,11.4054054 L12.7847923,11.4054054 L23.8027344,0.387463376 L34.8206764,11.4054054 Z" id="path-7"></path>
        <filter x="-50%" y="-50%" width="200%" height="200%" filterUnits="objectBoundingBox" id="filter-9">
            <feOffset dx="0" dy="1" in="SourceAlpha" result="shadowOffsetOuter1"></feOffset>
            <feGaussianBlur stdDeviation="1" in="shadowOffsetOuter1" result="shadowBlurOuter1"></feGaussianBlur>
            <feColorMatrix values="0 0 0 0 0   0 0 0 0 0   0 0 0 0 0  0 0 0 0.7 0" in="shadowBlurOuter1" type="matrix" result="shadowMatrixOuter1"></feColorMatrix>
            <feMerge>
                <feMergeNode in="shadowMatrixOuter1"></feMergeNode>
                <feMergeNode in="SourceGraphic"></feMergeNode>
            </feMerge>
        </filter>
    </defs>
    <g id="Composants" stroke="none" stroke-width="1" fill="none" fill-rule="evenodd" sketch:type="MSPage">
        <g id="Components/09-Siriona-mode" sketch:type="MSArtboardGroup">
            <g id="Titre" sketch:type="MSLayerGroup" transform="translate(0.000000, 21.000000)">
                <text id="Siriona-mode" sketch:type="MSTextLayer" font-family="Lato" font-size="30" font-weight="normal" fill="#015173">
                    <tspan x="30" y="30">Siriona mode</tspan>
                </text>
                <path d="M0,57.5 L1023.56146,57.5" id="Line" stroke="#015173" stroke-linecap="square" sketch:type="MSShapeGroup"></path>
            </g>
            <text id="Sirona-widgets" sketch:type="MSTextLayer" font-family="Lato" font-size="20" font-weight="normal" fill="#585858">
                <tspan x="30" y="130">Sirona widgets</tspan>
            </text>
            <text id="Sirona-features" sketch:type="MSTextLayer" font-family="Lato" font-size="20" font-weight="normal" fill="#585858">
                <tspan x="30" y="556">Sirona features</tspan>
            </text>
            <text id="Sirona-feature-dropd" sketch:type="MSTextLayer" font-family="Lato" font-size="20" font-weight="normal" fill="#585858">
                <tspan x="332" y="556">Sirona feature dropdown</tspan>
            </text>
            <text id="A-whole-widget-is-on" sketch:type="MSTextLayer" font-family="Arial" font-size="15" font-weight="normal" fill="#585858">
                <tspan x="30" y="154">A whole widget is only accessible to Siriona users</tspan>
            </text>
            <text id="A-badge-indicate-a-s" sketch:type="MSTextLayer" font-family="Arial" font-size="15" font-weight="normal" fill="#585858">
                <tspan x="30" y="580">A badge indicate a siriona feature</tspan>
            </text>
            <text id="A-dropdown-with-siri" sketch:type="MSTextLayer" font-family="Arial" font-size="15" font-weight="normal" fill="#585858">
                <tspan x="332" y="580">A dropdown with siriona features</tspan>
                <tspan x="332" y="597">Usefull in list for example</tspan>
            </text>
            <path d="M30,230 L30,480.994559 C30,483.206703 31.79485,485 33.9937353,485 L606.006265,485 C608.211944,485 610,483.200608 610,480.994559 L610,230 L30,230 Z" id="Rectangle-15" stroke="#E2E2E2" fill="#FFFFFF" sketch:type="MSShapeGroup"></path>
            <path d="M33.9937353,188 C31.7880562,188 30,189.788082 30,192.005903 L30,229 L610,229 L610,192.005903 C610,189.793504 608.20515,188 606.006265,188 L33.9937353,188 Z" id="Rectangle-16" stroke="#E2E2E2" fill="#35C1FD" sketch:type="MSShapeGroup"></path>
            <text id="Siriona-mode" sketch:type="MSTextLayer" font-family="Lato" font-size="16" font-weight="260" fill="#FFFFFF">
                <tspan x="70" y="214">Siriona mode</tspan>
            </text>
            <path d="M30.5,229.5 L609.134464,229.5" id="Line-5" stroke="#E2E2E2" stroke-linecap="square" sketch:type="MSShapeGroup"></path>
            <path d="M64.0079459,201.595678 L64.0079459,208.628874 C64.0079459,208.628874 63.5703514,214.714759 57.0037838,217.061241 C50.4377838,214.714759 50,208.628874 50,208.628874 L50,201.595678 C50,201.595678 53.5018919,201 57.0037838,201 C60.5056757,201 64.0079459,201.595678 64.0079459,201.595678 Z M57.8657271,212.888463 C58.1212044,212.798871 58.3404283,212.681075 58.5234053,212.535073 C58.7063823,212.389071 58.8496546,212.219844 58.9532264,212.027387 C59.0567983,211.834929 59.1085835,211.639157 59.1085835,211.440063 C59.1085835,211.114876 59.024001,210.831172 58.8548336,210.588941 C58.6856662,210.346711 58.4612639,210.127711 58.1816198,209.931935 C57.9019757,209.73616 57.5826339,209.558637 57.2235847,209.399362 C56.8645355,209.240087 56.5003132,209.075837 56.1309068,208.906607 C55.7615004,208.737378 55.3972781,208.554878 55.0382289,208.359102 C54.6791797,208.163327 54.3598379,207.937691 54.0801938,207.682187 C53.8005497,207.426683 53.5761474,207.131365 53.40698,206.796224 C53.2378126,206.461083 53.1532301,206.06456 53.1532301,205.606645 C53.1532301,205.175275 53.2481696,204.777093 53.4380514,204.412088 C53.6279332,204.047083 53.8903113,203.731856 54.2251937,203.466397 C54.5600761,203.200939 54.9605481,202.993553 55.4266215,202.844233 C55.892695,202.694912 56.4019158,202.620253 56.9542991,202.620253 C57.3202531,202.620253 57.6654875,202.64514 57.9900128,202.694913 C58.314538,202.744686 58.6304275,202.840914 58.9376907,202.983597 C59.244954,203.126281 59.5522126,203.327031 59.8594759,203.585853 C60.1667391,203.844675 60.4860809,204.183129 60.817511,204.601226 L60.0096543,205.298051 C59.588462,204.634405 59.117217,204.139996 58.5959052,203.81481 C58.0745934,203.489623 57.5170398,203.327032 56.9232277,203.327032 C56.6125121,203.327032 56.3259675,203.365192 56.0635854,203.441511 C55.8012033,203.51783 55.5768009,203.620694 55.3903716,203.750105 C55.2039422,203.879516 55.0589437,204.030493 54.9553718,204.203041 C54.8518,204.375589 54.8000148,204.558089 54.8000148,204.750546 C54.8000148,205.069096 54.8932281,205.347823 55.0796575,205.586735 C55.2660869,205.825648 55.5112033,206.04133 55.8150141,206.233787 C56.118825,206.426244 56.4640594,206.603767 56.8507278,206.76636 C57.2373961,206.928953 57.6344157,207.094862 58.0417984,207.264092 C58.4491812,207.433322 58.8462008,207.614163 59.2328691,207.80662 C59.6195375,207.999077 59.9647719,208.223054 60.2685827,208.478558 C60.5723936,208.734062 60.81751,209.02938 61.0039394,209.364521 C61.1903688,209.699662 61.2835821,210.089548 61.2835821,210.534191 C61.2835821,210.98547 61.1955473,211.408538 61.0194751,211.803407 C60.8434029,212.198277 60.5792986,212.540049 60.2271542,212.828735 C59.8750098,213.117421 59.4313836,213.344716 58.8962622,213.510628 C58.3611408,213.676539 57.7379927,213.759494 57.0267991,213.759494 C56.7022739,213.759494 56.3691226,213.734607 56.0273354,213.684834 C55.6855482,213.63506 55.3403138,213.538833 54.9916218,213.396149 C54.6429298,213.253465 54.2942431,213.052716 53.9455511,212.793894 C53.5968591,212.535072 53.2568032,212.196618 52.9253731,211.778521 L53.826444,210.992104 C54.0957309,211.357109 54.3546567,211.667359 54.6032292,211.922863 C54.8518017,212.178367 55.1020967,212.387412 55.3541216,212.550005 C55.6061465,212.712598 55.8685247,212.832053 56.1412639,212.908372 C56.4140032,212.984691 56.7091787,213.02285 57.0267991,213.02285 C57.3306099,213.02285 57.6102498,212.978055 57.8657271,212.888463 Z" id="Shape-3" fill="#FFFFFF" sketch:type="MSShapeGroup"></path>
            <g id="Group" sketch:type="MSLayerGroup" transform="translate(630.000000, 187.000000)">
                <g>
                    <rect id="Rectangle-22" stroke="#E2E2E2" fill="#35C1FD" sketch:type="MSShapeGroup" x="-0.4" y="-0.21641791" width="230" height="121" rx="4"></rect>
                    <path d="M219.030649,12.3082529 L219.030649,39.5618851 C219.030649,39.5618851 217.342784,63.1446897 192.014595,72.2373103 C166.688595,63.1446897 165,39.5618851 165,39.5618851 L165,12.3082529 C165,12.3082529 178.507297,10 192.014595,10 C205.521892,10 219.030649,12.3082529 219.030649,12.3082529 Z M195.339233,56.0677934 C196.324646,55.7206236 197.170223,55.2641665 197.875992,54.6984084 C198.58176,54.1326503 199.134382,53.476895 199.533873,52.731123 C199.933365,51.9853509 200.133108,51.2267321 200.133108,50.4552437 C200.133108,49.1951461 199.806861,48.0957917 199.154358,47.1571475 C198.501855,46.2185034 197.636303,45.3698789 196.557676,44.6112487 C195.479049,43.8526185 194.247302,43.1647184 192.862398,42.5475277 C191.477494,41.9303371 190.072637,41.2938687 188.647783,40.6381036 C187.22293,39.9823385 185.818073,39.2751515 184.433169,38.5165213 C183.048265,37.7578911 181.816518,36.8835508 180.73789,35.8934741 C179.659263,34.9033973 178.793711,33.7590401 178.141208,32.4603681 C177.488706,31.1616961 177.162459,29.6251715 177.162459,27.8507483 C177.162459,26.1791902 177.528654,24.6362367 178.261055,23.2218414 C178.993456,21.8074461 180.005487,20.5859412 181.297176,19.5572901 C182.588865,18.528639 184.133543,17.7250173 185.931255,17.1464011 C187.728966,16.5677848 189.693104,16.278481 191.823725,16.278481 C193.235262,16.278481 194.56688,16.3749156 195.818621,16.5677877 C197.070361,16.7606598 198.288792,17.1335402 199.47395,17.6864402 C200.659108,18.2393402 201.844249,19.0172459 203.029407,20.0201808 C204.214565,21.0231156 205.446312,22.3346261 206.724685,23.9547516 L203.608667,26.6549473 C201.984068,24.0833195 200.166409,22.1674856 198.155634,20.9073879 C196.14486,19.6472903 193.994297,19.0172509 191.703878,19.0172509 C190.505404,19.0172509 189.40016,19.1651173 188.388115,19.4608545 C187.37607,19.7565917 186.510518,20.155188 185.791433,20.6566555 C185.072348,21.1581229 184.513069,21.7431594 184.113577,22.4117827 C183.714086,23.0804059 183.514343,23.7875929 183.514343,24.533365 C183.514343,25.7677464 183.87388,26.8478138 184.592965,27.7735998 C185.312049,28.6993859 186.257498,29.5351524 187.42934,30.2809244 C188.601182,31.0266965 189.932801,31.7145966 191.424236,32.3446454 C192.915671,32.9746942 194.447032,33.6175915 196.018365,34.2733566 C197.589699,34.9291217 199.12106,35.6298798 200.612495,36.3756519 C202.10393,37.1214239 203.435549,37.9893353 204.607391,38.979412 C205.779232,39.9694887 206.724682,41.1138459 207.443766,42.412518 C208.162851,43.71119 208.522388,45.2219987 208.522388,46.9449893 C208.522388,48.6936962 208.182825,50.3330844 207.50369,51.8632029 C206.824554,53.3933215 205.805866,54.7176899 204.447595,55.836348 C203.089324,56.9550061 201.378194,57.8357754 199.314154,58.4786824 C197.250115,59.1215893 194.846543,59.443038 192.103368,59.443038 C190.851628,59.443038 189.566616,59.3466034 188.248294,59.1537313 C186.929972,58.9608592 185.598353,58.5879788 184.253398,58.0350788 C182.908444,57.4821788 181.563509,56.7042731 180.218554,55.7013382 C178.873599,54.6984034 177.561955,53.3868929 176.283582,51.7667673 L179.759141,48.7194036 C180.797819,50.1337989 181.796533,51.3360169 182.755313,52.3260936 C183.714092,53.3161703 184.679516,54.1262209 185.651612,54.7562697 C186.623708,55.3863185 187.635738,55.8492046 188.687732,56.1449418 C189.739727,56.440679 190.878261,56.5885454 192.103368,56.5885454 C193.27521,56.5885454 194.353821,56.4149631 195.339233,56.0677934 Z" id="Shape-3" opacity="0.151177705" fill="#ECECEC" sketch:type="MSShapeGroup"></path>
                    <g id="Rectangle-67-+-Rectangle-68-+-Group-3" transform="translate(20.000000, 20.000000)" sketch:type="MSShapeGroup">
                        <rect id="Rectangle-67" fill="#D8D8D8" x="0" y="0" width="56" height="28" rx="40"></rect>
                        <rect id="Rectangle-68" fill="#FF8328" x="0" y="0" width="28" height="28" rx="40"></rect>
                        <g id="Group-3" transform="translate(11.000000, 9.000000)" fill="#B34D02">
                            <ellipse id="Oval-11" cx="4.875" cy="1.15384615" rx="1.125" ry="1.15384615"></ellipse>
                            <ellipse id="Oval-10" cx="4.875" cy="5" rx="1.125" ry="1.15384615"></ellipse>
                            <ellipse id="Oval-9" cx="4.875" cy="8.84615385" rx="1.125" ry="1.15384615"></ellipse>
                            <ellipse id="Oval-8" cx="1.125" cy="1.15384615" rx="1.125" ry="1.15384615"></ellipse>
                            <ellipse id="Oval-7" cx="1.125" cy="5" rx="1.125" ry="1.15384615"></ellipse>
                            <ellipse id="Oval-6" cx="1.125" cy="8.84615385" rx="1.125" ry="1.15384615"></ellipse>
                        </g>
                    </g>
                    <text id="Admin-view" sketch:type="MSTextLayer" font-family="Arial" font-size="14" font-weight="normal" fill="#FFFFFF">
                        <tspan x="90" y="38.7835821">Admin view</tspan>
                    </text>
                    <g id="Rectangle-447-+-Triangle-1-+-Triangle-2-+-M.-11" transform="translate(20.000000, 68.000000)">
                        <g id="Rectangle-447" filter="url(#filter-2)">
                            <use stroke="#CFCFCF" stroke-width="1" fill="#FFFFFF" sketch:type="MSShapeGroup" xlink:href="#path-3"></use>
                            <use stroke="none" fill="url(#linearGradient-1)" xlink:href="#path-3"></use>
                        </g>
                        <g id="Triangle-1-+-Triangle-2" transform="translate(171.000000, 10.000000)" fill="#797979" sketch:type="MSShapeGroup">
                            <polygon id="Triangle-1" points="4 0 8 6 0 6 "></polygon>
                            <path d="M0,7 L8,7 L4,13 L0,7 Z" id="Triangle-2"></path>
                        </g>
                        <text id="Balanced-strategy" sketch:type="MSTextLayer" font-family="Arial" font-size="14" font-weight="normal" fill="#585858">
                            <tspan x="10" y="21">Balanced strategy</tspan>
                        </text>
                    </g>
                </g>
            </g>
            <g id="Group" sketch:type="MSLayerGroup" transform="translate(630.000000, 329.000000)">
                <rect id="Rectangle-22" stroke="#E2E2E2" fill="#E2E2E2" sketch:type="MSShapeGroup" x="0" y="0" width="230" height="161" rx="4"></rect>
                <g id="Rectangle-67-+-Rectangle-68-+-Group-3-+-Admin-view" transform="translate(21.000000, 61.000000)">
                    <g id="Rectangle-67-+-Rectangle-68-+-Group-3" transform="translate(-0.400000, 0.000000)" sketch:type="MSShapeGroup">
                        <rect id="Rectangle-67" fill="#D8D8D8" x="0" y="0" width="56" height="28" rx="40"></rect>
                        <rect id="Rectangle-68" fill="#FF8328" x="0" y="0" width="28" height="28" rx="40"></rect>
                        <g id="Group-3" transform="translate(11.000000, 9.000000)" fill="#B34D02">
                            <ellipse id="Oval-11" cx="4.875" cy="1.15384615" rx="1.125" ry="1.15384615"></ellipse>
                            <ellipse id="Oval-10" cx="4.875" cy="5" rx="1.125" ry="1.15384615"></ellipse>
                            <ellipse id="Oval-9" cx="4.875" cy="8.84615385" rx="1.125" ry="1.15384615"></ellipse>
                            <ellipse id="Oval-8" cx="1.125" cy="1.15384615" rx="1.125" ry="1.15384615"></ellipse>
                            <ellipse id="Oval-7" cx="1.125" cy="5" rx="1.125" ry="1.15384615"></ellipse>
                            <ellipse id="Oval-6" cx="1.125" cy="8.84615385" rx="1.125" ry="1.15384615"></ellipse>
                        </g>
                    </g>
                    <text id="Admin-view" sketch:type="MSTextLayer" font-family="Arial" font-size="14" font-weight="normal" fill="#585858">
                        <tspan x="69.6" y="18.7835821">Admin view</tspan>
                    </text>
                </g>
                <g id="Rectangle-447-+-Triangle-1-+-Triangle-2-+-M.-11" transform="translate(21.000000, 109.000000)">
                    <g id="Rectangle-447" filter="url(#filter-4)">
                        <use stroke="#CFCFCF" stroke-width="1" fill="#FFFFFF" sketch:type="MSShapeGroup" xlink:href="#path-5"></use>
                        <use stroke="none" fill="url(#linearGradient-1)" xlink:href="#path-5"></use>
                    </g>
                    <g id="Triangle-1-+-Triangle-2" transform="translate(171.000000, 10.000000)" fill="#797979" sketch:type="MSShapeGroup">
                        <polygon id="Triangle-1" points="4 0 8 6 0 6 "></polygon>
                        <path d="M0,7 L8,7 L4,13 L0,7 Z" id="Triangle-2"></path>
                    </g>
                    <text id="Balanced-strategy" sketch:type="MSTextLayer" font-family="Arial" font-size="14" font-weight="normal" fill="#585858">
                        <tspan x="10" y="21">Balanced strategy</tspan>
                    </text>
                </g>
                <g id="Rectangle-17-+-Siriona-2-+-Shape-4">
                    <path d="M3.99208069,-1.21582239e-15 C1.7873154,-1.21582239e-15 0,1.78808228 0,4.00590344 L0,41 L230,41 L230,4.00590344 C230,1.79350406 228.215359,-1.21582239e-15 226.007919,-1.21582239e-15 L3.99208069,-1.21582239e-15 Z" id="Rectangle-17" stroke="#E2E2E2" fill="#35C1FD" sketch:type="MSShapeGroup"></path>
                    <text id="Siriona-mode" sketch:type="MSTextLayer" font-family="Lato" font-size="16" font-weight="260" fill="#FFFFFF">
                        <tspan x="40" y="26">Siriona mode</tspan>
                    </text>
                    <path d="M34.0079459,13.5956782 L34.0079459,20.6288736 C34.0079459,20.6288736 33.5703514,26.7147586 27.0037838,29.0612414 C20.4377838,26.7147586 20,20.6288736 20,20.6288736 L20,13.5956782 C20,13.5956782 23.5018919,13 27.0037838,13 C30.5056757,13 34.0079459,13.5956782 34.0079459,13.5956782 Z M27.8657271,24.8884628 C28.1212044,24.7988706 28.3404283,24.6810752 28.5234053,24.5350731 C28.7063823,24.389071 28.8496546,24.2198439 28.9532264,24.0273866 C29.0567983,23.8349293 29.1085835,23.6391567 29.1085835,23.4400629 C29.1085835,23.1148764 29.024001,22.8311721 28.8548336,22.5889413 C28.6856662,22.3467106 28.4612639,22.1277107 28.1816198,21.9319352 C27.9019757,21.7361596 27.5826339,21.558637 27.2235847,21.399362 C26.8645355,21.240087 26.5003132,21.0758371 26.1309068,20.9066074 C25.7615004,20.7373777 25.3972781,20.5548778 25.0382289,20.3591023 C24.6791797,20.1633267 24.3598379,19.9376905 24.0801938,19.6821869 C23.8005497,19.4266832 23.5761474,19.1313652 23.40698,18.796224 C23.2378126,18.4610829 23.1532301,18.0645604 23.1532301,17.6066447 C23.1532301,17.1752749 23.2481696,16.7770933 23.4380514,16.4120881 C23.6279332,16.0470829 23.8903113,15.7318558 24.2251937,15.4663974 C24.5600761,15.2009391 24.9605481,14.9935529 25.4266215,14.8442325 C25.892695,14.6949122 26.4019158,14.6202532 26.9542991,14.6202532 C27.3202531,14.6202532 27.6654875,14.6451395 27.9900128,14.694913 C28.314538,14.7446864 28.6304275,14.8409136 28.9376907,14.9835975 C29.244954,15.1262813 29.5522126,15.3270312 29.8594759,15.5858531 C30.1667391,15.844675 30.4860809,16.1831293 30.817511,16.6012262 L30.0096543,17.2980509 C29.588462,16.634405 29.117217,16.1399963 28.5959052,15.8148098 C28.0745934,15.4896233 27.5170398,15.3270325 26.9232277,15.3270325 C26.6125121,15.3270325 26.3259675,15.3651916 26.0635854,15.4415108 C25.8012033,15.5178301 25.5768009,15.6206937 25.3903716,15.7501046 C25.2039422,15.8795156 25.0589437,16.0304928 24.9553718,16.2030407 C24.8518,16.3755886 24.8000148,16.5580885 24.8000148,16.7505458 C24.8000148,17.0690958 24.8932281,17.3478229 25.0796575,17.5867354 C25.2660869,17.825648 25.5112033,18.0413296 25.8150141,18.2337869 C26.118825,18.4262443 26.4640594,18.6037669 26.8507278,18.7663601 C27.2373961,18.9289534 27.6344157,19.0948623 28.0417984,19.264092 C28.4491812,19.4333217 28.8462008,19.6141625 29.2328691,19.8066198 C29.6195375,19.9990771 29.9647719,20.2230543 30.2685827,20.4785579 C30.5723936,20.7340616 30.81751,21.0293796 31.0039394,21.3645208 C31.1903688,21.6996619 31.2835821,22.089548 31.2835821,22.5341908 C31.2835821,22.98547 31.1955473,23.4085379 31.0194751,23.8034072 C30.8434029,24.1982765 30.5792986,24.540049 30.2271542,24.828735 C29.8750098,25.1174209 29.4313836,25.3447162 28.8962622,25.5106277 C28.3611408,25.6765392 27.7379927,25.7594937 27.0267991,25.7594937 C26.7022739,25.7594937 26.3691226,25.7346073 26.0273354,25.6848339 C25.6855482,25.6350604 25.3403138,25.5388332 24.9916218,25.3961494 C24.6429298,25.2534655 24.2942431,25.0527156 23.9455511,24.7938937 C23.5968591,24.5350718 23.2568032,24.1966175 22.9253731,23.7785206 L23.826444,22.9921042 C24.0957309,23.3571094 24.3546567,23.6673592 24.6032292,23.9228629 C24.8518017,24.1783665 25.1020967,24.3874118 25.3541216,24.5500051 C25.6061465,24.7125983 25.8685247,24.8320528 26.1412639,24.9083721 C26.4140032,24.9846914 26.7091787,25.0228504 27.0267991,25.0228504 C27.3306099,25.0228504 27.6102498,24.978055 27.8657271,24.8884628 Z" id="Shape-4" fill="#FFFFFF" sketch:type="MSShapeGroup"></path>
                </g>
            </g>
            <g id="Shape-2-+--2" sketch:type="MSLayerGroup" transform="translate(332.000000, 613.000000)" fill="#35C1FD">
                <path d="M12.0068108,0.521218391 L12.0068108,6.67526437 C12.0068108,6.67526437 11.6317297,12.0004138 6.00324324,14.0535862 C0.375243243,12.0004138 0,6.67526437 0,6.67526437 L0,0.521218391 C2.88057866e-16,0.521218391 3.00162162,0 6.00324324,0 C9.00486486,0 12.0068108,0.521218391 12.0068108,0.521218391 Z M6.74205182,10.402405 C6.96103237,10.3240118 7.14893853,10.2209408 7.30577595,10.093189 C7.46261337,9.96543716 7.58541819,9.81736339 7.67419409,9.64896325 C7.76296998,9.4805631 7.80735727,9.30926208 7.80735727,9.13505503 C7.80735727,8.85051686 7.73485804,8.60227554 7.5898574,8.39032364 C7.44485677,8.17837173 7.25251188,7.98674686 7.01281696,7.81544326 C6.77312203,7.64413967 6.49940045,7.48880738 6.19164401,7.34944175 C5.88388757,7.21007611 5.57169701,7.06635746 5.25506298,6.91828147 C4.93842894,6.77020548 4.62623838,6.61051808 4.31848194,6.43921449 C4.0107255,6.26791089 3.73700392,6.0704792 3.49730899,5.8469135 C3.25761407,5.62334779 3.06526918,5.36494455 2.92026855,5.07169602 C2.77526791,4.7784475 2.70276868,4.43149033 2.70276868,4.03081413 C2.70276868,3.65336553 2.78414537,3.30495667 2.94690118,2.98557709 C3.10965699,2.6661975 3.33455256,2.39037382 3.62159463,2.15809776 C3.9086367,1.9258217 4.25189835,1.74435875 4.65138989,1.61370346 C5.05088143,1.48304818 5.48735638,1.41772152 5.96082783,1.41772152 C6.27450267,1.41772152 6.57041789,1.43949707 6.84858237,1.48304883 C7.12674685,1.5266006 7.39750927,1.6107994 7.66087777,1.73564779 C7.92424626,1.86049617 8.18761081,2.0361523 8.4509793,2.26262146 C8.7143478,2.48909062 8.98806938,2.78523816 9.27215225,3.15107295 L8.57970371,3.76079456 C8.21868173,3.18010441 7.81475745,2.74749674 7.36791877,2.46295856 C6.92108009,2.17842039 6.44317701,2.03615344 5.9341952,2.03615344 C5.6678675,2.03615344 5.42225787,2.06954262 5.19735893,2.13632199 C4.97245999,2.20310135 4.7801151,2.29310698 4.62031848,2.40634156 C4.46052187,2.51957614 4.33623747,2.65168116 4.24746158,2.8026606 C4.15868568,2.95364004 4.1142984,3.11332744 4.1142984,3.28172758 C4.1142984,3.56045885 4.19419551,3.80434506 4.35399212,4.01339351 C4.51378874,4.22244197 4.72388854,4.41116344 4.98429784,4.57956358 C5.24470714,4.74796372 5.54062236,4.90329601 5.87205238,5.0455651 C6.20348239,5.18783418 6.5437849,5.33300454 6.89297009,5.48108053 C7.24215529,5.62915652 7.58245779,5.78739221 7.91388781,5.95579236 C8.24531783,6.1241925 8.54123305,6.32017249 8.80164235,6.54373819 C9.06205165,6.7673039 9.27215145,7.02570714 9.43194807,7.31895567 C9.59174468,7.61220419 9.67164179,7.95335454 9.67164179,8.34241694 C9.67164179,8.73728624 9.59618341,9.10747066 9.44526438,9.4529813 C9.29434536,9.79849194 9.06797022,10.0975429 8.76613216,10.3501431 C8.46429411,10.6027433 8.08404306,10.8016267 7.62536759,10.9467992 C7.16669212,11.0919718 6.63256514,11.164557 6.02297065,11.164557 C5.74480617,11.164557 5.45924798,11.1427814 5.16628752,11.0992296 C4.87332706,11.0556779 4.57741184,10.9714791 4.27853299,10.8466307 C3.97965413,10.7217823 3.68077976,10.5461262 3.3819009,10.319657 C3.08302205,10.0931879 2.79154556,9.79704032 2.50746269,9.43120553 L3.27980913,8.74309114 C3.51062647,9.06247072 3.73256288,9.3339393 3.94562503,9.55750501 C4.15868719,9.78107071 4.37322572,9.96398537 4.58924707,10.1062545 C4.80526842,10.2485235 5.03016399,10.3530462 5.26394052,10.4198256 C5.49771705,10.4866049 5.75072456,10.5199941 6.02297065,10.5199941 C6.28337995,10.5199941 6.52307128,10.4807981 6.74205182,10.402405 Z" id="Shape-2" sketch:type="MSShapeGroup"></path>
                <text id="-2" sketch:type="MSTextLayer" font-family="FontAwesome" font-size="14" font-weight="normal">
                    <tspan x="17" y="12"></tspan>
                </text>
            </g>
            <g id="Shape-2-+--2" sketch:type="MSLayerGroup" transform="translate(30.000000, 613.000000)">
                <path d="M12.0068108,1.52121839 L12.0068108,7.67526437 C12.0068108,7.67526437 11.6317297,13.0004138 6.00324324,15.0535862 C0.375243243,13.0004138 0,7.67526437 0,7.67526437 L0,1.52121839 C2.88057866e-16,1.52121839 3.00162162,1 6.00324324,1 C9.00486486,1 12.0068108,1.52121839 12.0068108,1.52121839 Z M6.74205182,11.402405 C6.96103237,11.3240118 7.14893853,11.2209408 7.30577595,11.093189 C7.46261337,10.9654372 7.58541819,10.8173634 7.67419409,10.6489632 C7.76296998,10.4805631 7.80735727,10.3092621 7.80735727,10.135055 C7.80735727,9.85051686 7.73485804,9.60227554 7.5898574,9.39032364 C7.44485677,9.17837173 7.25251188,8.98674686 7.01281696,8.81544326 C6.77312203,8.64413967 6.49940045,8.48880738 6.19164401,8.34944175 C5.88388757,8.21007611 5.57169701,8.06635746 5.25506298,7.91828147 C4.93842894,7.77020548 4.62623838,7.61051808 4.31848194,7.43921449 C4.0107255,7.26791089 3.73700392,7.0704792 3.49730899,6.8469135 C3.25761407,6.62334779 3.06526918,6.36494455 2.92026855,6.07169602 C2.77526791,5.7784475 2.70276868,5.43149033 2.70276868,5.03081413 C2.70276868,4.65336553 2.78414537,4.30495667 2.94690118,3.98557709 C3.10965699,3.6661975 3.33455256,3.39037382 3.62159463,3.15809776 C3.9086367,2.9258217 4.25189835,2.74435875 4.65138989,2.61370346 C5.05088143,2.48304818 5.48735638,2.41772152 5.96082783,2.41772152 C6.27450267,2.41772152 6.57041789,2.43949707 6.84858237,2.48304883 C7.12674685,2.5266006 7.39750927,2.6107994 7.66087777,2.73564779 C7.92424626,2.86049617 8.18761081,3.0361523 8.4509793,3.26262146 C8.7143478,3.48909062 8.98806938,3.78523816 9.27215225,4.15107295 L8.57970371,4.76079456 C8.21868173,4.18010441 7.81475745,3.74749674 7.36791877,3.46295856 C6.92108009,3.17842039 6.44317701,3.03615344 5.9341952,3.03615344 C5.6678675,3.03615344 5.42225787,3.06954262 5.19735893,3.13632199 C4.97245999,3.20310135 4.7801151,3.29310698 4.62031848,3.40634156 C4.46052187,3.51957614 4.33623747,3.65168116 4.24746158,3.8026606 C4.15868568,3.95364004 4.1142984,4.11332744 4.1142984,4.28172758 C4.1142984,4.56045885 4.19419551,4.80434506 4.35399212,5.01339351 C4.51378874,5.22244197 4.72388854,5.41116344 4.98429784,5.57956358 C5.24470714,5.74796372 5.54062236,5.90329601 5.87205238,6.0455651 C6.20348239,6.18783418 6.5437849,6.33300454 6.89297009,6.48108053 C7.24215529,6.62915652 7.58245779,6.78739221 7.91388781,6.95579236 C8.24531783,7.1241925 8.54123305,7.32017249 8.80164235,7.54373819 C9.06205165,7.7673039 9.27215145,8.02570714 9.43194807,8.31895567 C9.59174468,8.61220419 9.67164179,8.95335454 9.67164179,9.34241694 C9.67164179,9.73728624 9.59618341,10.1074707 9.44526438,10.4529813 C9.29434536,10.7984919 9.06797022,11.0975429 8.76613216,11.3501431 C8.46429411,11.6027433 8.08404306,11.8016267 7.62536759,11.9467992 C7.16669212,12.0919718 6.63256514,12.164557 6.02297065,12.164557 C5.74480617,12.164557 5.45924798,12.1427814 5.16628752,12.0992296 C4.87332706,12.0556779 4.57741184,11.9714791 4.27853299,11.8466307 C3.97965413,11.7217823 3.68077976,11.5461262 3.3819009,11.319657 C3.08302205,11.0931879 2.79154556,10.7970403 2.50746269,10.4312055 L3.27980913,9.74309114 C3.51062647,10.0624707 3.73256288,10.3339393 3.94562503,10.557505 C4.15868719,10.7810707 4.37322572,10.9639854 4.58924707,11.1062545 C4.80526842,11.2485235 5.03016399,11.3530462 5.26394052,11.4198256 C5.49771705,11.4866049 5.75072456,11.5199941 6.02297065,11.5199941 C6.28337995,11.5199941 6.52307128,11.4807981 6.74205182,11.402405 Z" id="Shape-2" fill="#35C1FD" sketch:type="MSShapeGroup"></path>
                <text id="Do-something-awesome" sketch:type="MSTextLayer" font-family="Arial" font-size="14" font-weight="normal" fill="#028ECA">
                    <tspan x="17" y="13">Do something awesome</tspan>
                </text>
            </g>
            <g id="Shape-2-+--2-+-Rectangle-63-+-Option-1-+-Line-+-Click-2" sketch:type="MSLayerGroup" transform="translate(399.000000, 613.000000)">
                <g id="Shape-2-+--2" transform="translate(8.000000, 0.000000)" fill="#015173">
                    <path d="M12.0068108,0.521218391 L12.0068108,6.67526437 C12.0068108,6.67526437 11.6317297,12.0004138 6.00324324,14.0535862 C0.375243243,12.0004138 0,6.67526437 0,6.67526437 L0,0.521218391 C2.88057866e-16,0.521218391 3.00162162,0 6.00324324,0 C9.00486486,0 12.0068108,0.521218391 12.0068108,0.521218391 Z M6.74205182,10.402405 C6.96103237,10.3240118 7.14893853,10.2209408 7.30577595,10.093189 C7.46261337,9.96543716 7.58541819,9.81736339 7.67419409,9.64896325 C7.76296998,9.4805631 7.80735727,9.30926208 7.80735727,9.13505503 C7.80735727,8.85051686 7.73485804,8.60227554 7.5898574,8.39032364 C7.44485677,8.17837173 7.25251188,7.98674686 7.01281696,7.81544326 C6.77312203,7.64413967 6.49940045,7.48880738 6.19164401,7.34944175 C5.88388757,7.21007611 5.57169701,7.06635746 5.25506298,6.91828147 C4.93842894,6.77020548 4.62623838,6.61051808 4.31848194,6.43921449 C4.0107255,6.26791089 3.73700392,6.0704792 3.49730899,5.8469135 C3.25761407,5.62334779 3.06526918,5.36494455 2.92026855,5.07169602 C2.77526791,4.7784475 2.70276868,4.43149033 2.70276868,4.03081413 C2.70276868,3.65336553 2.78414537,3.30495667 2.94690118,2.98557709 C3.10965699,2.6661975 3.33455256,2.39037382 3.62159463,2.15809776 C3.9086367,1.9258217 4.25189835,1.74435875 4.65138989,1.61370346 C5.05088143,1.48304818 5.48735638,1.41772152 5.96082783,1.41772152 C6.27450267,1.41772152 6.57041789,1.43949707 6.84858237,1.48304883 C7.12674685,1.5266006 7.39750927,1.6107994 7.66087777,1.73564779 C7.92424626,1.86049617 8.18761081,2.0361523 8.4509793,2.26262146 C8.7143478,2.48909062 8.98806938,2.78523816 9.27215225,3.15107295 L8.57970371,3.76079456 C8.21868173,3.18010441 7.81475745,2.74749674 7.36791877,2.46295856 C6.92108009,2.17842039 6.44317701,2.03615344 5.9341952,2.03615344 C5.6678675,2.03615344 5.42225787,2.06954262 5.19735893,2.13632199 C4.97245999,2.20310135 4.7801151,2.29310698 4.62031848,2.40634156 C4.46052187,2.51957614 4.33623747,2.65168116 4.24746158,2.8026606 C4.15868568,2.95364004 4.1142984,3.11332744 4.1142984,3.28172758 C4.1142984,3.56045885 4.19419551,3.80434506 4.35399212,4.01339351 C4.51378874,4.22244197 4.72388854,4.41116344 4.98429784,4.57956358 C5.24470714,4.74796372 5.54062236,4.90329601 5.87205238,5.0455651 C6.20348239,5.18783418 6.5437849,5.33300454 6.89297009,5.48108053 C7.24215529,5.62915652 7.58245779,5.78739221 7.91388781,5.95579236 C8.24531783,6.1241925 8.54123305,6.32017249 8.80164235,6.54373819 C9.06205165,6.7673039 9.27215145,7.02570714 9.43194807,7.31895567 C9.59174468,7.61220419 9.67164179,7.95335454 9.67164179,8.34241694 C9.67164179,8.73728624 9.59618341,9.10747066 9.44526438,9.4529813 C9.29434536,9.79849194 9.06797022,10.0975429 8.76613216,10.3501431 C8.46429411,10.6027433 8.08404306,10.8016267 7.62536759,10.9467992 C7.16669212,11.0919718 6.63256514,11.164557 6.02297065,11.164557 C5.74480617,11.164557 5.45924798,11.1427814 5.16628752,11.0992296 C4.87332706,11.0556779 4.57741184,10.9714791 4.27853299,10.8466307 C3.97965413,10.7217823 3.68077976,10.5461262 3.3819009,10.319657 C3.08302205,10.0931879 2.79154556,9.79704032 2.50746269,9.43120553 L3.27980913,8.74309114 C3.51062647,9.06247072 3.73256288,9.3339393 3.94562503,9.55750501 C4.15868719,9.78107071 4.37322572,9.96398537 4.58924707,10.1062545 C4.80526842,10.2485235 5.03016399,10.3530462 5.26394052,10.4198256 C5.49771705,10.4866049 5.75072456,10.5199941 6.02297065,10.5199941 C6.28337995,10.5199941 6.52307128,10.4807981 6.74205182,10.402405 Z" id="Shape-2" sketch:type="MSShapeGroup"></path>
                    <text id="-2" sketch:type="MSTextLayer" font-family="FontAwesome" font-size="14" font-weight="normal">
                        <tspan x="17" y="12"></tspan>
                    </text>
                </g>
                <g id="Rectangle-63-+-Option-1-+-Line" transform="translate(0.000000, 19.000000)">
                    <mask id="mask-8" sketch:name="Rectangle 63" fill="white">
                        <use xlink:href="#path-7"></use>
                    </mask>
                    <use id="Rectangle-63" stroke="#E2E2E2" fill="#FFFFFF" filter="url(#filter-6)" sketch:type="MSShapeGroup" xlink:href="#path-7"></use>
                    <text id="-View-all-sync.-for" sketch:type="MSTextLayer" mask="url(#mask-8)" font-family="FontAwesome" font-size="13" font-weight="normal" fill="#028ECA">
                        <tspan x="10" y="33"></tspan>
                        <tspan x="21.1428571" y="33"> </tspan>
                        <tspan x="24.3928571" y="33" font-family="Arial">View all sync. for this channel</tspan>
                    </text>
                </g>
                <g id="Click-2" transform="translate(17.000000, 12.000000)" stroke="#000000" filter="url(#filter-9)" fill="#FFFFFF" sketch:type="MSShapeGroup">
                    <path d="M4.99975564,14 C4.99975564,14 2.7939921,12.3012618 2.01797716,11 C1.24196223,9.69873817 -0.228546798,8.04100945 0.0301248696,7 C0.288796515,5.95899054 1.24196223,5.63091493 2.01797724,6.41167212 C2.79399229,7.19242921 3.31673914,8.88406944 3.83408253,8.62381703 C4.35142594,8.3635647 3.96341818,5.89116721 3.44607506,4.45977918 C2.92873189,3.0283912 2.38935737,1.74506734e-07 3.44607505,0 C4.50279274,-9.28378237e-08 4.50279254,1 4.99975564,2.5 C5.49671876,3.99999999 5.10871115,5.99999931 5.49671874,6 C5.88472632,6.00000059 6.03279134,5.65063082 6.03279144,5 C6.03279148,4.82318548 6.06724813,4.67374541 6.13720714,4.54985954 C6.32467886,4.21787805 6.76709251,4.06940091 7.48457114,4.06940079 C8.46979199,4.06940079 7.98153424,6.00000009 8.47849734,6 C8.97546044,6 8.97546083,6.04100937 8.97546044,5 C8.97546006,3.95899063 9.43628365,4.06940096 10.4302098,4.06940079 C11.424136,4.06940079 10.942933,5.9999999 11.4602759,6 C11.9776189,6.00000009 11.4602759,5.00000008 11.957239,5 C12.4542021,5 12.9511647,5.15772862 12.9511652,7.5 C12.9511658,9.84227138 13.2302174,9.95899044 12.4542021,11 C11.6781868,12.0410096 10.9633128,13 10.9633128,13 C10.9633128,13 10.9633128,14 10.4302098,14 C9.89710685,14.0000001 9.62213993,12.9999999 8.97546044,13 C8.32878095,13.0000001 7.98153424,14 7.98153424,14 L4.99975564,14 Z M11,12 L11,8 L10,8 L10,12 L11,12 Z M8,11 C8,11.2708838 8.23193359,12 8.5,12 C8.77614237,12 9,11.2754211 9,11 L9,9 C9,8.7291162 8.76806641,8 8.5,8 C8.22385763,8 8,8.72457886 8,9 L8,11 Z M6,11 C6,11.2708838 6.23193359,12 6.5,12 C6.77614237,12 7,11.2754211 7,11 L7,9 C7,8.7291162 6.76806641,8 6.5,8 C6.22385763,8 6,8.72457886 6,9 L6,11 Z" id="Pointer"></path>
                </g>
            </g>
        </g>
    </g>
</svg>